{
.appVersion = "1342";
copyright = "Copyright 2021 The Yuji Project Authors (https://github.com/Kinutafontfactory/Yuji)";
customParameters = (
{
name = panose;
value = (
2,
11,
6,
0,
0,
0,
0,
0,
0,
0
);
},
{
name = fsType;
value = (
);
},
{
name = localizedDesigner;
value = "Japanese;片岡佑之";
},
{
name = localizedFamilyName;
value = "Japanese;佑字 肅";
},
{
name = license;
value = "This Font Software is licensed under the SIL Open Font License, Version 1.1. This license is available with a FAQ at: https://scripts.sil.org/OFL";
},
{
name = licenseURL;
value = "https://scripts.sil.org/OFL";
},
{
name = vendorID;
value = KDW;
}
);
date = "2020-12-04 07:36:16 +0000";
designer = "Kataoka Yuji";
disablesAutomaticAlignment = 1;
disablesNiceNames = 1;
familyName = "Yuji Syuku";
featurePrefixes = (
{
automatic = 1;
code = "languagesystem DFLT dflt;\012\012languagesystem kana dflt;\012";
name = Languagesystems;
},
{
code = "table BASE {\012  HorizAxis.BaseTagList                 icfb  icft  ideo  romn;\012  HorizAxis.BaseScriptList  DFLT  ideo   25  735   -120  0,\012                            hani  ideo   25  735   -120  0,\012                            kana  ideo   25  735   -120  0,\012                            latn  romn   25  735   -120  0,\012                            cyrl  romn   25  735   -120  0,\012                            grek  romn   25  735   -120  0;\012\012  VertAxis.BaseTagList                  icfb  icft  ideo  romn;\012  VertAxis.BaseScriptList   DFLT  ideo  145    855   0     120,\012                            hani  ideo  145    855   0     120,\012                            kana  ideo  145    855   0     120,\012                            latn  romn  145    855   0     120,\012                            cyrl  romn  145    855   0     120,\012                            grek  romn  145    855   0     120;\012} BASE;";
name = BASE;
}
);
features = (
{
automatic = 1;

glyphs = (
{
glyphname = A;
lastChange = "2020-12-04 07:33:56 +0000";
layers = (
{
hints = (
{
horizontal = 1;
place = "{235, 52}";
type = Stem;
},
{
horizontal = 1;
place = "{672, -20}";
target = down;
type = TopGhost;
},
{
place = "{42, 652}";
type = Stem;
},
{
horizontal = 1;
place = "{668, -20}";
target = down;
type = TopGhost;
}
);
layerId = "96B4F23F-F25B-4934-A27A-69E4A96ADD36";
paths = (
{
closed = 1;
nodes = (
"700 59 OFFCURVE",
"661 63 OFFCURVE",
"633 69 CURVE",
"637 92 OFFCURVE",
"612 99 OFFCURVE",
"603 118 CURVE SMOOTH",
"597 130 OFFCURVE",
"591 154 OFFCURVE",
"587 167 CURVE SMOOTH",
"560 255 OFFCURVE",
"524 359 OFFCURVE",
"490 453 CURVE SMOOTH",
"473 498 OFFCURVE",
"457 541 OFFCURVE",
"442 579 CURVE",
"455 617 OFFCURVE",
"419 626 OFFCURVE",
"435 668 CURVE",
"417 675 OFFCURVE",
"385 672 OFFCURVE",
"366 668 CURVE",
"335 608 OFFCURVE",
"304 532 OFFCURVE",
"275 454 CURVE SMOOTH",
"246 378 OFFCURVE",
"219 299 OFFCURVE",
"191 230 CURVE SMOOTH",
"174 188 OFFCURVE",
"162 136 OFFCURVE",
"133 105 CURVE SMOOTH",
"116 86 OFFCURVE",
"91 75 OFFCURVE",
"58 78 CURVE",
"54 62 OFFCURVE",
"43 53 OFFCURVE",
"42 33 CURVE",
"53 28 OFFCURVE",
"55 14 OFFCURVE",
"62 5 CURVE",
"115 23 OFFCURVE",
"203 -2 OFFCURVE",
"273 12 CURVE",
"280 44 OFFCURVE",
"265 56 OFFCURVE",
"245 61 CURVE SMOOTH",
"222 67 OFFCURVE",
"194 66 OFFCURVE",
"187 81 CURVE",
"203 115 OFFCURVE",
"238 206 OFFCURVE",
"251 230 CURVE",
"318 234 OFFCURVE",
"414 238 OFFCURVE",
"487 235 CURVE",
"492 211 OFFCURVE",
"532 116 OFFCURVE",
"524 78 CURVE",
"495 73 OFFCURVE",
"453 59 OFFCURVE",
"471 20 CURVE",
"497 16 OFFCURVE",
"571 6 OFFCURVE",
"627 8 CURVE SMOOTH",
"662 9 OFFCURVE",
"690 15 OFFCURVE",
"693 29 CURVE SMOOTH"
);
},
{
closed = 1;
nodes = (
"434 288 OFFCURVE",
"308 290 OFFCURVE",
"273 287 CURVE",
"282 311 OFFCURVE",
"310 387 OFFCURVE",
"335 454 CURVE SMOOTH",
"373 557 LINE",
"388 529 OFFCURVE",
"403 492 OFFCURVE",
"416 454 CURVE SMOOTH",
"438 389 OFFCURVE",
"456 321 OFFCURVE",
"466 296 CURVE"
);
}
);
vertWidth = 1000;
width = 738;
}
);
note = cid00034;
unicode = 0041;
},
{
glyphname = AE;
lastChange = "2020-12-04 07:33:56 +0000";
layers = (
{
hints = (
{
horizontal = 1;
place = "{3, 73}";
type = Stem;
},
{
horizontal = 1;
place = "{335, 73}";
type = Stem;
},
{
horizontal = 1;
place = "{648, 74}";
type = Stem;
},
{
place = "{567, 84}";
type = Stem;
},
{
place = "{567, 81.5}";
type = Stem;
},
{
horizontal = 1;
place = "{237, 75}";
type = Stem;
}
);
layerId = "96B4F23F-F25B-4934-A27A-69E4A96ADD36";
paths = (
{
closed = 1;
nodes = (
"934 67 OFFCURVE",
"956 143 OFFCURVE",
"929 197 CURVE",
"888 180 OFFCURVE",
"897 114 OFFCURVE",
"875 77 CURVE",
"803 58 OFFCURVE",
"700 61 OFFCURVE",
"626 65 CURVE",
"631 149 OFFCURVE",
"629 224 OFFCURVE",
"626 298 CURVE",
"675 321 OFFCURVE",
"747 315 OFFCURVE",
"809 306 CURVE",
"823 280 OFFCURVE",
"815 233 OFFCURVE",
"859 237 CURVE",
"869 287 OFFCURVE",
"857 378 OFFCURVE",
"871 431 CURVE",
"857 434 OFFCURVE",
"851 446 OFFCURVE",
"836 438 CURVE",
"819 418 OFFCURVE",
"819 379 OFFCURVE",
"793 368 CURVE",
"739 365 OFFCURVE",
"683 365 OFFCURVE",
"631 360 CURVE",
"628 389 OFFCURVE",
"626 422 OFFCURVE",
"626 454 CURVE SMOOTH",
"626 510 OFFCURVE",
"628 564 OFFCURVE",
"626 590 CURVE",
"684 597 OFFCURVE",
"805 593 OFFCURVE",
"871 593 CURVE",
"883 575 OFFCURVE",
"881 536 OFFCURVE",
"887 509 CURVE SMOOTH",
"891 489 OFFCURVE",
"901 475 OFFCURVE",
"925 481 CURVE",
"942 517 OFFCURVE",
"928 600 OFFCURVE",
"932 636 CURVE",
"888 666 OFFCURVE",
"822 648 OFFCURVE",
"762 647 CURVE SMOOTH",
"695 646 OFFCURVE",
"581 648 OFFCURVE",
"506 651 CURVE SMOOTH",
"484 652 OFFCURVE",
"483 627 OFFCURVE",
"479 609 CURVE",
"496 586 OFFCURVE",
"523 597 OFFCURVE",
"552 590 CURVE",
"551 550 OFFCURVE",
"550 504 OFFCURVE",
"551 454 CURVE SMOOTH",
"552 331 OFFCURVE",
"557 185 OFFCURVE",
"543 63 CURVE",
"530 59 OFFCURVE",
"507 65 OFFCURVE",
"495 57 CURVE",
"495 45 OFFCURVE",
"468 24 OFFCURVE",
"498 4 CURVE",
"631 18 OFFCURVE",
"783 4 OFFCURVE",
"925 15 CURVE",
"932 22 LINE"
);
},
{
closed = 1;
nodes = (
"471 543 OFFCURVE",
"439 500 OFFCURVE",
"406 455 CURVE SMOOTH",
"351 379 OFFCURVE",
"296 300 OFFCURVE",
"244 231 CURVE SMOOTH",
"212 189 OFFCURVE",
"171 131 OFFCURVE",
"145 105 CURVE SMOOTH",
"123 83 OFFCURVE",
"92 75 OFFCURVE",
"60 78 CURVE",
"46 70 OFFCURVE",
"36 53 OFFCURVE",
"29 33 CURVE",
"37 24 OFFCURVE",
"34 14 OFFCURVE",
"39 5 CURVE",
"98 23 OFFCURVE",
"177 -2 OFFCURVE",
"252 12 CURVE",
"270 44 OFFCURVE",
"259 56 OFFCURVE",
"241 61 CURVE SMOOTH",
"220 67 OFFCURVE",
"194 66 OFFCURVE",
"193 81 CURVE",
"220 115 OFFCURVE",
"285 206 OFFCURVE",
"307 230 CURVE",
"372 234 OFFCURVE",
"465 238 OFFCURVE",
"556 235 CURVE",
"555 294 LINE",
"491 288 OFFCURVE",
"381 290 OFFCURVE",
"349 287 CURVE",
"365 311 OFFCURVE",
"420 387 OFFCURVE",
"468 454 CURVE SMOOTH",
"568 595 LINE",
"533 630 LINE"
);
}
);
vertWidth = 1000;
width = 1050;
}
);
note = cid00139;
unicode = 00C6;
},
{
glyphname = B;
lastChange = "2020-12-04 07:33:56 +0000";
layers = (
{
hints = (
{
horizontal = 1;
place = "{13, 40}";
type = Stem;
},
{
horizontal = 1;
place = "{327, 44}";
type = Stem;
},
{
horizontal = 1;
place = "{600, 52}";
type = Stem;
},
{
place = "{172, 78}";
type = Stem;
},
{
place = "{508, 93}";
type = Stem;
},
{
place = "{487, 91}";
type = Stem;
},
{
horizontal = 1;
place = "{609, 48}";
type = Stem;
}
);
layerId = "96B4F23F-F25B-4934-A27A-69E4A96ADD36";
paths = (
{
closed = 1;
nodes = (
"563 300 OFFCURVE",
"513 335 OFFCURVE",
"450 359 CURVE",
"491 362 OFFCURVE",
"527 388 OFFCURVE",
"551 424 CURVE SMOOTH",
"557 433 OFFCURVE",
"562 443 OFFCURVE",
"566 453 CURVE SMOOTH",
"582 492 OFFCURVE",
"583 538 OFFCURVE",
"560 577 CURVE SMOOTH",
"541 610 OFFCURVE",
"474 645 OFFCURVE",
"421 652 CURVE SMOOTH",
"323 665 OFFCURVE",
"198 651 OFFCURVE",
"104 648 CURVE",
"86 641 OFFCURVE",
"96 617 OFFCURVE",
"100 605 CURVE",
"117 598 OFFCURVE",
"153 618 OFFCURVE",
"164 605 CURVE",
"168 558 OFFCURVE",
"170 507 OFFCURVE",
"172 454 CURVE SMOOTH",
"176 320 OFFCURVE",
"174 175 OFFCURVE",
"168 53 CURVE",
"143 55 OFFCURVE",
"124 51 OFFCURVE",
"108 45 CURVE",
"107 29 OFFCURVE",
"85 30 OFFCURVE",
"97 6 CURVE",
"212 0 OFFCURVE",
"309 20 OFFCURVE",
"425 10 CURVE",
"464 29 OFFCURVE",
"505 31 OFFCURVE",
"533 50 CURVE SMOOTH",
"588 88 OFFCURVE",
"615 172 OFFCURVE",
"595 245 CURVE"
);
},
{
closed = 1;
nodes = (
"474 451 OFFCURVE",
"473 447 OFFCURVE",
"471 444 CURVE SMOOTH",
"452 406 OFFCURVE",
"419 377 OFFCURVE",
"381 371 CURVE SMOOTH",
"335 364 OFFCURVE",
"279 372 OFFCURVE",
"247 367 CURVE",
"247 394 OFFCURVE",
"249 424 OFFCURVE",
"250 454 CURVE SMOOTH",
"252 504 OFFCURVE",
"254 556 OFFCURVE",
"247 600 CURVE",
"290 597 OFFCURVE",
"337 606 OFFCURVE",
"379 605 CURVE SMOOTH",
"419 604 OFFCURVE",
"453 595 OFFCURVE",
"472 565 CURVE SMOOTH",
"492 532 OFFCURVE",
"490 491 OFFCURVE",
"475 454 CURVE SMOOTH"
);
},
{
closed = 1;
nodes = (
"494 103 OFFCURVE",
"459 79 OFFCURVE",
"413 66 CURVE SMOOTH",
"365 53 OFFCURVE",
"305 52 OFFCURVE",
"247 53 CURVE",
"246 127 OFFCURVE",
"244 251 OFFCURVE",
"250 327 CURVE",
"337 325 OFFCURVE",
"402 331 OFFCURVE",
"466 299 CURVE SMOOTH",
"510 277 OFFCURVE",
"511 206 OFFCURVE",
"508 148 CURVE"
);
}
);
vertWidth = 1000;
width = 700;
}
);
note = cid00035;
unicode = 0042;
},
{
glyphname = C;
lastChange = "2020-12-04 07:33:56 +0000";
layers = (
{
hints = (
{
horizontal = 1;
place = "{-14, 60}";
type = Stem;
},
{
horizontal = 1;
place = "{613, 58}";
type = Stem;
},
{
place = "{99, 84}";
type = Stem;
},
{
place = "{572, 44}";
type = Stem;
},
{
horizontal = 1;
place = "{613, 9}";
type = Stem;
}
);
layerId = "96B4F23F-F25B-4934-A27A-69E4A96ADD36";
paths = (
{
closed = 1;
nodes = (
"607 231 OFFCURVE",
"591 166 OFFCURVE",
"576 137 CURVE",
"537 92 OFFCURVE",
"473 41 OFFCURVE",
"393 46 CURVE SMOOTH",
"357 48 OFFCURVE",
"327 70 OFFCURVE",
"293 79 CURVE",
"281 104 OFFCURVE",
"258 119 OFFCURVE",
"241 145 CURVE SMOOTH",
"189 224 OFFCURVE",
"167 355 OFFCURVE",
"194 454 CURVE SMOOTH",
"198 469 OFFCURVE",
"203 483 OFFCURVE",
"209 496 CURVE SMOOTH",
"236 552 OFFCURVE",
"302 594 OFFCURVE",
"373 608 CURVE SMOOTH",
"447 623 OFFCURVE",
"526 607 OFFCURVE",
"572 548 CURVE",
"578 518 OFFCURVE",
"571 473 OFFCURVE",
"587 453 CURVE SMOOTH",
"592 447 OFFCURVE",
"599 444 OFFCURVE",
"609 443 CURVE",
"612 446 OFFCURVE",
"614 449 OFFCURVE",
"616 453 CURVE SMOOTH",
"630 481 OFFCURVE",
"614 521 OFFCURVE",
"616 556 CURVE SMOOTH",
"618 591 OFFCURVE",
"630 625 OFFCURVE",
"620 652 CURVE",
"591 654 OFFCURVE",
"594 624 OFFCURVE",
"569 622 CURVE",
"509 655 OFFCURVE",
"425 684 OFFCURVE",
"335 666 CURVE SMOOTH",
"272 654 OFFCURVE",
"190 595 OFFCURVE",
"156 540 CURVE SMOOTH",
"141 515 OFFCURVE",
"127 487 OFFCURVE",
"117 454 CURVE SMOOTH",
"108 424 OFFCURVE",
"101 389 OFFCURVE",
"99 349 CURVE SMOOTH",
"92 242 OFFCURVE",
"131 128 OFFCURVE",
"180 79 CURVE SMOOTH",
"192 67 OFFCURVE",
"217 55 OFFCURVE",
"237 39 CURVE SMOOTH",
"274 9 OFFCURVE",
"308 -14 OFFCURVE",
"364 -14 CURVE SMOOTH",
"406 -14 OFFCURVE",
"466 -5 OFFCURVE",
"503 6 CURVE SMOOTH",
"539 17 OFFCURVE",
"584 55 OFFCURVE",
"609 87 CURVE SMOOTH",
"632 116 OFFCURVE",
"654 163 OFFCURVE",
"653 202 CURVE"
);
}
);
vertWidth = 1000;
width = 730;
}
);
note = cid00036;
unicode = 0043;
},
{
glyphname = D;
lastChange = "2020-12-04 07:33:56 +0000";
layers = (
{
hints = (
{
horizontal = 1;
place = "{-12, 21}";
target = up;
type = BottomGhost;
},
{
horizontal = 1;
place = "{609, 50}";
type = Stem;
},
{
place = "{178, 84}";
type = Stem;
},
{
place = "{601, 93}";
type = Stem;
}
);
layerId = "96B4F23F-F25B-4934-A27A-69E4A96ADD36";
paths = (
{
closed = 1;
nodes = (
"700 341 OFFCURVE",
"693 401 OFFCURVE",
"678 453 CURVE SMOOTH",
"663 503 OFFCURVE",
"641 546 OFFCURVE",
"616 579 CURVE SMOOTH",
"554 661 OFFCURVE",
"320 666 OFFCURVE",
"171 659 CURVE SMOOTH",
"135 657 OFFCURVE",
"100 648 OFFCURVE",
"98 610 CURVE",
"120 597 OFFCURVE",
"154 612 OFFCURVE",
"180 599 CURVE",
"179 552 OFFCURVE",
"178 503 OFFCURVE",
"178 454 CURVE SMOOTH",
"178 309 OFFCURVE",
"184 160 OFFCURVE",
"180 45 CURVE",
"159 38 OFFCURVE",
"148 47 OFFCURVE",
"128 41 CURVE",
"116 27 OFFCURVE",
"106 10 OFFCURVE",
"103 -12 CURVE",
"220 23 OFFCURVE",
"394 -15 OFFCURVE",
"520 29 CURVE",
"604 69 OFFCURVE",
"682 155 OFFCURVE",
"694 275 CURVE SMOOTH"
);
},
{
closed = 1;
nodes = (
"612 308 OFFCURVE",
"590 142 OFFCURVE",
"528 93 CURVE SMOOTH",
"509 78 OFFCURVE",
"467 63 OFFCURVE",
"443 57 CURVE SMOOTH",
"391 44 OFFCURVE",
"327 51 OFFCURVE",
"253 48 CURVE",
"259 63 OFFCURVE",
"261 82 OFFCURVE",
"261 97 CURVE SMOOTH",
"264 207 OFFCURVE",
"263 336 OFFCURVE",
"262 454 CURVE SMOOTH",
"262 507 OFFCURVE",
"261 557 OFFCURVE",
"261 602 CURVE",
"425 627 OFFCURVE",
"557 588 OFFCURVE",
"591 453 CURVE SMOOTH",
"593 444 OFFCURVE",
"596 434 OFFCURVE",
"597 424 CURVE SMOOTH"
);
}
);
vertWidth = 1000;
width = 810;
}
);
note = cid00037;
unicode = 0044;
},
{
glyphname = Eth;
lastChange = "2020-12-04 07:33:56 +0000";
layers = (
{
components = (
{
name = D;
transform = "{1, 0, 0, 1, 7, 0}";
}
);
hints = (
{
horizontal = 1;
place = "{1, 74}";
type = Stem;
},
{
horizontal = 1;
place = "{352, 52}";
type = Stem;
},
{
horizontal = 1;
place = "{648, 74}";
type = Stem;
},
{
place = "{150, 73}";
type = Stem;
},
{
place = "{626, 75}";
type = Stem;
},
{
place = "{45, 178}";
type = Stem;
},
{
horizontal = 1;
place = "{323, 56}";
type = Stem;
},
{
place = "{59, 463}";
type = Stem;
}
);
layerId = "96B4F23F-F25B-4934-A27A-69E4A96ADD36";
paths = (
{
closed = 1;
nodes = (
"450 354 OFFCURVE",
"416 375 OFFCURVE",
"403 378 CURVE SMOOTH",
"370 385 OFFCURVE",
"332 376 OFFCURVE",
"299 377 CURVE SMOOTH",
"208 380 OFFCURVE",
"161 385 OFFCURVE",
"71 379 CURVE SMOOTH",
"56 378 OFFCURVE",
"49 346 OFFCURVE",
"60 327 CURVE",
"106 317 OFFCURVE",
"165 324 OFFCURVE",
"215 323 CURVE SMOOTH",
"277 322 OFFCURVE",
"342 312 OFFCURVE",
"434 323 CURVE"
);
}
);
vertWidth = 1000;
width = 817;
}
);
note = cid00179;
unicode = 00D0;
},
{
glyphname = E;
lastChange = "2020-12-04 07:33:56 +0000";
layers = (
{
hints = (
{
horizontal = 1;
place = "{4, 58}";
type = Stem;
},
{
horizontal = 1;
place = "{314, 54}";
type = Stem;
},
{
horizontal = 1;
place = "{431, 10}";
type = Stem;
},
{
horizontal = 1;
place = "{593, 54}";
type = Stem;
},
{
place = "{168, 78}";
type = Stem;
},
{
place = "{510.91, 51.09}";
type = Stem;
},
{
place = "{491, 57.5}";
type = Stem;
},
{
horizontal = 1;
place = "{636, 17}";
type = Stem;
}
);
layerId = "96B4F23F-F25B-4934-A27A-69E4A96ADD36";
paths = (
{
closed = 1;
nodes = (
"554 67 OFFCURVE",
"576 143 OFFCURVE",
"549 197 CURVE",
"508 180 OFFCURVE",
"517 114 OFFCURVE",
"495 77 CURVE",
"423 58 OFFCURVE",
"320 61 OFFCURVE",
"246 65 CURVE",
"251 149 OFFCURVE",
"249 224 OFFCURVE",
"246 298 CURVE",
"295 321 OFFCURVE",
"367 315 OFFCURVE",
"429 306 CURVE",
"443 280 OFFCURVE",
"435 233 OFFCURVE",
"479 237 CURVE",
"489 287 OFFCURVE",
"477 378 OFFCURVE",
"491 431 CURVE",
"477 434 OFFCURVE",
"471 446 OFFCURVE",
"456 438 CURVE",
"439 418 OFFCURVE",
"439 379 OFFCURVE",
"413 368 CURVE",
"359 365 OFFCURVE",
"303 365 OFFCURVE",
"251 360 CURVE",
"248 389 OFFCURVE",
"246 422 OFFCURVE",
"246 454 CURVE SMOOTH",
"246 510 OFFCURVE",
"248 564 OFFCURVE",
"246 590 CURVE",
"304 597 OFFCURVE",
"425 593 OFFCURVE",
"491 593 CURVE",
"503 575 OFFCURVE",
"501 536 OFFCURVE",
"507 509 CURVE SMOOTH",
"511 489 OFFCURVE",
"521 475 OFFCURVE",
"545 481 CURVE",
"562 517 OFFCURVE",
"548 600 OFFCURVE",
"552 636 CURVE",
"508 666 OFFCURVE",
"442 648 OFFCURVE",
"382 647 CURVE SMOOTH",
"315 646 OFFCURVE",
"201 648 OFFCURVE",
"126 651 CURVE SMOOTH",
"104 652 OFFCURVE",
"103 627 OFFCURVE",
"99 609 CURVE",
"116 586 OFFCURVE",
"143 597 OFFCURVE",
"172 590 CURVE",
"171 550 OFFCURVE",
"170 504 OFFCURVE",
"171 454 CURVE SMOOTH",
"172 331 OFFCURVE",
"177 185 OFFCURVE",
"168 61 CURVE",
"150 59 OFFCURVE",
"127 65 OFFCURVE",
"115 57 CURVE",
"115 45 OFFCURVE",
"88 24 OFFCURVE",
"118 4 CURVE",
"251 18 OFFCURVE",
"403 4 OFFCURVE",
"545 15 CURVE",
"552 22 LINE"
);
}
);
vertWidth = 1000;
width = 670;
}
);
note = cid00038;
unicode = 0045;
},
{
glyphname = F;
lastChange = "2020-12-04 07:33:56 +0000";
layers = (
{
hints = (
{
horizontal = 1;
place = "{-3, 21}";
target = up;
type = BottomGhost;
},
{
horizontal = 1;
place = "{302, 51}";
type = Stem;
},
{
horizontal = 1;
place = "{430, 10}";
type = Stem;
},
{
horizontal = 1;
place = "{603, 48}";
type = Stem;
},
{
place = "{179, 75}";
type = Stem;
},
{
horizontal = 1;
place = "{-6, 24}";
type = Stem;
},
{
horizontal = 1;
place = "{-7, 63}";
type = Stem;
},
{
place = "{424, 78}";
type = Stem;
}
);
layerId = "96B4F23F-F25B-4934-A27A-69E4A96ADD36";
paths = (
{
closed = 1;
nodes = (
"523 669 OFFCURVE",
"456 654 OFFCURVE",
"393 651 CURVE SMOOTH",
"286 646 OFFCURVE",
"164 665 OFFCURVE",
"91 640 CURVE",
"83 622 OFFCURVE",
"104 619 OFFCURVE",
"91 608 CURVE",
"97 586 OFFCURVE",
"108 608 OFFCURVE",
"120 608 CURVE",
"139 595 OFFCURVE",
"159 600 OFFCURVE",
"174 600 CURVE",
"177 551 OFFCURVE",
"179 502 OFFCURVE",
"180 454 CURVE SMOOTH",
"182 324 OFFCURVE",
"178 196 OFFCURVE",
"179 65 CURVE",
"153 51 OFFCURVE",
"110 55 OFFCURVE",
"107 18 CURVE",
"111 13 OFFCURVE",
"118 10 OFFCURVE",
"115 -3 CURVE",
"134 -12 OFFCURVE",
"150 1 OFFCURVE",
"171 2 CURVE SMOOTH",
"203 4 OFFCURVE",
"243 -7 OFFCURVE",
"275 -7 CURVE SMOOTH",
"303 -7 OFFCURVE",
"324 0 OFFCURVE",
"329 29 CURVE",
"310 45 OFFCURVE",
"273 55 OFFCURVE",
"250 56 CURVE",
"263 125 OFFCURVE",
"250 210 OFFCURVE",
"254 294 CURVE",
"312 302 OFFCURVE",
"362 301 OFFCURVE",
"440 302 CURVE",
"456 285 OFFCURVE",
"454 250 OFFCURVE",
"468 231 CURVE",
"503 239 OFFCURVE",
"507 271 OFFCURVE",
"506 310 CURVE SMOOTH",
"505 351 OFFCURVE",
"496 399 OFFCURVE",
"508 430 CURVE",
"499 437 OFFCURVE",
"476 444 OFFCURVE",
"465 437 CURVE",
"450 412 OFFCURVE",
"443 379 OFFCURVE",
"424 358 CURVE",
"370 358 OFFCURVE",
"306 347 OFFCURVE",
"254 358 CURVE",
"253 389 OFFCURVE",
"253 422 OFFCURVE",
"253 454 CURVE SMOOTH",
"253 506 OFFCURVE",
"254 557 OFFCURVE",
"254 603 CURVE",
"333 604 OFFCURVE",
"391 603 OFFCURVE",
"472 603 CURVE",
"505 595 OFFCURVE",
"503 541 OFFCURVE",
"513 507 CURVE SMOOTH",
"519 486 OFFCURVE",
"531 473 OFFCURVE",
"559 485 CURVE",
"561 539 OFFCURVE",
"547 590 OFFCURVE",
"563 644 CURVE"
);
}
);
vertWidth = 1000;
width = 650;
}
);
note = cid00039;
unicode = 0046;
},
{
glyphname = G;
lastChange = "2020-12-04 07:33:56 +0000";
layers = (
{
hints = (
{
horizontal = 1;
place = "{-9, 49}";
type = Stem;
},
{
horizontal = 1;
place = "{264, 55}";
type = Stem;
},
{
horizontal = 1;
place = "{628, 43}";
type = Stem;
},
{
place = "{103, 87}";
type = Stem;
},
{
horizontal = 1;
place = "{628, 21}";
type = Stem;
},
{
horizontal = 1;
place = "{25, 15}";
type = Stem;
}
);
layerId = "96B4F23F-F25B-4934-A27A-69E4A96ADD36";
paths = (
{
closed = 1;
nodes = (
"706 332 OFFCURVE",
"636 318 OFFCURVE",
"582 315 CURVE SMOOTH",
"504 311 OFFCURVE",
"456 334 OFFCURVE",
"464 269 CURVE",
"478 256 OFFCURVE",
"527 281 OFFCURVE",
"549 260 CURVE",
"550 203 OFFCURVE",
"542 136 OFFCURVE",
"549 85 CURVE",
"505 34 OFFCURVE",
"384 28 OFFCURVE",
"309 57 CURVE",
"235 99 OFFCURVE",
"191 226 OFFCURVE",
"190 349 CURVE SMOOTH",
"190 385 OFFCURVE",
"193 421 OFFCURVE",
"200 454 CURVE SMOOTH",
"213 513 OFFCURVE",
"239 563 OFFCURVE",
"281 592 CURVE SMOOTH",
"312 614 OFFCURVE",
"363 627 OFFCURVE",
"413 628 CURVE SMOOTH",
"484 630 OFFCURVE",
"554 609 OFFCURVE",
"572 558 CURVE SMOOTH",
"584 525 OFFCURVE",
"564 486 OFFCURVE",
"599 469 CURVE",
"622 483 OFFCURVE",
"626 510 OFFCURVE",
"625 541 CURVE SMOOTH",
"624 580 OFFCURVE",
"613 625 OFFCURVE",
"623 658 CURVE",
"603 667 OFFCURVE",
"589 644 OFFCURVE",
"568 641 CURVE SMOOTH",
"551 639 OFFCURVE",
"532 657 OFFCURVE",
"516 644 CURVE",
"478 664 OFFCURVE",
"434 672 OFFCURVE",
"391 671 CURVE SMOOTH",
"336 670 OFFCURVE",
"284 655 OFFCURVE",
"246 634 CURVE SMOOTH",
"187 601 OFFCURVE",
"145 533 OFFCURVE",
"122 454 CURVE SMOOTH",
"110 411 OFFCURVE",
"103 364 OFFCURVE",
"103 318 CURVE SMOOTH",
"103 242 OFFCURVE",
"122 168 OFFCURVE",
"162 113 CURVE SMOOTH",
"170 102 OFFCURVE",
"187 95 OFFCURVE",
"201 80 CURVE SMOOTH",
"213 68 OFFCURVE",
"220 48 OFFCURVE",
"232 39 CURVE SMOOTH",
"322 -31 OFFCURVE",
"484 -17 OFFCURVE",
"565 36 CURVE",
"582 21 OFFCURVE",
"599 23 OFFCURVE",
"617 35 CURVE",
"641 100 OFFCURVE",
"613 208 OFFCURVE",
"638 264 CURVE",
"665 269 OFFCURVE",
"708 258 OFFCURVE",
"715 283 CURVE"
);
}
);
vertWidth = 1000;
width = 767;
}
);
note = cid00040;
unicode = 0047;
},
{
glyphname = H;
lastChange = "2020-12-04 07:33:56 +0000";
layers = (
{
hints = (
{
horizontal = 1;
place = "{0, 21}";
target = up;
type = BottomGhost;
},
{
horizontal = 1;
place = "{323, 49}";
type = Stem;
},
{
horizontal = 1;
place = "{601, 58}";
type = Stem;
},
{
place = "{173, 70}";
type = Stem;
},
{
place = "{484, 15}";
type = Stem;
},
{
place = "{571, 65}";
type = Stem;
},
{
horizontal = 1;
place = "{659, -20}";
target = down;
type = TopGhost;
},
{
horizontal = 1;
place = "{609, 45}";
type = Stem;
},
{
horizontal = 1;
place = "{10, 55.85}";
type = Stem;
},
{
horizontal = 1;
place = "{0, 71}";
type = Stem;
}
);
layerId = "96B4F23F-F25B-4934-A27A-69E4A96ADD36";
paths = (
{
closed = 1;
nodes = (
"691 58 OFFCURVE",
"656 55 OFFCURVE",
"637 76 CURVE",
"647 176 OFFCURVE",
"638 322 OFFCURVE",
"636 453 CURVE SMOOTH",
"635 511 OFFCURVE",
"636 567 OFFCURVE",
"640 614 CURVE",
"675 613 OFFCURVE",
"705 615 OFFCURVE",
"713 641 CURVE",
"663 674 OFFCURVE",
"581 656 OFFCURVE",
"499 659 CURVE",
"494 643 OFFCURVE",
"477 632 OFFCURVE",
"488 612 CURVE",
"510 604 OFFCURVE",
"539 601 OFFCURVE",
"558 601 CURVE",
"556 554 OFFCURVE",
"565 501 OFFCURVE",
"568 453 CURVE SMOOTH",
"570 425 OFFCURVE",
"570 400 OFFCURVE",
"565 378 CURVE",
"466 377 OFFCURVE",
"347 366 OFFCURVE",
"241 376 CURVE",
"242 399 OFFCURVE",
"241 426 OFFCURVE",
"240 454 CURVE SMOOTH",
"239 513 OFFCURVE",
"238 575 OFFCURVE",
"247 609 CURVE",
"279 607 OFFCURVE",
"307 609 OFFCURVE",
"321 625 CURVE",
"305 653 OFFCURVE",
"272 659 OFFCURVE",
"233 658 CURVE SMOOTH",
"192 657 OFFCURVE",
"144 650 OFFCURVE",
"102 654 CURVE",
"103 635 OFFCURVE",
"84 636 OFFCURVE",
"87 615 CURVE",
"112 597 OFFCURVE",
"143 614 OFFCURVE",
"166 601 CURVE",
"168 558 OFFCURVE",
"170 508 OFFCURVE",
"171 454 CURVE SMOOTH",
"173 339 OFFCURVE",
"173 205 OFFCURVE",
"173 76 CURVE",
"152 60 OFFCURVE",
"120 69 OFFCURVE",
"110 48 CURVE SMOOTH",
"102 31 OFFCURVE",
"121 6 OFFCURVE",
"143 2 CURVE SMOOTH",
"154 0 OFFCURVE",
"170 9 OFFCURVE",
"190 10 CURVE SMOOTH",
"219 11 OFFCURVE",
"247 6 OFFCURVE",
"270 5 CURVE SMOOTH",
"293 4 OFFCURVE",
"309 8 OFFCURVE",
"314 30 CURVE",
"299 54 OFFCURVE",
"259 54 OFFCURVE",
"243 77 CURVE",
"246 169 OFFCURVE",
"240 230 OFFCURVE",
"241 318 CURVE",
"338 319 OFFCURVE",
"456 330 OFFCURVE",
"569 316 CURVE",
"567 253 OFFCURVE",
"572 156 OFFCURVE",
"571 71 CURVE",
"553 64 OFFCURVE",
"528 63 OFFCURVE",
"511 55 CURVE",
"489 16 OFFCURVE",
"531 -3 OFFCURVE",
"548 0 CURVE",
"561 14 OFFCURVE",
"615 4 OFFCURVE",
"659 5 CURVE SMOOTH",
"689 6 OFFCURVE",
"713 13 OFFCURVE",
"718 37 CURVE"
);
}
);
vertWidth = 1000;
width = 800;
}
);
note = cid00041;
unicode = 0048;
},
{
glyphname = I;
lastChange = "2020-12-04 07:33:56 +0000";
layers = (
{
hints = (
{
horizontal = 1;
place = "{609, 49}";
type = Stem;
},
{
place = "{199, 73}";
type = Stem;
}
);
layerId = "96B4F23F-F25B-4934-A27A-69E4A96ADD36";
paths = (
{
closed = 1;
nodes = (
"345 652 OFFCURVE",
"305 658 OFFCURVE",
"260 658 CURVE SMOOTH",
"215 658 OFFCURVE",
"165 652 OFFCURVE",
"124 652 CURVE",
"124 636 OFFCURVE",
"107 636 OFFCURVE",
"111 617 CURVE",
"133 600 OFFCURVE",
"169 611 OFFCURVE",
"193 604 CURVE",
"196 556 OFFCURVE",
"198 506 OFFCURVE",
"199 454 CURVE SMOOTH",
"202 322 OFFCURVE",
"201 182 OFFCURVE",
"202 62 CURVE",
"185 55 OFFCURVE",
"157 59 OFFCURVE",
"135 58 CURVE",
"121 42 OFFCURVE",
"95 10 OFFCURVE",
"116 -17 CURVE",
"142 -23 OFFCURVE",
"137 5 OFFCURVE",
"155 7 CURVE SMOOTH",
"223 16 OFFCURVE",
"308 -8 OFFCURVE",
"361 23 CURVE",
"345 51 OFFCURVE",
"303 64 OFFCURVE",
"272 65 CURVE",
"272 194 OFFCURVE",
"272 326 OFFCURVE",
"274 454 CURVE SMOOTH",
"275 488 OFFCURVE",
"275 521 OFFCURVE",
"276 554 CURVE",
"278 564 OFFCURVE",
"280 572 OFFCURVE",
"286 577 CURVE",
"287 589 OFFCURVE",
"272 604 OFFCURVE",
"279 609 CURVE",
"313 610 OFFCURVE",
"356 601 OFFCURVE",
"365 627 CURVE"
);
}
);
vertWidth = 1000;
width = 470;
}
);
note = cid00042;
unicode = 0049;
},
{
glyphname = J;
lastChange = "2020-12-04 07:33:56 +0000";
layers = (
{
hints = (
{
horizontal = 1;
place = "{-8, 48}";
type = Stem;
},
{
horizontal = 1;
place = "{608, 52}";
type = Stem;
},
{
place = "{288, 70}";
type = Stem;
}
);
layerId = "96B4F23F-F25B-4934-A27A-69E4A96ADD36";
paths = (
{
closed = 1;
nodes = (
"414 656 OFFCURVE",
"376 661 OFFCURVE",
"333 660 CURVE SMOOTH",
"288 659 OFFCURVE",
"238 652 OFFCURVE",
"199 654 CURVE",
"202 634 OFFCURVE",
"181 631 OFFCURVE",
"199 611 CURVE",
"219 599 OFFCURVE",
"242 611 OFFCURVE",
"273 608 CURVE",
"271 567 OFFCURVE",
"274 513 OFFCURVE",
"277 454 CURVE SMOOTH",
"284 338 OFFCURVE",
"294 204 OFFCURVE",
"283 119 CURVE SMOOTH",
"276 64 OFFCURVE",
"206 15 OFFCURVE",
"156 53 CURVE",
"169 117 OFFCURVE",
"126 169 OFFCURVE",
"59 149 CURVE",
"19 80 OFFCURVE",
"58 30 OFFCURVE",
"117 6 CURVE SMOOTH",
"172 -16 OFFCURVE",
"244 -14 OFFCURVE",
"284 17 CURVE",
"292 15 OFFCURVE",
"306 39 OFFCURVE",
"322 41 CURVE",
"357 105 OFFCURVE",
"360 198 OFFCURVE",
"358 295 CURVE SMOOTH",
"357 348 OFFCURVE",
"353 402 OFFCURVE",
"352 454 CURVE SMOOTH",
"350 508 OFFCURVE",
"351 560 OFFCURVE",
"358 606 CURVE",
"387 612 OFFCURVE",
"429 608 OFFCURVE",
"437 635 CURVE"
);
}
);
vertWidth = 1000;
width = 530;
}
);
note = cid00043;
unicode = 004A;
},
{
glyphname = K;
lastChange = "2020-12-04 07:33:56 +0000";
layers = (
{
hints = (
{
horizontal = 1;
place = "{0, 21}";
target = up;
type = BottomGhost;
},
{
horizontal = 1;
place = "{604, 53}";
type = Stem;
},
{
place = "{182, 70}";
type = Stem;
},
{
horizontal = 1;
place = "{600, 54}";
type = Stem;
},
{
horizontal = 1;
place = "{12, 42}";
type = Stem;
}
);
layerId = "96B4F23F-F25B-4934-A27A-69E4A96ADD36";
paths = (
{
closed = 1;
nodes = (
"674 68 OFFCURVE",
"615 63 OFFCURVE",
"579 82 CURVE",
"522 190 OFFCURVE",
"449 279 OFFCURVE",
"389 384 CURVE",
"407 409 OFFCURVE",
"426 432 OFFCURVE",
"447 454 CURVE SMOOTH",
"493 504 OFFCURVE",
"544 549 OFFCURVE",
"588 600 CURVE",
"607 615 OFFCURVE",
"643 611 OFFCURVE",
"665 623 CURVE",
"647 648 OFFCURVE",
"616 654 OFFCURVE",
"580 654 CURVE SMOOTH",
"540 655 OFFCURVE",
"495 648 OFFCURVE",
"455 650 CURVE",
"454 638 OFFCURVE",
"450 628 OFFCURVE",
"446 619 CURVE",
"455 604 OFFCURVE",
"486 608 OFFCURVE",
"502 600 CURVE",
"463 549 OFFCURVE",
"421 501 OFFCURVE",
"377 454 CURVE SMOOTH",
"337 412 OFFCURVE",
"296 371 OFFCURVE",
"252 334 CURVE",
"254 378 OFFCURVE",
"254 417 OFFCURVE",
"254 454 CURVE SMOOTH",
"255 507 OFFCURVE",
"257 555 OFFCURVE",
"271 610 CURVE",
"299 610 OFFCURVE",
"325 611 OFFCURVE",
"338 626 CURVE",
"316 652 OFFCURVE",
"280 657 OFFCURVE",
"238 657 CURVE SMOOTH",
"202 657 OFFCURVE",
"162 654 OFFCURVE",
"124 657 CURVE",
"125 637 OFFCURVE",
"96 640 OFFCURVE",
"111 610 CURVE",
"129 593 OFFCURVE",
"149 621 OFFCURVE",
"174 607 CURVE",
"191 567 OFFCURVE",
"179 507 OFFCURVE",
"181 454 CURVE SMOOTH",
"181 449 OFFCURVE",
"182 445 OFFCURVE",
"182 440 CURVE SMOOTH",
"192 324 OFFCURVE",
"176 197 OFFCURVE",
"186 82 CURVE",
"172 55 OFFCURVE",
"146 55 OFFCURVE",
"116 54 CURVE",
"119 34 OFFCURVE",
"94 34 OFFCURVE",
"108 12 CURVE",
"146 -6 OFFCURVE",
"193 14 OFFCURVE",
"248 12 CURVE SMOOTH",
"293 11 OFFCURVE",
"312 7 OFFCURVE",
"326 38 CURVE",
"294 42 OFFCURVE",
"277 62 OFFCURVE",
"252 74 CURVE",
"254 144 OFFCURVE",
"256 200 OFFCURVE",
"252 269 CURVE",
"292 277 OFFCURVE",
"296 320 OFFCURVE",
"334 330 CURVE",
"384 257 OFFCURVE",
"447 170 OFFCURVE",
"497 92 CURVE SMOOTH",
"512 68 OFFCURVE",
"519 31 OFFCURVE",
"532 19 CURVE SMOOTH",
"559 -7 OFFCURVE",
"662 -9 OFFCURVE",
"688 27 CURVE"
);
}
);
vertWidth = 1000;
width = 730;
}
);
note = cid00044;
unicode = 004B;
},
{
glyphname = L;
lastChange = "2020-12-04 07:33:56 +0000";
layers = (
{
hints = (
{
horizontal = 1;
place = "{1, 50}";
type = Stem;
},
{
horizontal = 1;
place = "{607.88, 51.13}";
type = Stem;
},
{
place = "{194, 76}";
type = Stem;
},
{
place = "{565, 14}";
type = Stem;
},
{
horizontal = 1;
place = "{666, -20}";
target = down;
type = TopGhost;
},
{
horizontal = 1;
place = "{611, 44}";
type = Stem;
}
);
layerId = "96B4F23F-F25B-4934-A27A-69E4A96ADD36";
paths = (
{
closed = 1;
nodes = (
"534 195 OFFCURVE",
"525 164 OFFCURVE",
"517 133 CURVE SMOOTH",
"508 98 OFFCURVE",
"501 64 OFFCURVE",
"464 54 CURVE SMOOTH",
"431 45 OFFCURVE",
"394 58 OFFCURVE",
"359 57 CURVE SMOOTH",
"327 56 OFFCURVE",
"298 45 OFFCURVE",
"266 57 CURVE",
"273 196 OFFCURVE",
"270 333 OFFCURVE",
"270 454 CURVE SMOOTH",
"270 502 OFFCURVE",
"271 548 OFFCURVE",
"273 591 CURVE",
"295 625 OFFCURVE",
"332 596 OFFCURVE",
"352 618 CURVE",
"343 652 OFFCURVE",
"311 659 OFFCURVE",
"272 659 CURVE SMOOTH",
"221 659 OFFCURVE",
"159 647 OFFCURVE",
"118 666 CURVE",
"123 641 OFFCURVE",
"93 632 OFFCURVE",
"107 610 CURVE",
"111 609 OFFCURVE",
"111 606 OFFCURVE",
"113 603 CURVE",
"137 594 OFFCURVE",
"161 621 OFFCURVE",
"192 607 CURVE",
"192 560 OFFCURVE",
"193 508 OFFCURVE",
"194 454 CURVE SMOOTH",
"196 324 OFFCURVE",
"199 184 OFFCURVE",
"192 72 CURVE",
"156 63 OFFCURVE",
"99 48 OFFCURVE",
"118 7 CURVE",
"248 21 OFFCURVE",
"444 -12 OFFCURVE",
"559 7 CURVE",
"581 66 OFFCURVE",
"587 144 OFFCURVE",
"565 206 CURVE"
);
}
);
vertWidth = 1000;
width = 630;
}
);
note = cid00045;
unicode = 004C;
},
{
glyphname = Lslash;
lastChange = "2020-12-04 07:33:56 +0000";
layers = (
{
components = (
{
name = L;
transform = "{1, 0, 0, 1, 45, 0}";
}
);
hints = (
{
horizontal = 1;
place = "{1, 72}";
type = Stem;
},
{
place = "{163, 75}";
type = Stem;
}
);
layerId = "96B4F23F-F25B-4934-A27A-69E4A96ADD36";
paths = (
{
closed = 1;
nodes = (
"437 557 OFFCURVE",
"423 557 OFFCURVE",
"417 555 CURVE",
"373 501 OFFCURVE",
"334 469 OFFCURVE",
"292 424 CURVE SMOOTH",
"274 404 OFFCURVE",
"256 384 OFFCURVE",
"237 364 CURVE SMOOTH",
"212 337 OFFCURVE",
"186 312 OFFCURVE",
"166 290 CURVE SMOOTH",
"148 271 OFFCURVE",
"118 243 OFFCURVE",
"107 221 CURVE SMOOTH",
"99 205 OFFCURVE",
"103 192 OFFCURVE",
"123 185 CURVE",
"143 186 OFFCURVE",
"140 209 OFFCURVE",
"160 211 CURVE",
"163 221 OFFCURVE",
"170 224 OFFCURVE",
"173 234 CURVE",
"214 275 OFFCURVE",
"246 315 OFFCURVE",
"287 356 CURVE SMOOTH",
"306 375 OFFCURVE",
"333 395 OFFCURVE",
"338 409 CURVE",
"375 431 OFFCURVE",
"401 473 OFFCURVE",
"431 498 CURVE",
"438 520 OFFCURVE",
"451 525 OFFCURVE",
"447 548 CURVE"
);
}
);
vertWidth = 1000;
width = 675;
}
);
note = cid00141;
unicode = 0141;
},
{
glyphname = M;
lastChange = "2020-12-04 07:33:56 +0000";
layers = (
{
hints = (
{
horizontal = 1;
place = "{2, 55}";
type = Stem;
},
{
horizontal = 1;
place = "{606, 56}";
type = Stem;
},
{
place = "{92, 7}";
type = Stem;
},
{
place = "{175, 56}";
type = Stem;
},
{
place = "{697, 67}";
type = Stem;
},
{
horizontal = 1;
place = "{-1, 59}";
type = Stem;
},
{
horizontal = 1;
place = "{602, 57}";
type = Stem;
},
{
place = "{168, 48}";
type = Stem;
}
);
layerId = "96B4F23F-F25B-4934-A27A-69E4A96ADD36";
paths = (
{
closed = 1;
nodes = (
"824 58 OFFCURVE",
"782 53 OFFCURVE",
"766 75 CURVE",
"773 195 OFFCURVE",
"766 326 OFFCURVE",
"764 453 CURVE SMOOTH",
"763 503 OFFCURVE",
"763 553 OFFCURVE",
"765 601 CURVE",
"783 611 OFFCURVE",
"823 599 OFFCURVE",
"831 618 CURVE",
"825 668 OFFCURVE",
"716 668 OFFCURVE",
"667 653 CURVE",
"636 590 OFFCURVE",
"611 522 OFFCURVE",
"586 453 CURVE SMOOTH",
"551 354 OFFCURVE",
"517 254 OFFCURVE",
"473 164 CURVE",
"428 256 OFFCURVE",
"390 356 OFFCURVE",
"350 454 CURVE SMOOTH",
"329 505 OFFCURVE",
"308 556 OFFCURVE",
"286 605 CURVE SMOOTH",
"278 620 OFFCURVE",
"288 631 OFFCURVE",
"281 644 CURVE",
"233 676 OFFCURVE",
"165 647 OFFCURVE",
"99 648 CURVE",
"81 628 OFFCURVE",
"104 619 OFFCURVE",
"104 602 CURVE",
"127 599 OFFCURVE",
"146 600 OFFCURVE",
"161 598 CURVE",
"163 551 OFFCURVE",
"165 503 OFFCURVE",
"168 454 CURVE SMOOTH",
"175 322 OFFCURVE",
"181 187 OFFCURVE",
"167 73 CURVE",
"136 65 OFFCURVE",
"101 43 OFFCURVE",
"111 9 CURVE",
"160 1 OFFCURVE",
"256 -14 OFFCURVE",
"284 24 CURVE",
"274 44 OFFCURVE",
"248 45 OFFCURVE",
"231 58 CURVE",
"228 167 OFFCURVE",
"226 323 OFFCURVE",
"221 454 CURVE SMOOTH",
"220 480 LINE SMOOTH",
"219 515 OFFCURVE",
"216 577 OFFCURVE",
"216 577 CURVE",
"234 537 OFFCURVE",
"251 496 OFFCURVE",
"268 454 CURVE SMOOTH",
"326 311 OFFCURVE",
"380 163 OFFCURVE",
"444 26 CURVE",
"495 15 OFFCURVE",
"497 72 OFFCURVE",
"506 101 CURVE SMOOTH",
"516 133 OFFCURVE",
"531 172 OFFCURVE",
"542 200 CURVE SMOOTH",
"574 281 OFFCURVE",
"610 372 OFFCURVE",
"644 453 CURVE SMOOTH",
"654 477 OFFCURVE",
"664 500 OFFCURVE",
"674 522 CURVE",
"676 569 OFFCURVE",
"692 606 OFFCURVE",
"692 606 CURVE",
"692 555 OFFCURVE",
"692 504 OFFCURVE",
"693 453 CURVE SMOOTH",
"694 324 OFFCURVE",
"697 196 OFFCURVE",
"697 73 CURVE",
"682 64 OFFCURVE",
"660 57 OFFCURVE",
"646 57 CURVE",
"646 37 OFFCURVE",
"626 39 OFFCURVE",
"631 20 CURVE",
"673 -8 OFFCURVE",
"810 -4 OFFCURVE",
"841 37 CURVE"
);
}
);
vertWidth = 1000;
width = 920;
}
);
note = cid00046;
unicode = 004D;
},
{
glyphname = N;
lastChange = "2020-12-04 07:33:56 +0000";
layers = (
{
hints = (
{
horizontal = 1;
place = "{608, 54}";
type = Stem;
},
{
place = "{106, 12}";
type = Stem;
},
{
place = "{178, 44}";
type = Stem;
},
{
place = "{609, 48}";
type = Stem;
},
{
horizontal = 1;
place = "{602, 53}";
type = Stem;
}
);
layerId = "96B4F23F-F25B-4934-A27A-69E4A96ADD36";
paths = (
{
closed = 1;
nodes = (
"731 653 OFFCURVE",
"672 663 OFFCURVE",
"620 662 CURVE SMOOTH",
"574 661 OFFCURVE",
"534 651 OFFCURVE",
"536 629 CURVE SMOOTH",
"538 602 OFFCURVE",
"572 613 OFFCURVE",
"598 603 CURVE",
"603 553 OFFCURVE",
"606 502 OFFCURVE",
"607 453 CURVE SMOOTH",
"610 351 OFFCURVE",
"608 250 OFFCURVE",
"611 148 CURVE",
"540 248 OFFCURVE",
"467 351 OFFCURVE",
"395 454 CURVE SMOOTH",
"357 509 OFFCURVE",
"319 564 OFFCURVE",
"282 619 CURVE",
"282 630 OFFCURVE",
"299 625 OFFCURVE",
"298 638 CURVE",
"244 662 OFFCURVE",
"181 652 OFFCURVE",
"118 655 CURVE",
"99 634 OFFCURVE",
"104 617 OFFCURVE",
"118 608 CURVE SMOOTH",
"130 601 OFFCURVE",
"149 599 OFFCURVE",
"165 605 CURVE",
"166 554 OFFCURVE",
"168 504 OFFCURVE",
"170 454 CURVE SMOOTH",
"176 317 OFFCURVE",
"185 185 OFFCURVE",
"171 68 CURVE",
"152 63 OFFCURVE",
"133 58 OFFCURVE",
"116 52 CURVE",
"116 36 OFFCURVE",
"96 29 OFFCURVE",
"110 12 CURVE",
"151 -12 OFFCURVE",
"210 21 OFFCURVE",
"261 2 CURVE",
"269 14 OFFCURVE",
"291 15 OFFCURVE",
"296 31 CURVE",
"282 51 OFFCURVE",
"240 52 OFFCURVE",
"230 80 CURVE SMOOTH",
"213 126 OFFCURVE",
"227 216 OFFCURVE",
"226 290 CURVE SMOOTH",
"225 354 OFFCURVE",
"223 405 OFFCURVE",
"223 454 CURVE SMOOTH",
"223 491 OFFCURVE",
"224 526 OFFCURVE",
"226 566 CURVE",
"252 533 OFFCURVE",
"279 495 OFFCURVE",
"305 454 CURVE SMOOTH",
"371 352 OFFCURVE",
"437 235 OFFCURVE",
"509 150 CURVE SMOOTH",
"548 105 OFFCURVE",
"573 53 OFFCURVE",
"605 15 CURVE SMOOTH",
"617 0 OFFCURVE",
"656 3 OFFCURVE",
"671 24 CURVE",
"653 145 OFFCURVE",
"661 308 OFFCURVE",
"657 453 CURVE SMOOTH",
"656 493 OFFCURVE",
"654 532 OFFCURVE",
"650 568 CURVE",
"669 580 OFFCURVE",
"660 603 OFFCURVE",
"677 608 CURVE",
"708 608 OFFCURVE",
"739 609 OFFCURVE",
"740 637 CURVE"
);
}
);
vertWidth = 1000;
width = 820;
}
);
note = cid00047;
unicode = 004E;
},
{
glyphname = O;
lastChange = "2020-12-04 07:33:56 +0000";
layers = (
{
hints = (
{
horizontal = 1;
place = "{-13, 49}";
type = Stem;
},
{
horizontal = 1;
place = "{629, 47}";
type = Stem;
},
{
place = "{83, 92}";
type = Stem;
},
{
place = "{602, 83}";
type = Stem;
}
);
layerId = "96B4F23F-F25B-4934-A27A-69E4A96ADD36";
paths = (
{
closed = 1;
nodes = (
"688 331 OFFCURVE",
"680 387 OFFCURVE",
"677 437 CURVE",
"674 442 OFFCURVE",
"671 447 OFFCURVE",
"669 453 CURVE SMOOTH",
"655 488 OFFCURVE",
"649 539 OFFCURVE",
"614 559 CURVE",
"610 570 OFFCURVE",
"610 584 OFFCURVE",
"611 600 CURVE",
"597 607 OFFCURVE",
"593 598 OFFCURVE",
"574 600 CURVE",
"538 672 OFFCURVE",
"390 685 OFFCURVE",
"317 670 CURVE",
"313 663 LINE",
"272 674 OFFCURVE",
"244 647 OFFCURVE",
"223 625 CURVE",
"162 597 OFFCURVE",
"119 531 OFFCURVE",
"98 454 CURVE SMOOTH",
"86 411 OFFCURVE",
"81 364 OFFCURVE",
"83 319 CURVE SMOOTH",
"88 219 OFFCURVE",
"126 140 OFFCURVE",
"178 81 CURVE SMOOTH",
"187 71 OFFCURVE",
"206 71 OFFCURVE",
"206 52 CURVE",
"260 25 OFFCURVE",
"316 -13 OFFCURVE",
"386 -13 CURVE SMOOTH",
"460 -13 OFFCURVE",
"522 27 OFFCURVE",
"578 57 CURVE",
"590 77 OFFCURVE",
"607 100 OFFCURVE",
"620 98 CURVE",
"637 166 OFFCURVE",
"681 212 OFFCURVE",
"685 286 CURVE SMOOTH"
);
},
{
closed = 1;
nodes = (
"612 352 OFFCURVE",
"602 244 OFFCURVE",
"564 163 CURVE SMOOTH",
"530 90 OFFCURVE",
"473 39 OFFCURVE",
"394 36 CURVE SMOOTH",
"328 33 OFFCURVE",
"277 62 OFFCURVE",
"241 109 CURVE SMOOTH",
"196 168 OFFCURVE",
"174 254 OFFCURVE",
"175 340 CURVE SMOOTH",
"175 379 OFFCURVE",
"181 418 OFFCURVE",
"190 454 CURVE SMOOTH",
"203 505 OFFCURVE",
"225 551 OFFCURVE",
"256 584 CURVE",
"325 632 OFFCURVE",
"468 656 OFFCURVE",
"530 588 CURVE SMOOTH",
"547 570 OFFCURVE",
"580 501 OFFCURVE",
"587 470 CURVE SMOOTH",
"588 464 OFFCURVE",
"590 459 OFFCURVE",
"591 453 CURVE SMOOTH"
);
}
);
vertWidth = 1000;
width = 766;
}
);
note = cid00048;
unicode = 004F;
},
{
glyphname = Oslash;
lastChange = "2020-12-04 07:33:56 +0000";
layers = (
{
components = (
{
name = O;
}
);
hints = (
{
horizontal = 1;
place = "{-9, 77}";
type = Stem;
},
{
horizontal = 1;
place = "{649, 77}";
type = Stem;
},
{
place = "{78, 76}";
type = Stem;
},
{
place = "{616, 76}";
type = Stem;
},
{
horizontal = 1;
place = "{-9, 21}";
target = up;
type = BottomGhost;
}
);
layerId = "96B4F23F-F25B-4934-A27A-69E4A96ADD36";
paths = (
{
closed = 1;
nodes = (
"612 672 OFFCURVE",
"597 670 OFFCURVE",
"590 667 CURVE",
"551 603 OFFCURVE",
"501 543 OFFCURVE",
"463 490 CURVE SMOOTH",
"446 466 OFFCURVE",
"430 444 OFFCURVE",
"412 420 CURVE SMOOTH",
"318 293 OFFCURVE",
"223 163 OFFCURVE",
"183 110 CURVE SMOOTH",
"167 90 OFFCURVE",
"138 53 OFFCURVE",
"129 29 CURVE SMOOTH",
"123 12 OFFCURVE",
"128 -2 OFFCURVE",
"151 -8 CURVE",
"172 -3 OFFCURVE",
"166 21 OFFCURVE",
"187 26 CURVE",
"189 36 OFFCURVE",
"196 41 OFFCURVE",
"197 51 CURVE",
"257 127 OFFCURVE",
"359 272 OFFCURVE",
"466 418 CURVE SMOOTH",
"478 433 OFFCURVE",
"490 447 OFFCURVE",
"502 462 CURVE",
"507 473 OFFCURVE",
"509 483 OFFCURVE",
"512 492 CURVE",
"547 513 OFFCURVE",
"562 569 OFFCURVE",
"605 606 CURVE",
"610 629 OFFCURVE",
"630 639 OFFCURVE",
"624 663 CURVE"
);
}
);
vertWidth = 1000;
width = 760;
}
);
note = cid00142;
unicode = 00D8;
},
{
glyphname = OE;
lastChange = "2020-12-04 07:33:56 +0000";
layers = (
{
hints = (
{
horizontal = 1;
place = "{0, 70}";
type = Stem;
},
{
horizontal = 1;
place = "{321, 71}";
type = Stem;
},
{
horizontal = 1;
place = "{624, 71}";
type = Stem;
},
{
place = "{57, 76}";
type = Stem;
},
{
place = "{576, 72}";
type = Stem;
},
{
place = "{576, 71.5}";
type = Stem;
},
{
horizontal = 1;
place = "{-11, 74}";
type = Stem;
},
{
horizontal = 1;
place = "{625, 74}";
type = Stem;
}
);
layerId = "96B4F23F-F25B-4934-A27A-69E4A96ADD36";
paths = (
{
closed = 1;
nodes = (
"984 67 OFFCURVE",
"1006 143 OFFCURVE",
"979 197 CURVE",
"938 180 OFFCURVE",
"947 114 OFFCURVE",
"925 77 CURVE",
"853 58 OFFCURVE",
"750 61 OFFCURVE",
"666 65 CURVE",
"675 149 OFFCURVE",
"679 224 OFFCURVE",
"676 298 CURVE",
"725 321 OFFCURVE",
"797 315 OFFCURVE",
"859 306 CURVE",
"873 280 OFFCURVE",
"865 233 OFFCURVE",
"909 237 CURVE",
"919 287 OFFCURVE",
"907 378 OFFCURVE",
"921 431 CURVE",
"907 434 OFFCURVE",
"901 446 OFFCURVE",
"886 438 CURVE",
"869 418 OFFCURVE",
"869 379 OFFCURVE",
"843 368 CURVE",
"789 365 OFFCURVE",
"733 365 OFFCURVE",
"681 360 CURVE",
"678 389 OFFCURVE",
"676 422 OFFCURVE",
"676 454 CURVE SMOOTH",
"676 510 OFFCURVE",
"671 564 OFFCURVE",
"666 590 CURVE",
"734 597 OFFCURVE",
"855 593 OFFCURVE",
"921 593 CURVE",
"933 575 OFFCURVE",
"931 536 OFFCURVE",
"937 509 CURVE SMOOTH",
"941 489 OFFCURVE",
"951 475 OFFCURVE",
"975 481 CURVE",
"992 517 OFFCURVE",
"978 600 OFFCURVE",
"982 636 CURVE",
"938 666 OFFCURVE",
"872 648 OFFCURVE",
"812 647 CURVE SMOOTH",
"745 646 OFFCURVE",
"631 648 OFFCURVE",
"556 651 CURVE SMOOTH",
"534 652 OFFCURVE",
"533 627 OFFCURVE",
"529 609 CURVE",
"546 586 OFFCURVE",
"573 597 OFFCURVE",
"602 590 CURVE",
"601 550 OFFCURVE",
"600 504 OFFCURVE",
"601 454 CURVE SMOOTH",
"602 331 OFFCURVE",
"607 185 OFFCURVE",
"598 61 CURVE",
"580 59 OFFCURVE",
"557 65 OFFCURVE",
"545 57 CURVE",
"545 45 OFFCURVE",
"542 17 OFFCURVE",
"565 4 CURVE",
"681 18 OFFCURVE",
"833 4 OFFCURVE",
"975 15 CURVE",
"982 22 LINE"
);
},
{
closed = 1;
nodes = (
"677 326 OFFCURVE",
"649 539 OFFCURVE",
"614 559 CURVE",
"610 570 OFFCURVE",
"610 584 OFFCURVE",
"611 600 CURVE",
"597 607 OFFCURVE",
"593 598 OFFCURVE",
"574 600 CURVE",
"538 672 OFFCURVE",
"390 685 OFFCURVE",
"317 670 CURVE",
"313 663 LINE",
"272 674 OFFCURVE",
"244 647 OFFCURVE",
"223 625 CURVE",
"162 597 OFFCURVE",
"119 531 OFFCURVE",
"98 454 CURVE SMOOTH",
"86 411 OFFCURVE",
"81 364 OFFCURVE",
"83 319 CURVE SMOOTH",
"88 219 OFFCURVE",
"126 140 OFFCURVE",
"178 81 CURVE SMOOTH",
"187 71 OFFCURVE",
"206 71 OFFCURVE",
"206 52 CURVE",
"260 25 OFFCURVE",
"316 -13 OFFCURVE",
"386 -13 CURVE SMOOTH",
"460 -13 OFFCURVE",
"522 27 OFFCURVE",
"578 57 CURVE",
"611 60 LINE"
);
},
{
closed = 1;
nodes = (
"612 352 OFFCURVE",
"602 244 OFFCURVE",
"564 163 CURVE SMOOTH",
"530 90 OFFCURVE",
"473 39 OFFCURVE",
"394 36 CURVE SMOOTH",
"328 33 OFFCURVE",
"277 62 OFFCURVE",
"241 109 CURVE SMOOTH",
"196 168 OFFCURVE",
"174 254 OFFCURVE",
"175 340 CURVE SMOOTH",
"175 379 OFFCURVE",
"181 418 OFFCURVE",
"190 454 CURVE SMOOTH",
"203 505 OFFCURVE",
"225 551 OFFCURVE",
"256 584 CURVE",
"325 632 OFFCURVE",
"468 656 OFFCURVE",
"530 588 CURVE SMOOTH",
"547 570 OFFCURVE",
"580 501 OFFCURVE",
"587 470 CURVE SMOOTH",
"588 464 OFFCURVE",
"590 459 OFFCURVE",
"591 453 CURVE SMOOTH"
);
}
);
vertWidth = 1000;
width = 1100;
}
);
note = cid00143;
unicode = 0152;
},
{
glyphname = P;
lastChange = "2020-12-04 07:33:56 +0000";
layers = (
{
hints = (
{
horizontal = 1;
place = "{3, 44}";
type = Stem;
},
{
horizontal = 1;
place = "{607, 53}";
type = Stem;
},
{
place = "{179, 71}";
type = Stem;
},
{
place = "{492, 83}";
type = Stem;
},
{
horizontal = 1;
place = "{272, 49}";
type = Stem;
},
{
horizontal = 1;
place = "{607, 47}";
type = Stem;
}
);
layerId = "96B4F23F-F25B-4934-A27A-69E4A96ADD36";
paths = (
{
closed = 1;
nodes = (
"578 477 OFFCURVE",
"577 503 OFFCURVE",
"571 527 CURVE SMOOTH",
"559 578 OFFCURVE",
"493 642 OFFCURVE",
"445 654 CURVE SMOOTH",
"387 668 OFFCURVE",
"325 655 OFFCURVE",
"257 654 CURVE SMOOTH",
"221 654 OFFCURVE",
"180 659 OFFCURVE",
"149 656 CURVE SMOOTH",
"116 653 OFFCURVE",
"95 640 OFFCURVE",
"102 608 CURVE",
"120 599 OFFCURVE",
"152 598 OFFCURVE",
"175 598 CURVE",
"178 550 OFFCURVE",
"178 502 OFFCURVE",
"179 454 CURVE SMOOTH",
"181 327 OFFCURVE",
"178 201 OFFCURVE",
"182 79 CURVE",
"167 58 OFFCURVE",
"149 45 OFFCURVE",
"120 47 CURVE",
"120 30 OFFCURVE",
"102 26 OFFCURVE",
"112 3 CURVE",
"147 9 OFFCURVE",
"202 2 OFFCURVE",
"249 3 CURVE SMOOTH",
"290 4 OFFCURVE",
"326 10 OFFCURVE",
"341 35 CURVE",
"311 55 OFFCURVE",
"267 48 OFFCURVE",
"255 84 CURVE SMOOTH",
"242 122 OFFCURVE",
"255 245 OFFCURVE",
"255 272 CURVE",
"303 266 OFFCURVE",
"379 285 OFFCURVE",
"443 287 CURVE",
"484 312 OFFCURVE",
"518 341 OFFCURVE",
"554 370 CURVE",
"564 397 OFFCURVE",
"572 424 OFFCURVE",
"575 453 CURVE SMOOTH"
);
},
{
closed = 1;
nodes = (
"490 440 OFFCURVE",
"487 428 OFFCURVE",
"482 416 CURVE SMOOTH",
"463 368 OFFCURVE",
"424 328 OFFCURVE",
"367 321 CURVE SMOOTH",
"328 316 OFFCURVE",
"276 316 OFFCURVE",
"254 314 CURVE",
"250 358 OFFCURVE",
"251 407 OFFCURVE",
"252 454 CURVE SMOOTH",
"253 494 OFFCURVE",
"253 534 OFFCURVE",
"247 568 CURVE",
"253 581 OFFCURVE",
"258 595 OFFCURVE",
"258 611 CURVE",
"261 612 OFFCURVE",
"265 609 OFFCURVE",
"265 607 CURVE",
"328 607 OFFCURVE",
"415 616 OFFCURVE",
"453 584 CURVE SMOOTH",
"489 554 OFFCURVE",
"500 502 OFFCURVE",
"492 453 CURVE SMOOTH"
);
}
);
vertWidth = 1000;
width = 660;
}
);
note = cid00049;
unicode = 0050;
},
{
glyphname = Thorn;
lastChange = "2020-12-04 07:33:56 +0000";
layers = (
{
hints = (
{
horizontal = 1;
place = "{0, 21}";
target = up;
type = BottomGhost;
},
{
horizontal = 1;
place = "{180, 70}";
type = Stem;
},
{
horizontal = 1;
place = "{501, 70}";
type = Stem;
},
{
horizontal = 1;
place = "{721, -20}";
target = down;
type = TopGhost;
},
{
place = "{111, 72}";
type = Stem;
},
{
place = "{473, 71}";
type = Stem;
}
);
layerId = "96B4F23F-F25B-4934-A27A-69E4A96ADD36";
paths = (
{
closed = 1;
nodes = (
"244 319 OFFCURVE",
"252 334 CURVE",
"254 378 OFFCURVE",
"254 417 OFFCURVE",
"254 454 CURVE SMOOTH",
"255 507 OFFCURVE",
"257 555 OFFCURVE",
"271 610 CURVE",
"299 610 OFFCURVE",
"325 611 OFFCURVE",
"338 626 CURVE",
"316 652 OFFCURVE",
"280 657 OFFCURVE",
"238 657 CURVE SMOOTH",
"202 657 OFFCURVE",
"162 654 OFFCURVE",
"124 657 CURVE",
"125 637 OFFCURVE",
"96 640 OFFCURVE",
"111 610 CURVE",
"129 593 OFFCURVE",
"149 621 OFFCURVE",
"174 607 CURVE",
"191 567 OFFCURVE",
"179 507 OFFCURVE",
"181 454 CURVE SMOOTH",
"181 449 OFFCURVE",
"182 445 OFFCURVE",
"182 440 CURVE SMOOTH",
"192 324 OFFCURVE",
"176 197 OFFCURVE",
"186 82 CURVE",
"172 55 OFFCURVE",
"146 55 OFFCURVE",
"116 54 CURVE",
"119 34 OFFCURVE",
"94 34 OFFCURVE",
"108 12 CURVE",
"146 -6 OFFCURVE",
"193 14 OFFCURVE",
"248 12 CURVE SMOOTH",
"293 11 OFFCURVE",
"312 7 OFFCURVE",
"326 38 CURVE",
"294 42 OFFCURVE",
"277 62 OFFCURVE",
"252 74 CURVE",
"254 144 OFFCURVE",
"256 200 OFFCURVE",
"252 269 CURVE",
"258 291 OFFCURVE"
);
},
{
closed = 1;
nodes = (
"315 478 OFFCURVE",
"396 485 OFFCURVE",
"433 454 CURVE SMOOTH",
"469 424 OFFCURVE",
"480 382 OFFCURVE",
"472 333 CURVE SMOOTH",
"470 320 OFFCURVE",
"467 308 OFFCURVE",
"462 296 CURVE SMOOTH",
"443 248 OFFCURVE",
"404 228 OFFCURVE",
"347 221 CURVE SMOOTH",
"317 217 OFFCURVE",
"278 216 OFFCURVE",
"252 215 CURVE",
"252 171 LINE",
"300 170 OFFCURVE",
"366 175 OFFCURVE",
"413 177 CURVE",
"452 202 OFFCURVE",
"498 208 OFFCURVE",
"534 250 CURVE",
"544 277 OFFCURVE",
"552 304 OFFCURVE",
"555 333 CURVE SMOOTH",
"558 357 OFFCURVE",
"557 383 OFFCURVE",
"551 407 CURVE SMOOTH",
"539 458 OFFCURVE",
"473 512 OFFCURVE",
"425 524 CURVE SMOOTH",
"371 537 OFFCURVE",
"314 527 OFFCURVE",
"252 524 CURVE",
"252 477 LINE"
);
}
);
vertWidth = 1000;
width = 640;
}
);
note = cid00192;
unicode = 00DE;
},
{
glyphname = Q;
lastChange = "2020-12-04 07:33:56 +0000";
layers = (
{
hints = (
{
horizontal = 1;
place = "{-67, 66}";
type = Stem;
},
{
horizontal = 1;
place = "{154, 57}";
type = Stem;
},
{
horizontal = 1;
place = "{638, 44}";
type = Stem;
},
{
place = "{89, 89}";
type = Stem;
},
{
place = "{599, 95}";
type = Stem;
},
{
horizontal = 1;
place = "{-6, 37}";
type = Stem;
}
);
layerId = "96B4F23F-F25B-4934-A27A-69E4A96ADD36";
paths = (
{
closed = 1;
nodes = (
"666 -9 OFFCURVE",
"589 -9 OFFCURVE",
"565 46 CURVE",
"619 92 OFFCURVE",
"676 189 OFFCURVE",
"690 280 CURVE SMOOTH",
"699 341 OFFCURVE",
"694 400 OFFCURVE",
"678 453 CURVE SMOOTH",
"654 534 OFFCURVE",
"605 602 OFFCURVE",
"551 639 CURVE SMOOTH",
"435 719 OFFCURVE",
"246 683 OFFCURVE",
"162 575 CURVE SMOOTH",
"136 542 OFFCURVE",
"117 501 OFFCURVE",
"104 454 CURVE SMOOTH",
"96 424 OFFCURVE",
"91 392 OFFCURVE",
"89 358 CURVE SMOOTH",
"81 217 OFFCURVE",
"133 118 OFFCURVE",
"211 42 CURVE",
"242 47 OFFCURVE",
"243 22 OFFCURVE",
"261 15 CURVE",
"351 -7 OFFCURVE",
"406 -14 OFFCURVE",
"502 6 CURVE",
"528 -29 OFFCURVE",
"576 -67 OFFCURVE",
"637 -67 CURVE SMOOTH",
"679 -67 OFFCURVE",
"714 -47 OFFCURVE",
"718 10 CURVE"
);
},
{
closed = 1;
nodes = (
"599 228 OFFCURVE",
"584 125 OFFCURVE",
"522 88 CURVE",
"483 136 OFFCURVE",
"435 215 OFFCURVE",
"351 211 CURVE SMOOTH",
"297 208 OFFCURVE",
"260 168 OFFCURVE",
"232 125 CURVE",
"169 179 OFFCURVE",
"170 337 OFFCURVE",
"191 435 CURVE SMOOTH",
"192 441 OFFCURVE",
"194 448 OFFCURVE",
"196 454 CURVE SMOOTH",
"208 494 OFFCURVE",
"230 533 OFFCURVE",
"252 558 CURVE SMOOTH",
"293 605 OFFCURVE",
"393 661 OFFCURVE",
"472 628 CURVE SMOOTH",
"524 606 OFFCURVE",
"562 536 OFFCURVE",
"582 453 CURVE SMOOTH",
"593 409 OFFCURVE",
"599 362 OFFCURVE",
"599 317 CURVE SMOOTH"
);
},
{
closed = 1;
nodes = (
"453 38 OFFCURVE",
"417 31 OFFCURVE",
"381 31 CURVE SMOOTH",
"329 31 OFFCURVE",
"276 48 OFFCURVE",
"272 84 CURVE SMOOTH",
"267 126 OFFCURVE",
"335 172 OFFCURVE",
"388 147 CURVE SMOOTH",
"430 128 OFFCURVE",
"450 77 OFFCURVE",
"472 54 CURVE"
);
}
);
vertWidth = 1000;
width = 780;
}
);
note = cid00050;
unicode = 0051;
},
{
glyphname = R;
lastChange = "2020-12-04 07:33:56 +0000";
layers = (
{
hints = (
{
horizontal = 1;
place = "{304, 38}";
type = Stem;
},
{
horizontal = 1;
place = "{611, 45}";
type = Stem;
},
{
place = "{177, 71}";
type = Stem;
},
{
place = "{485, 91}";
type = Stem;
}
);
layerId = "96B4F23F-F25B-4934-A27A-69E4A96ADD36";
paths = (
{
closed = 1;
nodes = (
"670 58 OFFCURVE",
"614 64 OFFCURVE",
"586 81 CURVE",
"545 176 OFFCURVE",
"512 278 OFFCURVE",
"428 329 CURVE",
"487 335 OFFCURVE",
"503 383 OFFCURVE",
"549 402 CURVE",
"553 421 OFFCURVE",
"560 437 OFFCURVE",
"568 453 CURVE SMOOTH",
"571 459 OFFCURVE",
"574 464 OFFCURVE",
"576 470 CURVE",
"582 540 OFFCURVE",
"562 584 OFFCURVE",
"526 612 CURVE SMOOTH",
"462 661 OFFCURVE",
"348 660 OFFCURVE",
"235 653 CURVE SMOOTH",
"186 650 OFFCURVE",
"129 659 OFFCURVE",
"92 639 CURVE",
"86 628 OFFCURVE",
"99 624 OFFCURVE",
"97 611 CURVE",
"116 594 OFFCURVE",
"142 611 OFFCURVE",
"167 601 CURVE",
"170 454 LINE SMOOTH",
"173 329 OFFCURVE",
"174 213 OFFCURVE",
"177 81 CURVE",
"170 65 OFFCURVE",
"149 59 OFFCURVE",
"132 50 CURVE SMOOTH",
"114 41 OFFCURVE",
"100 29 OFFCURVE",
"111 1 CURVE",
"135 10 OFFCURVE",
"185 6 OFFCURVE",
"232 6 CURVE SMOOTH",
"275 6 OFFCURVE",
"316 8 OFFCURVE",
"332 29 CURVE",
"315 55 OFFCURVE",
"262 46 OFFCURVE",
"248 75 CURVE",
"257 151 OFFCURVE",
"242 226 OFFCURVE",
"248 304 CURVE",
"272 301 OFFCURVE",
"314 308 OFFCURVE",
"350 303 CURVE SMOOTH",
"398 296 OFFCURVE",
"426 263 OFFCURVE",
"447 217 CURVE SMOOTH",
"478 149 OFFCURVE",
"494 60 OFFCURVE",
"535 13 CURVE",
"573 3 OFFCURVE",
"610 -4 OFFCURVE",
"654 8 CURVE"
);
},
{
closed = 1;
nodes = (
"485 479 OFFCURVE",
"483 465 OFFCURVE",
"480 453 CURVE SMOOTH",
"472 424 OFFCURVE",
"455 399 OFFCURVE",
"430 379 CURVE SMOOTH",
"387 345 OFFCURVE",
"312 335 OFFCURVE",
"248 346 CURVE",
"243 382 OFFCURVE",
"243 419 OFFCURVE",
"245 454 CURVE SMOOTH",
"246 478 OFFCURVE",
"248 502 OFFCURVE",
"248 524 CURVE SMOOTH",
"248 556 OFFCURVE",
"238 594 OFFCURVE",
"254 611 CURVE",
"334 612 OFFCURVE",
"398 621 OFFCURVE",
"456 590 CURVE",
"476 556 OFFCURVE",
"485 523 OFFCURVE",
"485 492 CURVE SMOOTH"
);
}
);
vertWidth = 1000;
width = 700;
}
);
note = cid00051;
unicode = 0052;
},
{
glyphname = S;
lastChange = "2020-12-04 07:33:56 +0000";
layers = (
{
hints = (
{
horizontal = 1;
place = "{-6, 39}";
type = Stem;
},
{
horizontal = 1;
place = "{627, 42}";
type = Stem;
},
{
place = "{118, 65}";
type = Stem;
},
{
place = "{447, 75}";
type = Stem;
},
{
place = "{439, 57}";
type = Stem;
},
{
horizontal = 1;
place = "{674, -20}";
target = down;
type = TopGhost;
},
{
place = "{107, 22}";
type = Stem;
}
);
layerId = "96B4F23F-F25B-4934-A27A-69E4A96ADD36";
paths = (
{
closed = 1;
nodes = (
"541 228 OFFCURVE",
"494 287 OFFCURVE",
"429 331 CURVE SMOOTH",
"358 379 OFFCURVE",
"266 409 OFFCURVE",
"219 454 CURVE SMOOTH",
"217 456 OFFCURVE",
"215 458 OFFCURVE",
"213 460 CURVE SMOOTH",
"202 471 OFFCURVE",
"189 491 OFFCURVE",
"186 506 CURVE SMOOTH",
"178 544 OFFCURVE",
"187 572 OFFCURVE",
"206 592 CURVE SMOOTH",
"229 616 OFFCURVE",
"266 627 OFFCURVE",
"306 627 CURVE SMOOTH",
"356 627 OFFCURVE",
"408 611 OFFCURVE",
"439 583 CURVE",
"439 538 OFFCURVE",
"438 493 OFFCURVE",
"480 490 CURVE",
"499 524 OFFCURVE",
"500 621 OFFCURVE",
"488 669 CURVE",
"462 685 OFFCURVE",
"459 656 OFFCURVE",
"444 649 CURVE",
"356 686 OFFCURVE",
"239 668 OFFCURVE",
"161 633 CURVE",
"132 599 OFFCURVE",
"118 556 OFFCURVE",
"118 514 CURVE SMOOTH",
"118 493 OFFCURVE",
"120 473 OFFCURVE",
"126 454 CURVE SMOOTH",
"137 416 OFFCURVE",
"159 383 OFFCURVE",
"190 363 CURVE SMOOTH",
"204 354 OFFCURVE",
"227 349 OFFCURVE",
"246 338 CURVE SMOOTH",
"263 328 OFFCURVE",
"276 311 OFFCURVE",
"293 301 CURVE SMOOTH",
"337 275 OFFCURVE",
"385 262 OFFCURVE",
"416 233 CURVE SMOOTH",
"441 210 OFFCURVE",
"455 178 OFFCURVE",
"447 121 CURVE",
"432 71 OFFCURVE",
"359 34 OFFCURVE",
"293 33 CURVE SMOOTH",
"258 33 OFFCURVE",
"224 42 OFFCURVE",
"202 65 CURVE SMOOTH",
"180 87 OFFCURVE",
"178 118 OFFCURVE",
"172 147 CURVE SMOOTH",
"166 175 OFFCURVE",
"159 200 OFFCURVE",
"129 211 CURVE",
"105 166 OFFCURVE",
"95 38 OFFCURVE",
"124 -9 CURVE",
"160 -37 OFFCURVE",
"163 10 OFFCURVE",
"197 16 CURVE",
"266 -11 OFFCURVE",
"337 -12 OFFCURVE",
"396 8 CURVE SMOOTH",
"455 28 OFFCURVE",
"501 71 OFFCURVE",
"516 130 CURVE SMOOTH"
);
}
);
vertWidth = 1000;
width = 610;
}
);
note = cid00052;
unicode = 0053;
},
{
glyphname = T;
lastChange = "2020-12-04 07:33:56 +0000";
layers = (
{
hints = (
{
horizontal = 1;
place = "{3, 65}";
type = Stem;
},
{
horizontal = 1;
place = "{476, -20}";
target = down;
type = TopGhost;
},
{
horizontal = 1;
place = "{598, 57}";
type = Stem;
},
{
place = "{310, 79}";
type = Stem;
},
{
place = "{611, 15}";
type = Stem;
},
{
horizontal = 1;
place = "{601, 48}";
type = Stem;
}
);
layerId = "96B4F23F-F25B-4934-A27A-69E4A96ADD36";
paths = (
{
closed = 1;
nodes = (
"579 673 OFFCURVE",
"475 649 OFFCURVE",
"382 649 CURVE SMOOTH",
"291 649 OFFCURVE",
"173 656 OFFCURVE",
"89 641 CURVE",
"72 597 OFFCURVE",
"78 530 OFFCURVE",
"70 476 CURVE",
"82 470 OFFCURVE",
"85 455 OFFCURVE",
"105 457 CURVE",
"138 478 OFFCURVE",
"127 543 OFFCURVE",
"137 587 CURVE",
"181 594 OFFCURVE",
"249 608 OFFCURVE",
"307 598 CURVE",
"309 549 OFFCURVE",
"310 502 OFFCURVE",
"310 454 CURVE SMOOTH",
"311 334 OFFCURVE",
"309 216 OFFCURVE",
"311 92 CURVE",
"299 68 OFFCURVE",
"263 47 OFFCURVE",
"241 57 CURVE",
"235 48 OFFCURVE",
"225 39 OFFCURVE",
"225 28 CURVE SMOOTH",
"226 -8 OFFCURVE",
"270 6 OFFCURVE",
"300 6 CURVE SMOOTH",
"356 7 OFFCURVE",
"455 -9 OFFCURVE",
"469 25 CURVE",
"459 56 OFFCURVE",
"411 49 OFFCURVE",
"390 68 CURVE",
"385 194 OFFCURVE",
"388 327 OFFCURVE",
"389 454 CURVE SMOOTH",
"390 503 OFFCURVE",
"390 551 OFFCURVE",
"390 598 CURVE",
"438 602 OFFCURVE",
"510 599 OFFCURVE",
"554 587 CURVE",
"565 565 OFFCURVE",
"565 531 OFFCURVE",
"571 503 CURVE SMOOTH",
"576 479 OFFCURVE",
"586 460 OFFCURVE",
"611 457 CURVE",
"631 479 OFFCURVE",
"626 514 OFFCURVE",
"623 547 CURVE SMOOTH",
"620 575 OFFCURVE",
"619 603 OFFCURVE",
"634 622 CURVE"
);
}
);
vertWidth = 1000;
width = 690;
}
);
note = cid00053;
unicode = 0054;
},
{
glyphname = U;
lastChange = "2020-12-04 07:33:56 +0000";
layers = (
{
hints = (
{
horizontal = 1;
place = "{-13, 52}";
type = Stem;
},
{
horizontal = 1;
place = "{641, 19}";
type = Stem;
},
{
place = "{153, 77}";
type = Stem;
},
{
place = "{580, 49}";
type = Stem;
},
{
horizontal = 1;
place = "{602, 53}";
type = Stem;
},
{
place = "{584, 42}";
type = Stem;
}
);
layerId = "96B4F23F-F25B-4934-A27A-69E4A96ADD36";
paths = (
{
closed = 1;
nodes = (
"682 665 OFFCURVE",
"557 672 OFFCURVE",
"510 641 CURVE",
"520 608 OFFCURVE",
"558 600 OFFCURVE",
"578 577 CURVE",
"577 539 OFFCURVE",
"578 496 OFFCURVE",
"580 453 CURVE SMOOTH",
"582 408 OFFCURVE",
"584 364 OFFCURVE",
"584 321 CURVE SMOOTH",
"584 204 OFFCURVE",
"569 99 OFFCURVE",
"491 58 CURVE SMOOTH",
"423 23 OFFCURVE",
"325 41 OFFCURVE",
"282 77 CURVE SMOOTH",
"240 112 OFFCURVE",
"230 195 OFFCURVE",
"230 285 CURVE SMOOTH",
"230 340 OFFCURVE",
"235 401 OFFCURVE",
"238 454 CURVE SMOOTH",
"239 473 OFFCURVE",
"240 490 OFFCURVE",
"240 506 CURVE SMOOTH",
"241 536 OFFCURVE",
"230 581 OFFCURVE",
"247 606 CURVE",
"271 600 OFFCURVE",
"297 601 OFFCURVE",
"318 609 CURVE",
"315 646 OFFCURVE",
"275 654 OFFCURVE",
"228 655 CURVE SMOOTH",
"183 656 OFFCURVE",
"131 650 OFFCURVE",
"99 657 CURVE",
"86 647 OFFCURVE",
"78 631 OFFCURVE",
"83 618 CURVE",
"103 608 OFFCURVE",
"139 606 OFFCURVE",
"157 606 CURVE",
"157 556 OFFCURVE",
"155 505 OFFCURVE",
"153 454 CURVE SMOOTH",
"151 378 OFFCURVE",
"149 302 OFFCURVE",
"154 231 CURVE SMOOTH",
"164 78 OFFCURVE",
"259 -13 OFFCURVE",
"413 -13 CURVE SMOOTH",
"455 -13 OFFCURVE",
"535 6 OFFCURVE",
"562 35 CURVE SMOOTH",
"576 49 OFFCURVE",
"593 86 OFFCURVE",
"606 113 CURVE SMOOTH",
"617 136 OFFCURVE",
"629 158 OFFCURVE",
"632 183 CURVE SMOOTH",
"636 219 OFFCURVE",
"626 256 OFFCURVE",
"626 286 CURVE SMOOTH",
"626 346 OFFCURVE",
"627 398 OFFCURVE",
"628 453 CURVE SMOOTH",
"629 493 OFFCURVE",
"629 533 OFFCURVE",
"629 577 CURVE",
"655 599 OFFCURVE",
"701 599 OFFCURVE",
"719 628 CURVE"
);
}
);
vertWidth = 1000;
width = 780;
}
);
note = cid00054;
unicode = 0055;
},
{
glyphname = V;
lastChange = "2020-12-04 07:33:56 +0000";
layers = (
{
hints = (
{
horizontal = 1;
place = "{-8, 21}";
target = up;
type = BottomGhost;
},
{
horizontal = 1;
place = "{625, 33}";
type = Stem;
},
{
place = "{69, 14}";
type = Stem;
},
{
horizontal = 1;
place = "{596, 63}";
type = Stem;
}
);
layerId = "96B4F23F-F25B-4934-A27A-69E4A96ADD36";
paths = (
{
closed = 1;
nodes = (
"687 641 OFFCURVE",
"664 652 OFFCURVE",
"640 655 CURVE SMOOTH",
"585 661 OFFCURVE",
"485 664 OFFCURVE",
"480 625 CURVE",
"500 608 OFFCURVE",
"540 610 OFFCURVE",
"555 589 CURVE",
"546 542 OFFCURVE",
"535 497 OFFCURVE",
"522 453 CURVE SMOOTH",
"485 328 OFFCURVE",
"434 214 OFFCURVE",
"388 102 CURVE",
"358 220 OFFCURVE",
"311 338 OFFCURVE",
"275 454 CURVE SMOOTH",
"260 502 OFFCURVE",
"247 549 OFFCURVE",
"237 596 CURVE",
"256 599 OFFCURVE",
"290 611 OFFCURVE",
"314 623 CURVE",
"291 651 OFFCURVE",
"259 658 OFFCURVE",
"223 659 CURVE SMOOTH",
"180 660 OFFCURVE",
"131 651 OFFCURVE",
"83 654 CURVE",
"78 640 OFFCURVE",
"61 628 OFFCURVE",
"74 607 CURVE",
"96 599 OFFCURVE",
"117 615 OFFCURVE",
"141 607 CURVE",
"162 558 OFFCURVE",
"180 507 OFFCURVE",
"198 454 CURVE SMOOTH",
"249 301 OFFCURVE",
"292 135 OFFCURVE",
"350 -8 CURVE",
"366 -12 OFFCURVE",
"383 -22 OFFCURVE",
"401 -12 CURVE",
"413 2 OFFCURVE",
"420 21 OFFCURVE",
"433 34 CURVE",
"474 183 OFFCURVE",
"530 310 OFFCURVE",
"572 453 CURVE SMOOTH",
"581 484 OFFCURVE",
"589 516 OFFCURVE",
"597 549 CURVE",
"623 582 OFFCURVE",
"667 598 OFFCURVE",
"696 628 CURVE"
);
}
);
vertWidth = 1000;
width = 770;
}
);
note = cid00055;
unicode = 0056;
},
{
glyphname = W;
lastChange = "2020-12-04 07:33:56 +0000";
layers = (
{
hints = (
{
horizontal = 1;
place = "{-2, 21}";
target = up;
type = BottomGhost;
},
{
place = "{60, 15}";
type = Stem;
}
);
layerId = "96B4F23F-F25B-4934-A27A-69E4A96ADD36";
paths = (
{
closed = 1;
nodes = (
"876 642 OFFCURVE",
"816 657 OFFCURVE",
"766 657 CURVE SMOOTH",
"728 657 OFFCURVE",
"695 648 OFFCURVE",
"693 624 CURVE",
"703 608 OFFCURVE",
"722 608 OFFCURVE",
"739 604 CURVE SMOOTH",
"752 601 OFFCURVE",
"763 594 OFFCURVE",
"767 576 CURVE SMOOTH",
"772 553 OFFCURVE",
"752 504 OFFCURVE",
"744 467 CURVE SMOOTH",
"741 453 LINE SMOOTH",
"718 347 OFFCURVE",
"676 234 OFFCURVE",
"645 159 CURVE",
"625 249 OFFCURVE",
"593 353 OFFCURVE",
"567 453 CURVE SMOOTH",
"551 515 OFFCURVE",
"537 576 OFFCURVE",
"528 631 CURVE",
"514 638 OFFCURVE",
"498 645 OFFCURVE",
"476 644 CURVE",
"452 584 OFFCURVE",
"432 520 OFFCURVE",
"414 454 CURVE SMOOTH",
"384 345 OFFCURVE",
"356 232 OFFCURVE",
"316 133 CURVE",
"286 235 OFFCURVE",
"265 347 OFFCURVE",
"240 454 CURVE SMOOTH",
"229 502 OFFCURVE",
"217 548 OFFCURVE",
"202 592 CURVE",
"222 598 OFFCURVE",
"262 605 OFFCURVE",
"284 620 CURVE",
"264 651 OFFCURVE",
"234 657 OFFCURVE",
"198 657 CURVE SMOOTH",
"161 657 OFFCURVE",
"118 649 OFFCURVE",
"75 655 CURVE",
"63 648 OFFCURVE",
"51 636 OFFCURVE",
"68 612 CURVE",
"95 599 OFFCURVE",
"111 615 OFFCURVE",
"142 608 CURVE",
"139 598 OFFCURVE",
"138 587 OFFCURVE",
"139 573 CURVE",
"150 535 OFFCURVE",
"159 495 OFFCURVE",
"168 454 CURVE SMOOTH",
"180 397 OFFCURVE",
"190 338 OFFCURVE",
"202 281 CURVE SMOOTH",
"222 184 OFFCURVE",
"242 86 OFFCURVE",
"276 2 CURVE",
"289 1 OFFCURVE",
"308 -7 OFFCURVE",
"319 2 CURVE",
"324 36 OFFCURVE",
"340 58 OFFCURVE",
"359 77 CURVE",
"365 193 OFFCURVE",
"431 263 OFFCURVE",
"433 371 CURVE",
"453 391 OFFCURVE",
"457 423 OFFCURVE",
"462 454 CURVE SMOOTH",
"466 478 OFFCURVE",
"471 503 OFFCURVE",
"485 522 CURVE",
"489 501 OFFCURVE",
"494 477 OFFCURVE",
"500 453 CURVE SMOOTH",
"525 350 OFFCURVE",
"563 223 OFFCURVE",
"587 128 CURVE SMOOTH",
"594 101 OFFCURVE",
"599 45 OFFCURVE",
"616 19 CURVE SMOOTH",
"627 2 OFFCURVE",
"641 -3 OFFCURVE",
"665 18 CURVE",
"660 65 OFFCURVE",
"691 99 OFFCURVE",
"705 140 CURVE SMOOTH",
"717 176 OFFCURVE",
"715 218 OFFCURVE",
"725 258 CURVE SMOOTH",
"728 270 OFFCURVE",
"740 282 OFFCURVE",
"744 294 CURVE SMOOTH",
"754 324 OFFCURVE",
"762 361 OFFCURVE",
"771 393 CURVE SMOOTH",
"777 414 OFFCURVE",
"782 434 OFFCURVE",
"788 453 CURVE SMOOTH",
"796 480 OFFCURVE",
"803 507 OFFCURVE",
"806 538 CURVE",
"828 544 OFFCURVE",
"827 573 OFFCURVE",
"838 589 CURVE",
"862 597 OFFCURVE",
"878 611 OFFCURVE",
"893 628 CURVE"
);
}
);
vertWidth = 1000;
width = 950;
}
);
note = cid00056;
unicode = 0057;
},
{
glyphname = X;
lastChange = "2020-12-04 07:33:56 +0000";
layers = (
{
hints = (
{
horizontal = 1;
place = "{-3, 21}";
target = up;
type = BottomGhost;
},
{
horizontal = 1;
place = "{661, -20}";
target = down;
type = TopGhost;
},
{
place = "{74, 614}";
type = Stem;
},
{
horizontal = 1;
place = "{662, -20}";
target = down;
type = TopGhost;
},
{
horizontal = 1;
place = "{4, 69}";
type = Stem;
},
{
horizontal = 1;
place = "{606, 51}";
type = Stem;
},
{
horizontal = 1;
place = "{-10, 21}";
target = up;
type = BottomGhost;
}
);
layerId = "96B4F23F-F25B-4934-A27A-69E4A96ADD36";
paths = (
{
closed = 1;
nodes = (
"671 656 OFFCURVE",
"642 661 OFFCURVE",
"608 661 CURVE SMOOTH",
"568 661 OFFCURVE",
"522 653 OFFCURVE",
"480 658 CURVE",
"475 642 OFFCURVE",
"456 640 OFFCURVE",
"460 615 CURVE",
"485 601 OFFCURVE",
"518 610 OFFCURVE",
"543 603 CURVE",
"513 551 OFFCURVE",
"472 503 OFFCURVE",
"435 454 CURVE SMOOTH",
"429 446 LINE SMOOTH",
"422 436 OFFCURVE",
"391 398 OFFCURVE",
"386 399 CURVE SMOOTH",
"378 400 OFFCURVE",
"359 441 OFFCURVE",
"354 449 CURVE SMOOTH",
"351 454 LINE SMOOTH",
"319 508 OFFCURVE",
"277 550 OFFCURVE",
"252 599 CURVE",
"276 608 OFFCURVE",
"309 607 OFFCURVE",
"327 622 CURVE",
"317 655 OFFCURVE",
"287 662 OFFCURVE",
"250 662 CURVE SMOOTH",
"202 662 OFFCURVE",
"143 650 OFFCURVE",
"103 662 CURVE",
"97 648 OFFCURVE",
"88 638 OFFCURVE",
"87 619 CURVE",
"107 611 OFFCURVE",
"129 606 OFFCURVE",
"157 606 CURVE",
"150 593 OFFCURVE",
"162 587 OFFCURVE",
"162 579 CURVE",
"202 543 OFFCURVE",
"233 500 OFFCURVE",
"262 454 CURVE SMOOTH",
"287 414 OFFCURVE",
"310 373 OFFCURVE",
"334 332 CURVE",
"282 271 OFFCURVE",
"246 194 OFFCURVE",
"192 134 CURVE SMOOTH",
"163 101 OFFCURVE",
"128 74 OFFCURVE",
"83 57 CURVE",
"78 41 OFFCURVE",
"72 26 OFFCURVE",
"75 2 CURVE",
"123 18 OFFCURVE",
"213 -4 OFFCURVE",
"283 6 CURVE",
"282 18 OFFCURVE",
"294 19 OFFCURVE",
"291 33 CURVE",
"279 46 OFFCURVE",
"259 50 OFFCURVE",
"241 54 CURVE SMOOTH",
"224 58 OFFCURVE",
"209 63 OFFCURVE",
"209 80 CURVE SMOOTH",
"209 94 OFFCURVE",
"228 105 OFFCURVE",
"236 115 CURVE SMOOTH",
"281 174 OFFCURVE",
"331 236 OFFCURVE",
"374 285 CURVE",
"421 215 OFFCURVE",
"472 151 OFFCURVE",
"511 73 CURVE",
"501 56 OFFCURVE",
"476 52 OFFCURVE",
"453 48 CURVE",
"439 41 OFFCURVE",
"441 21 OFFCURVE",
"445 9 CURVE",
"465 5 OFFCURVE",
"474 -7 OFFCURVE",
"495 -10 CURVE",
"524 17 OFFCURVE",
"584 -3 OFFCURVE",
"629 -3 CURVE SMOOTH",
"653 -3 OFFCURVE",
"673 3 OFFCURVE",
"681 25 CURVE",
"652 36 OFFCURVE",
"625 60 OFFCURVE",
"601 64 CURVE",
"564 181 OFFCURVE",
"475 245 OFFCURVE",
"424 348 CURVE",
"448 383 OFFCURVE",
"473 418 OFFCURVE",
"498 453 CURVE SMOOTH",
"536 505 OFFCURVE",
"574 556 OFFCURVE",
"617 603 CURVE",
"639 615 OFFCURVE",
"681 607 OFFCURVE",
"688 634 CURVE"
);
}
);
vertWidth = 1000;
width = 750;
}
);
note = cid00057;
unicode = 0058;
},
{
glyphname = Y;
lastChange = "2020-12-04 07:33:56 +0000";
layers = (
{
hints = (
{
horizontal = 1;
place = "{9, 56}";
type = Stem;
},
{
horizontal = 1;
place = "{611, 49}";
type = Stem;
},
{
place = "{476, 12}";
type = Stem;
}
);
layerId = "96B4F23F-F25B-4934-A27A-69E4A96ADD36";
paths = (
{
closed = 1;
nodes = (
"678 651 OFFCURVE",
"647 660 OFFCURVE",
"608 660 CURVE SMOOTH",
"566 660 OFFCURVE",
"515 651 OFFCURVE",
"472 656 CURVE",
"454 646 OFFCURVE",
"447 612 OFFCURVE",
"467 602 CURVE",
"493 603 OFFCURVE",
"530 608 OFFCURVE",
"547 606 CURVE",
"515 554 OFFCURVE",
"480 504 OFFCURVE",
"445 454 CURVE SMOOTH",
"425 426 OFFCURVE",
"406 398 OFFCURVE",
"386 370 CURVE",
"366 397 OFFCURVE",
"344 426 OFFCURVE",
"322 454 CURVE SMOOTH",
"283 505 OFFCURVE",
"246 556 OFFCURVE",
"220 606 CURVE",
"251 606 OFFCURVE",
"281 608 OFFCURVE",
"300 621 CURVE",
"291 653 OFFCURVE",
"258 661 OFFCURVE",
"217 660 CURVE SMOOTH",
"173 659 OFFCURVE",
"119 649 OFFCURVE",
"78 656 CURVE",
"70 648 OFFCURVE",
"58 643 OFFCURVE",
"63 621 CURVE",
"69 620 OFFCURVE",
"69 614 OFFCURVE",
"72 611 CURVE",
"96 605 OFFCURVE",
"114 610 OFFCURVE",
"133 606 CURVE",
"138 601 OFFCURVE",
"139 589 OFFCURVE",
"139 579 CURVE",
"146 573 OFFCURVE",
"159 573 OFFCURVE",
"162 563 CURVE",
"185 528 OFFCURVE",
"208 491 OFFCURVE",
"232 454 CURVE SMOOTH",
"249 428 OFFCURVE",
"266 402 OFFCURVE",
"284 378 CURVE SMOOTH",
"304 352 OFFCURVE",
"328 325 OFFCURVE",
"332 299 CURVE SMOOTH",
"339 253 OFFCURVE",
"331 121 OFFCURVE",
"332 87 CURVE",
"309 59 OFFCURVE",
"252 63 OFFCURVE",
"255 9 CURVE",
"332 -3 OFFCURVE",
"405 9 OFFCURVE",
"476 1 CURVE",
"497 18 OFFCURVE",
"487 35 OFFCURVE",
"471 44 CURVE SMOOTH",
"456 52 OFFCURVE",
"437 58 OFFCURVE",
"425 71 CURVE",
"422 64 OFFCURVE",
"414 63 OFFCURVE",
"409 68 CURVE",
"397 129 OFFCURVE",
"411 240 OFFCURVE",
"401 303 CURVE",
"415 315 OFFCURVE",
"434 339 OFFCURVE",
"448 362 CURVE SMOOTH",
"461 383 OFFCURVE",
"480 398 OFFCURVE",
"496 421 CURVE SMOOTH",
"503 431 OFFCURVE",
"510 442 OFFCURVE",
"516 453 CURVE SMOOTH",
"539 494 OFFCURVE",
"560 539 OFFCURVE",
"589 571 CURVE SMOOTH",
"613 597 OFFCURVE",
"643 615 OFFCURVE",
"688 618 CURVE"
);
}
);
vertWidth = 1000;
width = 740;
}
);
note = cid00058;
unicode = 0059;
},
{
glyphname = Z;
lastChange = "2020-12-04 07:33:56 +0000";
layers = (
{
hints = (
{
horizontal = 1;
place = "{12, 54}";
type = Stem;
},
{
horizontal = 1;
place = "{614, 49}";
type = Stem;
},
{
place = "{118, 52}";
type = Stem;
},
{
horizontal = 1;
place = "{0, 21}";
target = up;
type = BottomGhost;
},
{
place = "{555, 14}";
type = Stem;
}
);
layerId = "96B4F23F-F25B-4934-A27A-69E4A96ADD36";
paths = (
{
closed = 1;
nodes = (
"579 649 OFFCURVE",
"559 661 OFFCURVE",
"539 663 CURVE SMOOTH",
"417 674 OFFCURVE",
"222 645 OFFCURVE",
"131 651 CURVE",
"127 611 OFFCURVE",
"100 499 OFFCURVE",
"139 464 CURVE",
"164 471 OFFCURVE",
"168 498 OFFCURVE",
"170 527 CURVE SMOOTH",
"172 554 OFFCURVE",
"173 583 OFFCURVE",
"186 600 CURVE",
"264 621 OFFCURVE",
"366 614 OFFCURVE",
"453 605 CURVE",
"421 556 OFFCURVE",
"387 506 OFFCURVE",
"352 454 CURVE SMOOTH",
"279 345 OFFCURVE",
"203 231 OFFCURVE",
"135 121 CURVE SMOOTH",
"107 76 OFFCURVE",
"67 53 OFFCURVE",
"96 0 CURVE",
"217 24 OFFCURVE",
"405 5 OFFCURVE",
"539 0 CURVE",
"546 10 OFFCURVE",
"559 14 OFFCURVE",
"571 19 CURVE",
"572 33 OFFCURVE",
"575 46 OFFCURVE",
"584 66 CURVE",
"557 89 OFFCURVE",
"568 128 OFFCURVE",
"569 163 CURVE SMOOTH",
"570 182 OFFCURVE",
"568 199 OFFCURVE",
"555 212 CURVE",
"525 209 OFFCURVE",
"531 172 OFFCURVE",
"523 152 CURVE SMOOTH",
"510 121 OFFCURVE",
"488 93 OFFCURVE",
"472 70 CURVE",
"382 61 OFFCURVE",
"291 68 OFFCURVE",
"189 66 CURVE",
"272 199 OFFCURVE",
"353 331 OFFCURVE",
"443 454 CURVE SMOOTH",
"488 516 OFFCURVE",
"536 575 OFFCURVE",
"587 631 CURVE"
);
}
);
vertWidth = 1000;
width = 680;
}
);
note = cid00059;
unicode = 005A;
},
{
glyphname = A.full;
lastChange = "2020-12-04 07:33:56 +0000";
layers = (
{
hints = (
{
horizontal = 1;
place = "{235, 52}";
type = Stem;
},
{
place = "{157, 652}";
type = Stem;
}
);
layerId = "96B4F23F-F25B-4934-A27A-69E4A96ADD36";
paths = (
{
closed = 1;
nodes = (
"815 59 OFFCURVE",
"776 63 OFFCURVE",
"748 69 CURVE",
"752 92 OFFCURVE",
"727 99 OFFCURVE",
"718 118 CURVE SMOOTH",
"712 130 OFFCURVE",
"706 154 OFFCURVE",
"702 167 CURVE SMOOTH",
"675 255 OFFCURVE",
"639 359 OFFCURVE",
"605 453 CURVE SMOOTH",
"588 498 OFFCURVE",
"572 541 OFFCURVE",
"557 579 CURVE",
"570 617 OFFCURVE",
"534 626 OFFCURVE",
"550 668 CURVE",
"532 675 OFFCURVE",
"500 672 OFFCURVE",
"481 668 CURVE",
"450 608 OFFCURVE",
"419 532 OFFCURVE",
"390 454 CURVE SMOOTH",
"361 378 OFFCURVE",
"334 299 OFFCURVE",
"306 230 CURVE SMOOTH",
"289 188 OFFCURVE",
"277 136 OFFCURVE",
"248 105 CURVE SMOOTH",
"231 86 OFFCURVE",
"206 75 OFFCURVE",
"173 78 CURVE",
"169 62 OFFCURVE",
"158 53 OFFCURVE",
"157 33 CURVE",
"168 28 OFFCURVE",
"170 14 OFFCURVE",
"177 5 CURVE",
"230 23 OFFCURVE",
"318 -2 OFFCURVE",
"388 12 CURVE",
"395 44 OFFCURVE",
"380 56 OFFCURVE",
"360 61 CURVE SMOOTH",
"337 67 OFFCURVE",
"309 66 OFFCURVE",
"302 81 CURVE",
"318 115 OFFCURVE",
"353 206 OFFCURVE",
"366 230 CURVE",
"433 234 OFFCURVE",
"529 238 OFFCURVE",
"602 235 CURVE",
"607 211 OFFCURVE",
"647 116 OFFCURVE",
"639 78 CURVE",
"610 73 OFFCURVE",
"568 59 OFFCURVE",
"586 20 CURVE",
"612 16 OFFCURVE",
"686 6 OFFCURVE",
"742 8 CURVE SMOOTH",
"777 9 OFFCURVE",
"805 15 OFFCURVE",
"808 29 CURVE SMOOTH"
);
},
{
closed = 1;
nodes = (
"549 288 OFFCURVE",
"423 290 OFFCURVE",
"388 287 CURVE",
"397 311 OFFCURVE",
"425 387 OFFCURVE",
"450 454 CURVE SMOOTH",
"488 557 LINE",
"503 529 OFFCURVE",
"518 492 OFFCURVE",
"531 454 CURVE SMOOTH",
"553 389 OFFCURVE",
"571 321 OFFCURVE",
"581 296 CURVE"
);
}
);
vertWidth = 1000;
width = 1000;
}
);
note = cid00790;
unicode = FF21;
},
{
glyphname = B.full;
lastChange = "2020-12-04 07:33:56 +0000";
layers = (
{
hints = (
{
horizontal = 1;
place = "{13, 40}";
type = Stem;
},
{
horizontal = 1;
place = "{327, 44}";
type = Stem;
},
{
horizontal = 1;
place = "{600, 52}";
type = Stem;
},
{
place = "{325, 78}";
type = Stem;
},
{
place = "{661, 93}";
type = Stem;
},
{
place = "{640, 91}";
type = Stem;
},
{
horizontal = 1;
place = "{609, 48}";
type = Stem;
}
);
layerId = "96B4F23F-F25B-4934-A27A-69E4A96ADD36";
paths = (
{
closed = 1;
nodes = (
"716 300 OFFCURVE",
"666 335 OFFCURVE",
"603 359 CURVE",
"644 362 OFFCURVE",
"680 388 OFFCURVE",
"704 424 CURVE SMOOTH",
"710 433 OFFCURVE",
"715 443 OFFCURVE",
"719 453 CURVE SMOOTH",
"735 492 OFFCURVE",
"736 538 OFFCURVE",
"713 577 CURVE SMOOTH",
"694 610 OFFCURVE",
"627 645 OFFCURVE",
"574 652 CURVE SMOOTH",
"476 665 OFFCURVE",
"351 651 OFFCURVE",
"257 648 CURVE",
"239 641 OFFCURVE",
"249 617 OFFCURVE",
"253 605 CURVE",
"270 598 OFFCURVE",
"306 618 OFFCURVE",
"317 605 CURVE",
"321 558 OFFCURVE",
"323 507 OFFCURVE",
"325 454 CURVE SMOOTH",
"329 320 OFFCURVE",
"327 175 OFFCURVE",
"321 53 CURVE",
"296 55 OFFCURVE",
"277 51 OFFCURVE",
"261 45 CURVE",
"260 29 OFFCURVE",
"238 30 OFFCURVE",
"250 6 CURVE",
"365 0 OFFCURVE",
"462 20 OFFCURVE",
"578 10 CURVE",
"617 29 OFFCURVE",
"658 31 OFFCURVE",
"686 50 CURVE SMOOTH",
"741 88 OFFCURVE",
"768 172 OFFCURVE",
"748 245 CURVE"
);
},
{
closed = 1;
nodes = (
"627 451 OFFCURVE",
"626 447 OFFCURVE",
"624 444 CURVE SMOOTH",
"605 406 OFFCURVE",
"572 377 OFFCURVE",
"534 371 CURVE SMOOTH",
"488 364 OFFCURVE",
"432 372 OFFCURVE",
"400 367 CURVE",
"400 394 OFFCURVE",
"402 424 OFFCURVE",
"403 454 CURVE SMOOTH",
"405 504 OFFCURVE",
"407 556 OFFCURVE",
"400 600 CURVE",
"443 597 OFFCURVE",
"490 606 OFFCURVE",
"532 605 CURVE SMOOTH",
"572 604 OFFCURVE",
"606 595 OFFCURVE",
"625 565 CURVE SMOOTH",
"645 532 OFFCURVE",
"643 491 OFFCURVE",
"628 454 CURVE SMOOTH"
);
},
{
closed = 1;
nodes = (
"647 103 OFFCURVE",
"612 79 OFFCURVE",
"566 66 CURVE SMOOTH",
"518 53 OFFCURVE",
"458 52 OFFCURVE",
"400 53 CURVE",
"399 127 OFFCURVE",
"397 251 OFFCURVE",
"403 327 CURVE",
"490 325 OFFCURVE",
"555 331 OFFCURVE",
"619 299 CURVE SMOOTH",
"663 277 OFFCURVE",
"664 206 OFFCURVE",
"661 148 CURVE"
);
}
);
vertWidth = 1000;
width = 1000;
}
);
note = cid00791;
unicode = FF22;
},
{
glyphname = C.full;
lastChange = "2020-12-04 07:33:56 +0000";
layers = (
{
hints = (
{
horizontal = 1;
place = "{-14, 60}";
type = Stem;
},
{
horizontal = 1;
place = "{613, 58}";
type = Stem;
},
{
place = "{225, 84}";
type = Stem;
},
{
place = "{698, 44}";
type = Stem;
}
);
layerId = "96B4F23F-F25B-4934-A27A-69E4A96ADD36";
paths = (
{
closed = 1;
nodes = (
"733 231 OFFCURVE",
"717 166 OFFCURVE",
"702 137 CURVE",
"663 92 OFFCURVE",
"599 41 OFFCURVE",
"519 46 CURVE SMOOTH",
"483 48 OFFCURVE",
"453 70 OFFCURVE",
"419 79 CURVE",
"407 104 OFFCURVE",
"384 119 OFFCURVE",
"367 145 CURVE SMOOTH",
"315 224 OFFCURVE",
"293 355 OFFCURVE",
"320 454 CURVE SMOOTH",
"324 469 OFFCURVE",
"329 483 OFFCURVE",
"335 496 CURVE SMOOTH",
"362 552 OFFCURVE",
"428 594 OFFCURVE",
"499 608 CURVE SMOOTH",
"573 623 OFFCURVE",
"652 607 OFFCURVE",
"698 548 CURVE",
"704 518 OFFCURVE",
"697 473 OFFCURVE",
"713 453 CURVE SMOOTH",
"718 447 OFFCURVE",
"725 444 OFFCURVE",
"735 443 CURVE",
"738 446 OFFCURVE",
"740 449 OFFCURVE",
"742 453 CURVE SMOOTH",
"756 481 OFFCURVE",
"740 521 OFFCURVE",
"742 556 CURVE SMOOTH",
"744 591 OFFCURVE",
"756 625 OFFCURVE",
"746 652 CURVE",
"717 654 OFFCURVE",
"720 624 OFFCURVE",
"695 622 CURVE",
"635 655 OFFCURVE",
"551 684 OFFCURVE",
"461 666 CURVE SMOOTH",
"398 654 OFFCURVE",
"316 595 OFFCURVE",
"282 540 CURVE SMOOTH",
"267 515 OFFCURVE",
"253 487 OFFCURVE",
"243 454 CURVE SMOOTH",
"234 424 OFFCURVE",
"227 389 OFFCURVE",
"225 349 CURVE SMOOTH",
"218 242 OFFCURVE",
"257 128 OFFCURVE",
"306 79 CURVE SMOOTH",
"318 67 OFFCURVE",
"343 55 OFFCURVE",
"363 39 CURVE SMOOTH",
"400 9 OFFCURVE",
"434 -14 OFFCURVE",
"490 -14 CURVE SMOOTH",
"532 -14 OFFCURVE",
"592 -5 OFFCURVE",
"629 6 CURVE SMOOTH",
"665 17 OFFCURVE",
"710 55 OFFCURVE",
"735 87 CURVE SMOOTH",
"758 116 OFFCURVE",
"780 163 OFFCURVE",
"779 202 CURVE"
);
}
);
vertWidth = 1000;
width = 1000;
}
);
note = cid00792;
unicode = FF23;
},
{
glyphname = D.full;
lastChange = "2020-12-04 07:33:56 +0000";
layers = (
{
hints = (
{
horizontal = 1;
place = "{609, 50}";
type = Stem;
},
{
place = "{275, 84}";
type = Stem;
},
{
place = "{698, 93}";
type = Stem;
}
);
layerId = "96B4F23F-F25B-4934-A27A-69E4A96ADD36";
paths = (
{
closed = 1;
nodes = (
"797 341 OFFCURVE",
"790 401 OFFCURVE",
"775 453 CURVE SMOOTH",
"760 503 OFFCURVE",
"738 546 OFFCURVE",
"713 579 CURVE SMOOTH",
"651 661 OFFCURVE",
"417 666 OFFCURVE",
"268 659 CURVE SMOOTH",
"232 657 OFFCURVE",
"197 648 OFFCURVE",
"195 610 CURVE",
"217 597 OFFCURVE",
"251 612 OFFCURVE",
"277 599 CURVE",
"276 552 OFFCURVE",
"275 503 OFFCURVE",
"275 454 CURVE SMOOTH",
"275 309 OFFCURVE",
"281 160 OFFCURVE",
"277 45 CURVE",
"256 38 OFFCURVE",
"245 47 OFFCURVE",
"225 41 CURVE",
"213 27 OFFCURVE",
"203 10 OFFCURVE",
"200 -12 CURVE",
"317 23 OFFCURVE",
"491 -15 OFFCURVE",
"617 29 CURVE",
"701 69 OFFCURVE",
"779 155 OFFCURVE",
"791 275 CURVE SMOOTH"
);
},
{
closed = 1;
nodes = (
"709 308 OFFCURVE",
"687 142 OFFCURVE",
"625 93 CURVE SMOOTH",
"606 78 OFFCURVE",
"564 63 OFFCURVE",
"540 57 CURVE SMOOTH",
"488 44 OFFCURVE",
"424 51 OFFCURVE",
"350 48 CURVE",
"356 63 OFFCURVE",
"358 82 OFFCURVE",
"358 97 CURVE SMOOTH",
"361 207 OFFCURVE",
"360 336 OFFCURVE",
"359 454 CURVE SMOOTH",
"359 507 OFFCURVE",
"358 557 OFFCURVE",
"358 602 CURVE",
"522 627 OFFCURVE",
"654 588 OFFCURVE",
"688 453 CURVE SMOOTH",
"690 444 OFFCURVE",
"693 434 OFFCURVE",
"694 424 CURVE SMOOTH"
);
}
);
vertWidth = 1000;
width = 1000;
}
);
note = cid00793;
unicode = FF24;
},
{
glyphname = E.full;
lastChange = "2020-12-04 07:33:56 +0000";
layers = (
{
hints = (
{
horizontal = 1;
place = "{4, 58}";
type = Stem;
},
{
horizontal = 1;
place = "{314, 54}";
type = Stem;
},
{
horizontal = 1;
place = "{431, 10}";
type = Stem;
},
{
horizontal = 1;
place = "{593, 54}";
type = Stem;
},
{
place = "{330, 78}";
type = Stem;
},
{
place = "{672.91, 51.09}";
type = Stem;
},
{
place = "{653, 57.5}";
type = Stem;
},
{
horizontal = 1;
place = "{636, 17}";
type = Stem;
}
);
layerId = "96B4F23F-F25B-4934-A27A-69E4A96ADD36";
paths = (
{
closed = 1;
nodes = (
"716 67 OFFCURVE",
"738 143 OFFCURVE",
"711 197 CURVE",
"670 180 OFFCURVE",
"679 114 OFFCURVE",
"657 77 CURVE",
"585 58 OFFCURVE",
"482 61 OFFCURVE",
"408 65 CURVE",
"413 149 OFFCURVE",
"411 224 OFFCURVE",
"408 298 CURVE",
"457 321 OFFCURVE",
"529 315 OFFCURVE",
"591 306 CURVE",
"605 280 OFFCURVE",
"597 233 OFFCURVE",
"641 237 CURVE",
"651 287 OFFCURVE",
"639 378 OFFCURVE",
"653 431 CURVE",
"639 434 OFFCURVE",
"633 446 OFFCURVE",
"618 438 CURVE",
"601 418 OFFCURVE",
"601 379 OFFCURVE",
"575 368 CURVE",
"521 365 OFFCURVE",
"465 365 OFFCURVE",
"413 360 CURVE",
"410 389 OFFCURVE",
"408 422 OFFCURVE",
"408 454 CURVE SMOOTH",
"408 510 OFFCURVE",
"410 564 OFFCURVE",
"408 590 CURVE",
"466 597 OFFCURVE",
"587 593 OFFCURVE",
"653 593 CURVE",
"665 575 OFFCURVE",
"663 536 OFFCURVE",
"669 509 CURVE SMOOTH",
"673 489 OFFCURVE",
"683 475 OFFCURVE",
"707 481 CURVE",
"724 517 OFFCURVE",
"710 600 OFFCURVE",
"714 636 CURVE",
"670 666 OFFCURVE",
"604 648 OFFCURVE",
"544 647 CURVE SMOOTH",
"477 646 OFFCURVE",
"363 648 OFFCURVE",
"288 651 CURVE SMOOTH",
"266 652 OFFCURVE",
"265 627 OFFCURVE",
"261 609 CURVE",
"278 586 OFFCURVE",
"305 597 OFFCURVE",
"334 590 CURVE",
"333 550 OFFCURVE",
"332 504 OFFCURVE",
"333 454 CURVE SMOOTH",
"334 331 OFFCURVE",
"339 185 OFFCURVE",
"330 61 CURVE",
"312 59 OFFCURVE",
"289 65 OFFCURVE",
"277 57 CURVE",
"277 45 OFFCURVE",
"250 24 OFFCURVE",
"280 4 CURVE",
"413 18 OFFCURVE",
"565 4 OFFCURVE",
"707 15 CURVE",
"714 22 LINE"
);
}
);
vertWidth = 1000;
width = 1000;
}
);
note = cid00794;
unicode = FF25;
},
{
glyphname = F.full;
lastChange = "2020-12-04 07:33:56 +0000";
layers = (
{
hints = (
{
horizontal = 1;
place = "{-6, 24}";
type = Stem;
},
{
horizontal = 1;
place = "{302, 51}";
type = Stem;
},
{
horizontal = 1;
place = "{430, 10}";
type = Stem;
},
{
horizontal = 1;
place = "{603, 48}";
type = Stem;
},
{
place = "{352, 75}";
type = Stem;
},
{
horizontal = 1;
place = "{-7, 63}";
type = Stem;
},
{
place = "{597, 78}";
type = Stem;
}
);
layerId = "96B4F23F-F25B-4934-A27A-69E4A96ADD36";
paths = (
{
closed = 1;
nodes = (
"696 669 OFFCURVE",
"629 654 OFFCURVE",
"566 651 CURVE SMOOTH",
"459 646 OFFCURVE",
"337 665 OFFCURVE",
"264 640 CURVE",
"256 622 OFFCURVE",
"277 619 OFFCURVE",
"264 608 CURVE",
"270 586 OFFCURVE",
"281 608 OFFCURVE",
"293 608 CURVE",
"312 595 OFFCURVE",
"332 600 OFFCURVE",
"347 600 CURVE",
"350 551 OFFCURVE",
"352 502 OFFCURVE",
"353 454 CURVE SMOOTH",
"355 324 OFFCURVE",
"351 196 OFFCURVE",
"352 65 CURVE",
"326 51 OFFCURVE",
"283 55 OFFCURVE",
"280 18 CURVE",
"284 13 OFFCURVE",
"291 10 OFFCURVE",
"288 -3 CURVE",
"307 -12 OFFCURVE",
"323 1 OFFCURVE",
"344 2 CURVE SMOOTH",
"376 4 OFFCURVE",
"416 -7 OFFCURVE",
"448 -7 CURVE SMOOTH",
"476 -7 OFFCURVE",
"497 0 OFFCURVE",
"502 29 CURVE",
"483 45 OFFCURVE",
"446 55 OFFCURVE",
"423 56 CURVE",
"436 125 OFFCURVE",
"423 210 OFFCURVE",
"427 294 CURVE",
"485 302 OFFCURVE",
"535 301 OFFCURVE",
"613 302 CURVE",
"629 285 OFFCURVE",
"627 250 OFFCURVE",
"641 231 CURVE",
"676 239 OFFCURVE",
"680 271 OFFCURVE",
"679 310 CURVE SMOOTH",
"678 351 OFFCURVE",
"669 399 OFFCURVE",
"681 430 CURVE",
"672 437 OFFCURVE",
"649 444 OFFCURVE",
"638 437 CURVE",
"623 412 OFFCURVE",
"616 379 OFFCURVE",
"597 358 CURVE",
"543 358 OFFCURVE",
"479 347 OFFCURVE",
"427 358 CURVE",
"426 389 OFFCURVE",
"426 422 OFFCURVE",
"426 454 CURVE SMOOTH",
"426 506 OFFCURVE",
"427 557 OFFCURVE",
"427 603 CURVE",
"506 604 OFFCURVE",
"564 603 OFFCURVE",
"645 603 CURVE",
"678 595 OFFCURVE",
"676 541 OFFCURVE",
"686 507 CURVE SMOOTH",
"692 486 OFFCURVE",
"704 473 OFFCURVE",
"732 485 CURVE",
"734 539 OFFCURVE",
"720 590 OFFCURVE",
"736 644 CURVE"
);
}
);
vertWidth = 1000;
width = 1000;
}
);
note = cid00795;
unicode = FF26;
},
{
glyphname = G.full;
lastChange = "2020-12-04 07:33:56 +0000";
layers = (
{
hints = (
{
horizontal = 1;
place = "{-9, 49}";
type = Stem;
},
{
horizontal = 1;
place = "{264, 55}";
type = Stem;
},
{
horizontal = 1;
place = "{628, 43}";
type = Stem;
},
{
place = "{210, 87}";
type = Stem;
}
);
layerId = "96B4F23F-F25B-4934-A27A-69E4A96ADD36";
paths = (
{
closed = 1;
nodes = (
"813 332 OFFCURVE",
"743 318 OFFCURVE",
"689 315 CURVE SMOOTH",
"611 311 OFFCURVE",
"563 334 OFFCURVE",
"571 269 CURVE",
"585 256 OFFCURVE",
"634 281 OFFCURVE",
"656 260 CURVE",
"657 203 OFFCURVE",
"649 136 OFFCURVE",
"656 85 CURVE",
"612 34 OFFCURVE",
"491 28 OFFCURVE",
"416 57 CURVE",
"342 99 OFFCURVE",
"298 226 OFFCURVE",
"297 349 CURVE SMOOTH",
"297 385 OFFCURVE",
"300 421 OFFCURVE",
"307 454 CURVE SMOOTH",
"320 513 OFFCURVE",
"346 563 OFFCURVE",
"388 592 CURVE SMOOTH",
"419 614 OFFCURVE",
"470 627 OFFCURVE",
"520 628 CURVE SMOOTH",
"591 630 OFFCURVE",
"661 609 OFFCURVE",
"679 558 CURVE SMOOTH",
"691 525 OFFCURVE",
"671 486 OFFCURVE",
"706 469 CURVE",
"729 483 OFFCURVE",
"733 510 OFFCURVE",
"732 541 CURVE SMOOTH",
"731 580 OFFCURVE",
"720 625 OFFCURVE",
"730 658 CURVE",
"710 667 OFFCURVE",
"696 644 OFFCURVE",
"675 641 CURVE SMOOTH",
"658 639 OFFCURVE",
"639 657 OFFCURVE",
"623 644 CURVE",
"585 664 OFFCURVE",
"541 672 OFFCURVE",
"498 671 CURVE SMOOTH",
"443 670 OFFCURVE",
"391 655 OFFCURVE",
"353 634 CURVE SMOOTH",
"294 601 OFFCURVE",
"252 533 OFFCURVE",
"229 454 CURVE SMOOTH",
"217 411 OFFCURVE",
"210 364 OFFCURVE",
"210 318 CURVE SMOOTH",
"210 242 OFFCURVE",
"229 168 OFFCURVE",
"269 113 CURVE SMOOTH",
"277 102 OFFCURVE",
"294 95 OFFCURVE",
"308 80 CURVE SMOOTH",
"320 68 OFFCURVE",
"327 48 OFFCURVE",
"339 39 CURVE SMOOTH",
"429 -31 OFFCURVE",
"591 -17 OFFCURVE",
"672 36 CURVE",
"689 21 OFFCURVE",
"706 23 OFFCURVE",
"724 35 CURVE",
"748 100 OFFCURVE",
"720 208 OFFCURVE",
"745 264 CURVE",
"772 269 OFFCURVE",
"815 258 OFFCURVE",
"822 283 CURVE"
);
}
);
vertWidth = 1000;
width = 1000;
}
);
note = cid00796;
unicode = FF27;
},
{
glyphname = H.full;
lastChange = "2020-12-04 07:33:56 +0000";
layers = (
{
hints = (
{
horizontal = 1;
place = "{5, 66}";
type = Stem;
},
{
horizontal = 1;
place = "{323, 49}";
type = Stem;
},
{
horizontal = 1;
place = "{601, 58}";
type = Stem;
},
{
place = "{273, 70}";
type = Stem;
},
{
place = "{584, 15}";
type = Stem;
},
{
place = "{671, 65}";
type = Stem;
},
{
horizontal = 1;
place = "{10, 55.85}";
type = Stem;
},
{
horizontal = 1;
place = "{609, 45}";
type = Stem;
}
);
layerId = "96B4F23F-F25B-4934-A27A-69E4A96ADD36";
paths = (
{
closed = 1;
nodes = (
"791 58 OFFCURVE",
"756 55 OFFCURVE",
"737 76 CURVE",
"747 176 OFFCURVE",
"738 322 OFFCURVE",
"736 453 CURVE SMOOTH",
"735 511 OFFCURVE",
"736 567 OFFCURVE",
"740 614 CURVE",
"775 613 OFFCURVE",
"805 615 OFFCURVE",
"813 641 CURVE",
"763 674 OFFCURVE",
"681 656 OFFCURVE",
"599 659 CURVE",
"594 643 OFFCURVE",
"577 632 OFFCURVE",
"588 612 CURVE",
"610 604 OFFCURVE",
"639 601 OFFCURVE",
"658 601 CURVE",
"656 554 OFFCURVE",
"665 501 OFFCURVE",
"668 453 CURVE SMOOTH",
"670 425 OFFCURVE",
"670 400 OFFCURVE",
"665 378 CURVE",
"566 377 OFFCURVE",
"447 366 OFFCURVE",
"341 376 CURVE",
"342 399 OFFCURVE",
"341 426 OFFCURVE",
"340 454 CURVE SMOOTH",
"339 513 OFFCURVE",
"338 575 OFFCURVE",
"347 609 CURVE",
"379 607 OFFCURVE",
"407 609 OFFCURVE",
"421 625 CURVE",
"405 653 OFFCURVE",
"372 659 OFFCURVE",
"333 658 CURVE SMOOTH",
"292 657 OFFCURVE",
"244 650 OFFCURVE",
"202 654 CURVE",
"203 635 OFFCURVE",
"184 636 OFFCURVE",
"187 615 CURVE",
"212 597 OFFCURVE",
"243 614 OFFCURVE",
"266 601 CURVE",
"268 558 OFFCURVE",
"270 508 OFFCURVE",
"271 454 CURVE SMOOTH",
"273 339 OFFCURVE",
"273 205 OFFCURVE",
"273 76 CURVE",
"252 60 OFFCURVE",
"220 69 OFFCURVE",
"210 48 CURVE SMOOTH",
"202 31 OFFCURVE",
"221 6 OFFCURVE",
"243 2 CURVE SMOOTH",
"254 0 OFFCURVE",
"270 9 OFFCURVE",
"290 10 CURVE SMOOTH",
"319 11 OFFCURVE",
"347 6 OFFCURVE",
"370 5 CURVE SMOOTH",
"393 4 OFFCURVE",
"409 8 OFFCURVE",
"414 30 CURVE",
"399 54 OFFCURVE",
"359 54 OFFCURVE",
"343 77 CURVE",
"346 169 OFFCURVE",
"340 230 OFFCURVE",
"341 318 CURVE",
"438 319 OFFCURVE",
"556 330 OFFCURVE",
"669 316 CURVE",
"667 253 OFFCURVE",
"672 156 OFFCURVE",
"671 71 CURVE",
"653 64 OFFCURVE",
"628 63 OFFCURVE",
"611 55 CURVE",
"589 16 OFFCURVE",
"631 -3 OFFCURVE",
"648 0 CURVE",
"661 14 OFFCURVE",
"715 4 OFFCURVE",
"759 5 CURVE SMOOTH",
"789 6 OFFCURVE",
"813 13 OFFCURVE",
"818 37 CURVE"
);
}
);
vertWidth = 1000;
width = 1000;
}
);
note = cid00797;
unicode = FF28;
},
{
glyphname = I.full;
lastChange = "2020-12-04 07:33:56 +0000";
layers = (
{
hints = (
{
horizontal = 1;
place = "{609, 49}";
type = Stem;
},
{
place = "{464, 73}";
type = Stem;
}
);
layerId = "96B4F23F-F25B-4934-A27A-69E4A96ADD36";
paths = (
{
closed = 1;
nodes = (
"610 652 OFFCURVE",
"570 658 OFFCURVE",
"525 658 CURVE SMOOTH",
"480 658 OFFCURVE",
"430 652 OFFCURVE",
"389 652 CURVE",
"389 636 OFFCURVE",
"372 636 OFFCURVE",
"376 617 CURVE",
"398 600 OFFCURVE",
"434 611 OFFCURVE",
"458 604 CURVE",
"461 556 OFFCURVE",
"463 506 OFFCURVE",
"464 454 CURVE SMOOTH",
"467 322 OFFCURVE",
"466 182 OFFCURVE",
"467 62 CURVE",
"450 55 OFFCURVE",
"422 59 OFFCURVE",
"400 58 CURVE",
"386 42 OFFCURVE",
"360 10 OFFCURVE",
"381 -17 CURVE",
"407 -23 OFFCURVE",
"402 5 OFFCURVE",
"420 7 CURVE SMOOTH",
"488 16 OFFCURVE",
"573 -8 OFFCURVE",
"626 23 CURVE",
"610 51 OFFCURVE",
"568 64 OFFCURVE",
"537 65 CURVE",
"537 194 OFFCURVE",
"537 326 OFFCURVE",
"539 454 CURVE SMOOTH",
"540 488 OFFCURVE",
"540 521 OFFCURVE",
"541 554 CURVE",
"543 564 OFFCURVE",
"545 572 OFFCURVE",
"551 577 CURVE",
"552 589 OFFCURVE",
"537 604 OFFCURVE",
"544 609 CURVE",
"578 610 OFFCURVE",
"621 601 OFFCURVE",
"630 627 CURVE"
);
}
);
vertWidth = 1000;
width = 1000;
}
);
note = cid00798;
unicode = FF29;
},
{
glyphname = J.full;
lastChange = "2020-12-04 07:33:56 +0000";
layers = (
{
hints = (
{
horizontal = 1;
place = "{-8, 48}";
type = Stem;
},
{
horizontal = 1;
place = "{608, 52}";
type = Stem;
},
{
place = "{505, 70}";
type = Stem;
}
);
layerId = "96B4F23F-F25B-4934-A27A-69E4A96ADD36";
paths = (
{
closed = 1;
nodes = (
"631 656 OFFCURVE",
"593 661 OFFCURVE",
"550 660 CURVE SMOOTH",
"505 659 OFFCURVE",
"455 652 OFFCURVE",
"416 654 CURVE",
"419 634 OFFCURVE",
"398 631 OFFCURVE",
"416 611 CURVE",
"436 599 OFFCURVE",
"459 611 OFFCURVE",
"490 608 CURVE",
"488 567 OFFCURVE",
"491 513 OFFCURVE",
"494 454 CURVE SMOOTH",
"501 338 OFFCURVE",
"511 204 OFFCURVE",
"500 119 CURVE SMOOTH",
"493 64 OFFCURVE",
"423 15 OFFCURVE",
"373 53 CURVE",
"386 117 OFFCURVE",
"343 169 OFFCURVE",
"276 149 CURVE",
"236 80 OFFCURVE",
"275 30 OFFCURVE",
"334 6 CURVE SMOOTH",
"389 -16 OFFCURVE",
"461 -14 OFFCURVE",
"501 17 CURVE",
"509 15 OFFCURVE",
"523 39 OFFCURVE",
"539 41 CURVE",
"574 105 OFFCURVE",
"577 198 OFFCURVE",
"575 295 CURVE SMOOTH",
"574 348 OFFCURVE",
"570 402 OFFCURVE",
"569 454 CURVE SMOOTH",
"567 508 OFFCURVE",
"568 560 OFFCURVE",
"575 606 CURVE",
"604 612 OFFCURVE",
"646 608 OFFCURVE",
"654 635 CURVE"
);
}
);
vertWidth = 1000;
width = 1000;
}
);
note = cid00799;
unicode = FF2A;
},
{
glyphname = K.full;
lastChange = "2020-12-04 07:33:56 +0000";
layers = (
{
hints = (
{
horizontal = 1;
place = "{12, 42}";
type = Stem;
},
{
horizontal = 1;
place = "{604, 53}";
type = Stem;
},
{
place = "{322, 70}";
type = Stem;
},
{
horizontal = 1;
place = "{600, 54}";
type = Stem;
}
);
layerId = "96B4F23F-F25B-4934-A27A-69E4A96ADD36";
paths = (
{
closed = 1;
nodes = (
"814 68 OFFCURVE",
"755 63 OFFCURVE",
"719 82 CURVE",
"662 190 OFFCURVE",
"589 279 OFFCURVE",
"529 384 CURVE",
"547 409 OFFCURVE",
"566 432 OFFCURVE",
"587 454 CURVE SMOOTH",
"633 504 OFFCURVE",
"684 549 OFFCURVE",
"728 600 CURVE",
"747 615 OFFCURVE",
"783 611 OFFCURVE",
"805 623 CURVE",
"787 648 OFFCURVE",
"756 654 OFFCURVE",
"720 654 CURVE SMOOTH",
"680 655 OFFCURVE",
"635 648 OFFCURVE",
"595 650 CURVE",
"594 638 OFFCURVE",
"590 628 OFFCURVE",
"586 619 CURVE",
"595 604 OFFCURVE",
"626 608 OFFCURVE",
"642 600 CURVE",
"603 549 OFFCURVE",
"561 501 OFFCURVE",
"517 454 CURVE SMOOTH",
"477 412 OFFCURVE",
"436 371 OFFCURVE",
"392 334 CURVE",
"394 378 OFFCURVE",
"394 417 OFFCURVE",
"394 454 CURVE SMOOTH",
"395 507 OFFCURVE",
"397 555 OFFCURVE",
"411 610 CURVE",
"439 610 OFFCURVE",
"465 611 OFFCURVE",
"478 626 CURVE",
"456 652 OFFCURVE",
"420 657 OFFCURVE",
"378 657 CURVE SMOOTH",
"342 657 OFFCURVE",
"302 654 OFFCURVE",
"264 657 CURVE",
"265 637 OFFCURVE",
"236 640 OFFCURVE",
"251 610 CURVE",
"269 593 OFFCURVE",
"289 621 OFFCURVE",
"314 607 CURVE",
"331 567 OFFCURVE",
"319 507 OFFCURVE",
"321 454 CURVE SMOOTH",
"321 449 OFFCURVE",
"322 445 OFFCURVE",
"322 440 CURVE SMOOTH",
"332 324 OFFCURVE",
"316 197 OFFCURVE",
"326 82 CURVE",
"312 55 OFFCURVE",
"286 55 OFFCURVE",
"256 54 CURVE",
"259 34 OFFCURVE",
"234 34 OFFCURVE",
"248 12 CURVE",
"286 -6 OFFCURVE",
"333 14 OFFCURVE",
"388 12 CURVE SMOOTH",
"433 11 OFFCURVE",
"452 7 OFFCURVE",
"466 38 CURVE",
"434 42 OFFCURVE",
"417 62 OFFCURVE",
"392 74 CURVE",
"394 144 OFFCURVE",
"396 200 OFFCURVE",
"392 269 CURVE",
"432 277 OFFCURVE",
"436 320 OFFCURVE",
"474 330 CURVE",
"524 257 OFFCURVE",
"587 170 OFFCURVE",
"637 92 CURVE SMOOTH",
"652 68 OFFCURVE",
"659 31 OFFCURVE",
"672 19 CURVE SMOOTH",
"699 -7 OFFCURVE",
"802 -9 OFFCURVE",
"828 27 CURVE"
);
}
);
vertWidth = 1000;
width = 1000;
}
);
note = cid00800;
unicode = FF2B;
},
{
glyphname = L.full;
lastChange = "2020-12-04 07:33:56 +0000";
layers = (
{
hints = (
{
horizontal = 1;
place = "{1, 50}";
type = Stem;
},
{
horizontal = 1;
place = "{611, 44}";
type = Stem;
},
{
place = "{385, 76}";
type = Stem;
},
{
place = "{756, 14}";
type = Stem;
}
);
layerId = "96B4F23F-F25B-4934-A27A-69E4A96ADD36";
paths = (
{
closed = 1;
nodes = (
"725 195 OFFCURVE",
"716 164 OFFCURVE",
"708 133 CURVE SMOOTH",
"699 98 OFFCURVE",
"692 64 OFFCURVE",
"655 54 CURVE SMOOTH",
"622 45 OFFCURVE",
"585 58 OFFCURVE",
"550 57 CURVE SMOOTH",
"518 56 OFFCURVE",
"489 45 OFFCURVE",
"457 57 CURVE",
"464 196 OFFCURVE",
"461 333 OFFCURVE",
"461 454 CURVE SMOOTH",
"461 502 OFFCURVE",
"462 548 OFFCURVE",
"464 591 CURVE",
"486 625 OFFCURVE",
"523 596 OFFCURVE",
"543 618 CURVE",
"534 652 OFFCURVE",
"502 659 OFFCURVE",
"463 659 CURVE SMOOTH",
"412 659 OFFCURVE",
"350 647 OFFCURVE",
"309 666 CURVE",
"314 641 OFFCURVE",
"284 632 OFFCURVE",
"298 610 CURVE",
"302 609 OFFCURVE",
"302 606 OFFCURVE",
"304 603 CURVE",
"328 594 OFFCURVE",
"352 621 OFFCURVE",
"383 607 CURVE",
"383 560 OFFCURVE",
"384 508 OFFCURVE",
"385 454 CURVE SMOOTH",
"387 324 OFFCURVE",
"390 184 OFFCURVE",
"383 72 CURVE",
"347 63 OFFCURVE",
"290 48 OFFCURVE",
"309 7 CURVE",
"439 21 OFFCURVE",
"635 -12 OFFCURVE",
"750 7 CURVE",
"772 66 OFFCURVE",
"778 144 OFFCURVE",
"756 206 CURVE"
);
}
);
vertWidth = 1000;
width = 1000;
}
);
note = cid00801;
unicode = FF2C;
},
{
glyphname = M.full;
lastChange = "2020-12-04 07:33:56 +0000";
layers = (
{
hints = (
{
horizontal = 1;
place = "{2, 55}";
type = Stem;
},
{
horizontal = 1;
place = "{602, 46}";
type = Stem;
},
{
place = "{133, 7}";
type = Stem;
},
{
place = "{216, 56}";
type = Stem;
},
{
place = "{738, 67}";
type = Stem;
},
{
horizontal = 1;
place = "{606, 56}";
type = Stem;
},
{
horizontal = 1;
place = "{-1, 59}";
type = Stem;
},
{
place = "{209, 48}";
type = Stem;
}
);
layerId = "96B4F23F-F25B-4934-A27A-69E4A96ADD36";
paths = (
{
closed = 1;
nodes = (
"865 58 OFFCURVE",
"823 53 OFFCURVE",
"807 75 CURVE",
"814 195 OFFCURVE",
"807 326 OFFCURVE",
"805 453 CURVE SMOOTH",
"804 503 OFFCURVE",
"804 553 OFFCURVE",
"806 601 CURVE",
"824 611 OFFCURVE",
"864 599 OFFCURVE",
"872 618 CURVE",
"866 668 OFFCURVE",
"757 668 OFFCURVE",
"708 653 CURVE",
"677 590 OFFCURVE",
"652 522 OFFCURVE",
"627 453 CURVE SMOOTH",
"592 354 OFFCURVE",
"558 254 OFFCURVE",
"514 164 CURVE",
"469 256 OFFCURVE",
"431 356 OFFCURVE",
"391 454 CURVE SMOOTH",
"370 505 OFFCURVE",
"349 556 OFFCURVE",
"327 605 CURVE SMOOTH",
"319 620 OFFCURVE",
"329 631 OFFCURVE",
"322 644 CURVE",
"274 676 OFFCURVE",
"206 647 OFFCURVE",
"140 648 CURVE",
"122 628 OFFCURVE",
"145 619 OFFCURVE",
"145 602 CURVE",
"168 599 OFFCURVE",
"187 600 OFFCURVE",
"202 598 CURVE",
"204 551 OFFCURVE",
"206 503 OFFCURVE",
"209 454 CURVE SMOOTH",
"216 322 OFFCURVE",
"222 187 OFFCURVE",
"208 73 CURVE",
"177 65 OFFCURVE",
"142 43 OFFCURVE",
"152 9 CURVE",
"201 1 OFFCURVE",
"297 -14 OFFCURVE",
"325 24 CURVE",
"315 44 OFFCURVE",
"289 45 OFFCURVE",
"272 58 CURVE",
"269 167 OFFCURVE",
"267 323 OFFCURVE",
"262 454 CURVE SMOOTH",
"261 480 LINE SMOOTH",
"260 515 OFFCURVE",
"257 577 OFFCURVE",
"257 577 CURVE",
"275 537 OFFCURVE",
"292 496 OFFCURVE",
"309 454 CURVE SMOOTH",
"367 311 OFFCURVE",
"421 163 OFFCURVE",
"485 26 CURVE",
"536 15 OFFCURVE",
"538 72 OFFCURVE",
"547 101 CURVE SMOOTH",
"557 133 OFFCURVE",
"572 172 OFFCURVE",
"583 200 CURVE SMOOTH",
"615 281 OFFCURVE",
"651 372 OFFCURVE",
"685 453 CURVE SMOOTH",
"695 477 OFFCURVE",
"705 500 OFFCURVE",
"715 522 CURVE",
"717 569 OFFCURVE",
"733 606 OFFCURVE",
"733 606 CURVE",
"733 555 OFFCURVE",
"733 504 OFFCURVE",
"734 453 CURVE SMOOTH",
"735 324 OFFCURVE",
"738 196 OFFCURVE",
"738 73 CURVE",
"723 64 OFFCURVE",
"701 57 OFFCURVE",
"687 57 CURVE",
"687 37 OFFCURVE",
"667 39 OFFCURVE",
"672 20 CURVE",
"714 -8 OFFCURVE",
"851 -4 OFFCURVE",
"882 37 CURVE"
);
}
);
vertWidth = 1000;
width = 1000;
}
);
note = cid00802;
unicode = FF2D;
},
{
glyphname = N.full;
lastChange = "2020-12-04 07:33:56 +0000";
layers = (
{
hints = (
{
horizontal = 1;
place = "{608, 54}";
type = Stem;
},
{
place = "{196, 12}";
type = Stem;
},
{
place = "{268, 44}";
type = Stem;
},
{
place = "{699, 48}";
type = Stem;
},
{
horizontal = 1;
place = "{602, 53}";
type = Stem;
}
);
layerId = "96B4F23F-F25B-4934-A27A-69E4A96ADD36";
paths = (
{
closed = 1;
nodes = (
"821 653 OFFCURVE",
"762 663 OFFCURVE",
"710 662 CURVE SMOOTH",
"664 661 OFFCURVE",
"624 651 OFFCURVE",
"626 629 CURVE SMOOTH",
"628 602 OFFCURVE",
"662 613 OFFCURVE",
"688 603 CURVE",
"693 553 OFFCURVE",
"696 502 OFFCURVE",
"697 453 CURVE SMOOTH",
"700 351 OFFCURVE",
"698 250 OFFCURVE",
"701 148 CURVE",
"630 248 OFFCURVE",
"557 351 OFFCURVE",
"485 454 CURVE SMOOTH",
"447 509 OFFCURVE",
"409 564 OFFCURVE",
"372 619 CURVE",
"372 630 OFFCURVE",
"389 625 OFFCURVE",
"388 638 CURVE",
"334 662 OFFCURVE",
"271 652 OFFCURVE",
"208 655 CURVE",
"189 634 OFFCURVE",
"194 617 OFFCURVE",
"208 608 CURVE SMOOTH",
"220 601 OFFCURVE",
"239 599 OFFCURVE",
"255 605 CURVE",
"256 554 OFFCURVE",
"258 504 OFFCURVE",
"260 454 CURVE SMOOTH",
"266 317 OFFCURVE",
"275 185 OFFCURVE",
"261 68 CURVE",
"242 63 OFFCURVE",
"223 58 OFFCURVE",
"206 52 CURVE",
"206 36 OFFCURVE",
"186 29 OFFCURVE",
"200 12 CURVE",
"241 -12 OFFCURVE",
"300 21 OFFCURVE",
"351 2 CURVE",
"359 14 OFFCURVE",
"381 15 OFFCURVE",
"386 31 CURVE",
"372 51 OFFCURVE",
"330 52 OFFCURVE",
"320 80 CURVE SMOOTH",
"303 126 OFFCURVE",
"317 216 OFFCURVE",
"316 290 CURVE SMOOTH",
"315 354 OFFCURVE",
"313 405 OFFCURVE",
"313 454 CURVE SMOOTH",
"313 491 OFFCURVE",
"314 526 OFFCURVE",
"316 566 CURVE",
"342 533 OFFCURVE",
"369 495 OFFCURVE",
"395 454 CURVE SMOOTH",
"461 352 OFFCURVE",
"527 235 OFFCURVE",
"599 150 CURVE SMOOTH",
"638 105 OFFCURVE",
"663 53 OFFCURVE",
"695 15 CURVE SMOOTH",
"707 0 OFFCURVE",
"746 3 OFFCURVE",
"761 24 CURVE",
"743 145 OFFCURVE",
"751 308 OFFCURVE",
"747 453 CURVE SMOOTH",
"746 493 OFFCURVE",
"744 532 OFFCURVE",
"740 568 CURVE",
"759 580 OFFCURVE",
"750 603 OFFCURVE",
"767 608 CURVE",
"798 608 OFFCURVE",
"829 609 OFFCURVE",
"830 637 CURVE"
);
}
);
vertWidth = 1000;
width = 1000;
}
);
note = cid00803;
unicode = FF2E;
},
{
glyphname = O.full;
lastChange = "2020-12-04 07:33:56 +0000";
layers = (
{
hints = (
{
horizontal = 1;
place = "{-13, 49}";
type = Stem;
},
{
horizontal = 1;
place = "{629, 47}";
type = Stem;
},
{
place = "{204, 92}";
type = Stem;
},
{
place = "{723, 83}";
type = Stem;
}
);
layerId = "96B4F23F-F25B-4934-A27A-69E4A96ADD36";
paths = (
{
closed = 1;
nodes = (
"809 331 OFFCURVE",
"801 387 OFFCURVE",
"798 437 CURVE",
"795 442 OFFCURVE",
"792 447 OFFCURVE",
"790 453 CURVE SMOOTH",
"776 488 OFFCURVE",
"770 539 OFFCURVE",
"735 559 CURVE",
"731 570 OFFCURVE",
"731 584 OFFCURVE",
"732 600 CURVE",
"718 607 OFFCURVE",
"714 598 OFFCURVE",
"695 600 CURVE",
"659 672 OFFCURVE",
"511 685 OFFCURVE",
"438 670 CURVE",
"434 663 LINE",
"393 674 OFFCURVE",
"365 647 OFFCURVE",
"344 625 CURVE",
"283 597 OFFCURVE",
"240 531 OFFCURVE",
"219 454 CURVE SMOOTH",
"207 411 OFFCURVE",
"202 364 OFFCURVE",
"204 319 CURVE SMOOTH",
"209 219 OFFCURVE",
"247 140 OFFCURVE",
"299 81 CURVE SMOOTH",
"308 71 OFFCURVE",
"327 71 OFFCURVE",
"327 52 CURVE",
"381 25 OFFCURVE",
"437 -13 OFFCURVE",
"507 -13 CURVE SMOOTH",
"581 -13 OFFCURVE",
"643 27 OFFCURVE",
"699 57 CURVE",
"711 77 OFFCURVE",
"728 100 OFFCURVE",
"741 98 CURVE",
"758 166 OFFCURVE",
"802 212 OFFCURVE",
"806 286 CURVE SMOOTH"
);
},
{
closed = 1;
nodes = (
"733 352 OFFCURVE",
"723 244 OFFCURVE",
"685 163 CURVE SMOOTH",
"651 90 OFFCURVE",
"594 39 OFFCURVE",
"515 36 CURVE SMOOTH",
"449 33 OFFCURVE",
"398 62 OFFCURVE",
"362 109 CURVE SMOOTH",
"317 168 OFFCURVE",
"295 254 OFFCURVE",
"296 340 CURVE SMOOTH",
"296 379 OFFCURVE",
"302 418 OFFCURVE",
"311 454 CURVE SMOOTH",
"324 505 OFFCURVE",
"346 551 OFFCURVE",
"377 584 CURVE",
"446 632 OFFCURVE",
"589 656 OFFCURVE",
"651 588 CURVE SMOOTH",
"668 570 OFFCURVE",
"701 501 OFFCURVE",
"708 470 CURVE SMOOTH",
"709 464 OFFCURVE",
"711 459 OFFCURVE",
"712 453 CURVE SMOOTH"
);
}
);
vertWidth = 1000;
width = 1000;
}
);
note = cid00804;
unicode = FF2F;
},
{
glyphname = P.full;
lastChange = "2020-12-04 07:33:56 +0000";
layers = (
{
hints = (
{
horizontal = 1;
place = "{3, 44}";
type = Stem;
},
{
horizontal = 1;
place = "{272, 49}";
type = Stem;
},
{
horizontal = 1;
place = "{607, 47}";
type = Stem;
},
{
place = "{349, 71}";
type = Stem;
},
{
place = "{662, 83}";
type = Stem;
}
);
layerId = "96B4F23F-F25B-4934-A27A-69E4A96ADD36";
paths = (
{
closed = 1;
nodes = (
"748 477 OFFCURVE",
"747 503 OFFCURVE",
"741 527 CURVE SMOOTH",
"729 578 OFFCURVE",
"663 642 OFFCURVE",
"615 654 CURVE SMOOTH",
"557 668 OFFCURVE",
"495 655 OFFCURVE",
"427 654 CURVE SMOOTH",
"391 654 OFFCURVE",
"350 659 OFFCURVE",
"319 656 CURVE SMOOTH",
"286 653 OFFCURVE",
"265 640 OFFCURVE",
"272 608 CURVE",
"290 599 OFFCURVE",
"322 598 OFFCURVE",
"345 598 CURVE",
"348 550 OFFCURVE",
"348 502 OFFCURVE",
"349 454 CURVE SMOOTH",
"351 327 OFFCURVE",
"348 201 OFFCURVE",
"352 79 CURVE",
"337 58 OFFCURVE",
"319 45 OFFCURVE",
"290 47 CURVE",
"290 30 OFFCURVE",
"272 26 OFFCURVE",
"282 3 CURVE",
"317 9 OFFCURVE",
"372 2 OFFCURVE",
"419 3 CURVE SMOOTH",
"460 4 OFFCURVE",
"496 10 OFFCURVE",
"511 35 CURVE",
"481 55 OFFCURVE",
"437 48 OFFCURVE",
"425 84 CURVE SMOOTH",
"412 122 OFFCURVE",
"425 245 OFFCURVE",
"425 272 CURVE",
"473 266 OFFCURVE",
"549 285 OFFCURVE",
"613 287 CURVE",
"654 312 OFFCURVE",
"688 341 OFFCURVE",
"724 370 CURVE",
"734 397 OFFCURVE",
"742 424 OFFCURVE",
"745 453 CURVE SMOOTH"
);
},
{
closed = 1;
nodes = (
"660 440 OFFCURVE",
"657 428 OFFCURVE",
"652 416 CURVE SMOOTH",
"633 368 OFFCURVE",
"594 328 OFFCURVE",
"537 321 CURVE SMOOTH",
"498 316 OFFCURVE",
"446 316 OFFCURVE",
"424 314 CURVE",
"420 358 OFFCURVE",
"421 407 OFFCURVE",
"422 454 CURVE SMOOTH",
"423 494 OFFCURVE",
"423 534 OFFCURVE",
"417 568 CURVE",
"423 581 OFFCURVE",
"428 595 OFFCURVE",
"428 611 CURVE",
"431 612 OFFCURVE",
"435 609 OFFCURVE",
"435 607 CURVE",
"498 607 OFFCURVE",
"585 616 OFFCURVE",
"623 584 CURVE SMOOTH",
"659 554 OFFCURVE",
"670 502 OFFCURVE",
"662 453 CURVE SMOOTH"
);
}
);
vertWidth = 1000;
width = 1000;
}
);
note = cid00805;
unicode = FF30;
},
{
glyphname = Q.full;
lastChange = "2020-12-04 07:33:56 +0000";
layers = (
{
hints = (
{
horizontal = 1;
place = "{-67, 66}";
type = Stem;
},
{
horizontal = 1;
place = "{154, 57}";
type = Stem;
},
{
horizontal = 1;
place = "{638, 44}";
type = Stem;
},
{
place = "{190, 89}";
type = Stem;
},
{
place = "{700, 95}";
type = Stem;
},
{
horizontal = 1;
place = "{-6, 37}";
type = Stem;
}
);
layerId = "96B4F23F-F25B-4934-A27A-69E4A96ADD36";
paths = (
{
closed = 1;
nodes = (
"767 -9 OFFCURVE",
"690 -9 OFFCURVE",
"666 46 CURVE",
"720 92 OFFCURVE",
"777 189 OFFCURVE",
"791 280 CURVE SMOOTH",
"800 341 OFFCURVE",
"795 400 OFFCURVE",
"779 453 CURVE SMOOTH",
"755 534 OFFCURVE",
"706 602 OFFCURVE",
"652 639 CURVE SMOOTH",
"536 719 OFFCURVE",
"347 683 OFFCURVE",
"263 575 CURVE SMOOTH",
"237 542 OFFCURVE",
"218 501 OFFCURVE",
"205 454 CURVE SMOOTH",
"197 424 OFFCURVE",
"192 392 OFFCURVE",
"190 358 CURVE SMOOTH",
"182 217 OFFCURVE",
"234 118 OFFCURVE",
"312 42 CURVE",
"343 47 OFFCURVE",
"344 22 OFFCURVE",
"362 15 CURVE",
"452 -7 OFFCURVE",
"507 -14 OFFCURVE",
"603 6 CURVE",
"629 -29 OFFCURVE",
"677 -67 OFFCURVE",
"738 -67 CURVE SMOOTH",
"780 -67 OFFCURVE",
"815 -47 OFFCURVE",
"819 10 CURVE"
);
},
{
closed = 1;
nodes = (
"700 228 OFFCURVE",
"685 125 OFFCURVE",
"623 88 CURVE",
"584 136 OFFCURVE",
"536 215 OFFCURVE",
"452 211 CURVE SMOOTH",
"398 208 OFFCURVE",
"361 168 OFFCURVE",
"333 125 CURVE",
"270 179 OFFCURVE",
"271 337 OFFCURVE",
"292 435 CURVE SMOOTH",
"293 441 OFFCURVE",
"295 448 OFFCURVE",
"297 454 CURVE SMOOTH",
"309 494 OFFCURVE",
"331 533 OFFCURVE",
"353 558 CURVE SMOOTH",
"394 605 OFFCURVE",
"494 661 OFFCURVE",
"573 628 CURVE SMOOTH",
"625 606 OFFCURVE",
"663 536 OFFCURVE",
"683 453 CURVE SMOOTH",
"694 409 OFFCURVE",
"700 362 OFFCURVE",
"700 317 CURVE SMOOTH"
);
},
{
closed = 1;
nodes = (
"554 38 OFFCURVE",
"518 31 OFFCURVE",
"482 31 CURVE SMOOTH",
"430 31 OFFCURVE",
"377 48 OFFCURVE",
"373 84 CURVE SMOOTH",
"368 126 OFFCURVE",
"436 172 OFFCURVE",
"489 147 CURVE SMOOTH",
"531 128 OFFCURVE",
"551 77 OFFCURVE",
"573 54 CURVE"
);
}
);
vertWidth = 1000;
width = 1000;
}
);
note = cid00806;
unicode = FF31;
},
{
glyphname = R.full;
lastChange = "2020-12-04 07:33:56 +0000";
layers = (
{
hints = (
{
horizontal = 1;
place = "{304, 38}";
type = Stem;
},
{
horizontal = 1;
place = "{611, 45}";
type = Stem;
},
{
place = "{329, 71}";
type = Stem;
},
{
place = "{637, 91}";
type = Stem;
}
);
layerId = "96B4F23F-F25B-4934-A27A-69E4A96ADD36";
paths = (
{
closed = 1;
nodes = (
"822 58 OFFCURVE",
"766 64 OFFCURVE",
"738 81 CURVE",
"697 176 OFFCURVE",
"664 278 OFFCURVE",
"580 329 CURVE",
"639 335 OFFCURVE",
"655 383 OFFCURVE",
"701 402 CURVE",
"705 421 OFFCURVE",
"712 437 OFFCURVE",
"720 453 CURVE SMOOTH",
"723 459 OFFCURVE",
"726 464 OFFCURVE",
"728 470 CURVE",
"734 540 OFFCURVE",
"714 584 OFFCURVE",
"678 612 CURVE SMOOTH",
"614 661 OFFCURVE",
"500 660 OFFCURVE",
"387 653 CURVE SMOOTH",
"338 650 OFFCURVE",
"281 659 OFFCURVE",
"244 639 CURVE",
"238 628 OFFCURVE",
"251 624 OFFCURVE",
"249 611 CURVE",
"268 594 OFFCURVE",
"294 611 OFFCURVE",
"319 601 CURVE",
"322 454 LINE SMOOTH",
"325 329 OFFCURVE",
"326 213 OFFCURVE",
"329 81 CURVE",
"322 65 OFFCURVE",
"301 59 OFFCURVE",
"284 50 CURVE SMOOTH",
"266 41 OFFCURVE",
"252 29 OFFCURVE",
"263 1 CURVE",
"287 10 OFFCURVE",
"337 6 OFFCURVE",
"384 6 CURVE SMOOTH",
"427 6 OFFCURVE",
"468 8 OFFCURVE",
"484 29 CURVE",
"467 55 OFFCURVE",
"414 46 OFFCURVE",
"400 75 CURVE",
"409 151 OFFCURVE",
"394 226 OFFCURVE",
"400 304 CURVE",
"424 301 OFFCURVE",
"466 308 OFFCURVE",
"502 303 CURVE SMOOTH",
"550 296 OFFCURVE",
"578 263 OFFCURVE",
"599 217 CURVE SMOOTH",
"630 149 OFFCURVE",
"646 60 OFFCURVE",
"687 13 CURVE",
"725 3 OFFCURVE",
"762 -4 OFFCURVE",
"806 8 CURVE"
);
},
{
closed = 1;
nodes = (
"637 479 OFFCURVE",
"635 465 OFFCURVE",
"632 453 CURVE SMOOTH",
"624 424 OFFCURVE",
"607 399 OFFCURVE",
"582 379 CURVE SMOOTH",
"539 345 OFFCURVE",
"464 335 OFFCURVE",
"400 346 CURVE",
"395 382 OFFCURVE",
"395 419 OFFCURVE",
"397 454 CURVE SMOOTH",
"398 478 OFFCURVE",
"400 502 OFFCURVE",
"400 524 CURVE SMOOTH",
"400 556 OFFCURVE",
"390 594 OFFCURVE",
"406 611 CURVE",
"486 612 OFFCURVE",
"550 621 OFFCURVE",
"608 590 CURVE",
"628 556 OFFCURVE",
"637 523 OFFCURVE",
"637 492 CURVE SMOOTH"
);
}
);
vertWidth = 1000;
width = 1000;
}
);
note = cid00807;
unicode = FF32;
},
{
glyphname = S.full;
lastChange = "2020-12-04 07:33:56 +0000";
layers = (
{
hints = (
{
horizontal = 1;
place = "{-6, 39}";
type = Stem;
},
{
horizontal = 1;
place = "{627, 42}";
type = Stem;
},
{
place = "{308, 65}";
type = Stem;
},
{
place = "{637, 75}";
type = Stem;
},
{
place = "{629, 57}";
type = Stem;
},
{
place = "{297, 22}";
type = Stem;
}
);
layerId = "96B4F23F-F25B-4934-A27A-69E4A96ADD36";
paths = (
{
closed = 1;
nodes = (
"731 228 OFFCURVE",
"684 287 OFFCURVE",
"619 331 CURVE SMOOTH",
"548 379 OFFCURVE",
"456 409 OFFCURVE",
"409 454 CURVE SMOOTH",
"407 456 OFFCURVE",
"405 458 OFFCURVE",
"403 460 CURVE SMOOTH",
"392 471 OFFCURVE",
"379 491 OFFCURVE",
"376 506 CURVE SMOOTH",
"368 544 OFFCURVE",
"377 572 OFFCURVE",
"396 592 CURVE SMOOTH",
"419 616 OFFCURVE",
"456 627 OFFCURVE",
"496 627 CURVE SMOOTH",
"546 627 OFFCURVE",
"598 611 OFFCURVE",
"629 583 CURVE",
"629 538 OFFCURVE",
"628 493 OFFCURVE",
"670 490 CURVE",
"689 524 OFFCURVE",
"690 621 OFFCURVE",
"678 669 CURVE",
"652 685 OFFCURVE",
"649 656 OFFCURVE",
"634 649 CURVE",
"546 686 OFFCURVE",
"429 668 OFFCURVE",
"351 633 CURVE",
"322 599 OFFCURVE",
"308 556 OFFCURVE",
"308 514 CURVE SMOOTH",
"308 493 OFFCURVE",
"310 473 OFFCURVE",
"316 454 CURVE SMOOTH",
"327 416 OFFCURVE",
"349 383 OFFCURVE",
"380 363 CURVE SMOOTH",
"394 354 OFFCURVE",
"417 349 OFFCURVE",
"436 338 CURVE SMOOTH",
"453 328 OFFCURVE",
"466 311 OFFCURVE",
"483 301 CURVE SMOOTH",
"527 275 OFFCURVE",
"575 262 OFFCURVE",
"606 233 CURVE SMOOTH",
"631 210 OFFCURVE",
"645 178 OFFCURVE",
"637 121 CURVE",
"622 71 OFFCURVE",
"549 34 OFFCURVE",
"483 33 CURVE SMOOTH",
"448 33 OFFCURVE",
"414 42 OFFCURVE",
"392 65 CURVE SMOOTH",
"370 87 OFFCURVE",
"368 118 OFFCURVE",
"362 147 CURVE SMOOTH",
"356 175 OFFCURVE",
"349 200 OFFCURVE",
"319 211 CURVE",
"295 166 OFFCURVE",
"285 38 OFFCURVE",
"314 -9 CURVE",
"350 -37 OFFCURVE",
"353 10 OFFCURVE",
"387 16 CURVE",
"456 -11 OFFCURVE",
"527 -12 OFFCURVE",
"586 8 CURVE SMOOTH",
"645 28 OFFCURVE",
"691 71 OFFCURVE",
"706 130 CURVE SMOOTH"
);
}
);
vertWidth = 1000;
width = 1000;
}
);
note = cid00808;
unicode = FF33;
},
{
glyphname = T.full;
lastChange = "2020-12-04 07:33:56 +0000";
layers = (
{
hints = (
{
horizontal = 1;
place = "{598, 57}";
type = Stem;
},
{
place = "{453, 79}";
type = Stem;
},
{
place = "{754, 15}";
type = Stem;
},
{
horizontal = 1;
place = "{3, 65}";
type = Stem;
},
{
horizontal = 1;
place = "{601, 48}";
type = Stem;
}
);
layerId = "96B4F23F-F25B-4934-A27A-69E4A96ADD36";
paths = (
{
closed = 1;
nodes = (
"722 673 OFFCURVE",
"618 649 OFFCURVE",
"525 649 CURVE SMOOTH",
"434 649 OFFCURVE",
"316 656 OFFCURVE",
"232 641 CURVE",
"215 597 OFFCURVE",
"221 530 OFFCURVE",
"213 476 CURVE",
"225 470 OFFCURVE",
"228 455 OFFCURVE",
"248 457 CURVE",
"281 478 OFFCURVE",
"270 543 OFFCURVE",
"280 587 CURVE",
"324 594 OFFCURVE",
"392 608 OFFCURVE",
"450 598 CURVE",
"452 549 OFFCURVE",
"453 502 OFFCURVE",
"453 454 CURVE SMOOTH",
"454 334 OFFCURVE",
"452 216 OFFCURVE",
"454 92 CURVE",
"442 68 OFFCURVE",
"406 47 OFFCURVE",
"384 57 CURVE",
"378 48 OFFCURVE",
"368 39 OFFCURVE",
"368 28 CURVE SMOOTH",
"369 -8 OFFCURVE",
"413 6 OFFCURVE",
"443 6 CURVE SMOOTH",
"499 7 OFFCURVE",
"598 -9 OFFCURVE",
"612 25 CURVE",
"602 56 OFFCURVE",
"554 49 OFFCURVE",
"533 68 CURVE",
"528 194 OFFCURVE",
"531 327 OFFCURVE",
"532 454 CURVE SMOOTH",
"533 503 OFFCURVE",
"533 551 OFFCURVE",
"533 598 CURVE",
"581 602 OFFCURVE",
"653 599 OFFCURVE",
"697 587 CURVE",
"708 565 OFFCURVE",
"708 531 OFFCURVE",
"714 503 CURVE SMOOTH",
"719 479 OFFCURVE",
"729 460 OFFCURVE",
"754 457 CURVE",
"774 479 OFFCURVE",
"769 514 OFFCURVE",
"766 547 CURVE SMOOTH",
"763 575 OFFCURVE",
"762 603 OFFCURVE",
"777 622 CURVE"
);
}
);
vertWidth = 1000;
width = 1000;
}
);
note = cid00809;
unicode = FF34;
},
{
glyphname = U.full;
lastChange = "2020-12-04 07:33:56 +0000";
layers = (
{
hints = (
{
horizontal = 1;
place = "{-13, 52}";
type = Stem;
},
{
horizontal = 1;
place = "{641, 19}";
type = Stem;
},
{
place = "{265, 77}";
type = Stem;
},
{
place = "{692, 49}";
type = Stem;
},
{
horizontal = 1;
place = "{602, 53}";
type = Stem;
},
{
place = "{696, 42}";
type = Stem;
}
);
layerId = "96B4F23F-F25B-4934-A27A-69E4A96ADD36";
paths = (
{
closed = 1;
nodes = (
"794 665 OFFCURVE",
"669 672 OFFCURVE",
"622 641 CURVE",
"632 608 OFFCURVE",
"670 600 OFFCURVE",
"690 577 CURVE",
"689 539 OFFCURVE",
"690 496 OFFCURVE",
"692 453 CURVE SMOOTH",
"694 408 OFFCURVE",
"696 364 OFFCURVE",
"696 321 CURVE SMOOTH",
"696 204 OFFCURVE",
"681 99 OFFCURVE",
"603 58 CURVE SMOOTH",
"535 23 OFFCURVE",
"437 41 OFFCURVE",
"394 77 CURVE SMOOTH",
"352 112 OFFCURVE",
"342 195 OFFCURVE",
"342 285 CURVE SMOOTH",
"342 340 OFFCURVE",
"347 401 OFFCURVE",
"350 454 CURVE SMOOTH",
"351 473 OFFCURVE",
"352 490 OFFCURVE",
"352 506 CURVE SMOOTH",
"353 536 OFFCURVE",
"342 581 OFFCURVE",
"359 606 CURVE",
"383 600 OFFCURVE",
"409 601 OFFCURVE",
"430 609 CURVE",
"427 646 OFFCURVE",
"387 654 OFFCURVE",
"340 655 CURVE SMOOTH",
"295 656 OFFCURVE",
"243 650 OFFCURVE",
"211 657 CURVE",
"198 647 OFFCURVE",
"190 631 OFFCURVE",
"195 618 CURVE",
"215 608 OFFCURVE",
"251 606 OFFCURVE",
"269 606 CURVE",
"269 556 OFFCURVE",
"267 505 OFFCURVE",
"265 454 CURVE SMOOTH",
"263 378 OFFCURVE",
"261 302 OFFCURVE",
"266 231 CURVE SMOOTH",
"276 78 OFFCURVE",
"371 -13 OFFCURVE",
"525 -13 CURVE SMOOTH",
"567 -13 OFFCURVE",
"647 6 OFFCURVE",
"674 35 CURVE SMOOTH",
"688 49 OFFCURVE",
"705 86 OFFCURVE",
"718 113 CURVE SMOOTH",
"729 136 OFFCURVE",
"741 158 OFFCURVE",
"744 183 CURVE SMOOTH",
"748 219 OFFCURVE",
"738 256 OFFCURVE",
"738 286 CURVE SMOOTH",
"738 346 OFFCURVE",
"739 398 OFFCURVE",
"740 453 CURVE SMOOTH",
"741 493 OFFCURVE",
"741 533 OFFCURVE",
"741 577 CURVE",
"767 599 OFFCURVE",
"813 599 OFFCURVE",
"831 628 CURVE"
);
}
);
vertWidth = 1000;
width = 1000;
}
);
note = cid00810;
unicode = FF35;
},
{
glyphname = V.full;
lastChange = "2020-12-04 07:33:56 +0000";
layers = (
{
hints = (
{
horizontal = 1;
place = "{625, 33}";
type = Stem;
},
{
place = "{185, 14}";
type = Stem;
},
{
horizontal = 1;
place = "{596, 58}";
type = Stem;
}
);
layerId = "96B4F23F-F25B-4934-A27A-69E4A96ADD36";
paths = (
{
closed = 1;
nodes = (
"803 641 OFFCURVE",
"780 652 OFFCURVE",
"756 655 CURVE SMOOTH",
"701 661 OFFCURVE",
"601 664 OFFCURVE",
"596 625 CURVE",
"616 608 OFFCURVE",
"656 610 OFFCURVE",
"671 589 CURVE",
"662 542 OFFCURVE",
"651 497 OFFCURVE",
"638 453 CURVE SMOOTH",
"601 328 OFFCURVE",
"550 214 OFFCURVE",
"504 102 CURVE",
"474 220 OFFCURVE",
"427 338 OFFCURVE",
"391 454 CURVE SMOOTH",
"376 502 OFFCURVE",
"363 549 OFFCURVE",
"353 596 CURVE",
"372 599 OFFCURVE",
"406 611 OFFCURVE",
"430 623 CURVE",
"407 651 OFFCURVE",
"375 658 OFFCURVE",
"339 659 CURVE SMOOTH",
"296 660 OFFCURVE",
"247 651 OFFCURVE",
"199 654 CURVE",
"194 640 OFFCURVE",
"177 628 OFFCURVE",
"190 607 CURVE",
"212 599 OFFCURVE",
"233 615 OFFCURVE",
"257 607 CURVE",
"278 558 OFFCURVE",
"296 507 OFFCURVE",
"314 454 CURVE SMOOTH",
"365 301 OFFCURVE",
"408 135 OFFCURVE",
"466 -8 CURVE",
"482 -12 OFFCURVE",
"499 -22 OFFCURVE",
"517 -12 CURVE",
"529 2 OFFCURVE",
"536 21 OFFCURVE",
"549 34 CURVE",
"590 183 OFFCURVE",
"646 310 OFFCURVE",
"688 453 CURVE SMOOTH",
"697 484 OFFCURVE",
"705 516 OFFCURVE",
"713 549 CURVE",
"739 582 OFFCURVE",
"783 598 OFFCURVE",
"812 628 CURVE"
);
}
);
vertWidth = 1000;
width = 1000;
}
);
note = cid00811;
unicode = FF36;
},
{
glyphname = W.full;
lastChange = "2020-12-04 07:33:56 +0000";
layers = (
{
hints = (
{
horizontal = 1;
place = "{-2, 659}";
type = Stem;
},
{
place = "{88, 15}";
type = Stem;
}
);
layerId = "96B4F23F-F25B-4934-A27A-69E4A96ADD36";
paths = (
{
closed = 1;
nodes = (
"904 642 OFFCURVE",
"844 657 OFFCURVE",
"794 657 CURVE SMOOTH",
"756 657 OFFCURVE",
"723 648 OFFCURVE",
"721 624 CURVE",
"731 608 OFFCURVE",
"750 608 OFFCURVE",
"767 604 CURVE SMOOTH",
"780 601 OFFCURVE",
"791 594 OFFCURVE",
"795 576 CURVE SMOOTH",
"800 553 OFFCURVE",
"780 504 OFFCURVE",
"772 467 CURVE SMOOTH",
"769 453 LINE SMOOTH",
"746 347 OFFCURVE",
"704 234 OFFCURVE",
"673 159 CURVE",
"653 249 OFFCURVE",
"621 353 OFFCURVE",
"595 453 CURVE SMOOTH",
"579 515 OFFCURVE",
"565 576 OFFCURVE",
"556 631 CURVE",
"542 638 OFFCURVE",
"526 645 OFFCURVE",
"504 644 CURVE",
"480 584 OFFCURVE",
"460 520 OFFCURVE",
"442 454 CURVE SMOOTH",
"412 345 OFFCURVE",
"384 232 OFFCURVE",
"344 133 CURVE",
"314 235 OFFCURVE",
"293 347 OFFCURVE",
"268 454 CURVE SMOOTH",
"257 502 OFFCURVE",
"245 548 OFFCURVE",
"230 592 CURVE",
"250 598 OFFCURVE",
"290 605 OFFCURVE",
"312 620 CURVE",
"292 651 OFFCURVE",
"262 657 OFFCURVE",
"226 657 CURVE SMOOTH",
"189 657 OFFCURVE",
"146 649 OFFCURVE",
"103 655 CURVE",
"91 648 OFFCURVE",
"79 636 OFFCURVE",
"96 612 CURVE",
"123 599 OFFCURVE",
"139 615 OFFCURVE",
"170 608 CURVE",
"167 598 OFFCURVE",
"166 587 OFFCURVE",
"167 573 CURVE",
"178 535 OFFCURVE",
"187 495 OFFCURVE",
"196 454 CURVE SMOOTH",
"208 397 OFFCURVE",
"218 338 OFFCURVE",
"230 281 CURVE SMOOTH",
"250 184 OFFCURVE",
"270 86 OFFCURVE",
"304 2 CURVE",
"317 1 OFFCURVE",
"336 -7 OFFCURVE",
"347 2 CURVE",
"352 36 OFFCURVE",
"368 58 OFFCURVE",
"387 77 CURVE",
"393 193 OFFCURVE",
"459 263 OFFCURVE",
"461 371 CURVE",
"481 391 OFFCURVE",
"485 423 OFFCURVE",
"490 454 CURVE SMOOTH",
"494 478 OFFCURVE",
"499 503 OFFCURVE",
"513 522 CURVE",
"517 501 OFFCURVE",
"522 477 OFFCURVE",
"528 453 CURVE SMOOTH",
"553 350 OFFCURVE",
"591 223 OFFCURVE",
"615 128 CURVE SMOOTH",
"622 101 OFFCURVE",
"627 45 OFFCURVE",
"644 19 CURVE SMOOTH",
"655 2 OFFCURVE",
"669 -3 OFFCURVE",
"693 18 CURVE",
"688 65 OFFCURVE",
"719 99 OFFCURVE",
"733 140 CURVE SMOOTH",
"745 176 OFFCURVE",
"743 218 OFFCURVE",
"753 258 CURVE SMOOTH",
"756 270 OFFCURVE",
"768 282 OFFCURVE",
"772 294 CURVE SMOOTH",
"782 324 OFFCURVE",
"790 361 OFFCURVE",
"799 393 CURVE SMOOTH",
"805 414 OFFCURVE",
"810 434 OFFCURVE",
"816 453 CURVE SMOOTH",
"824 480 OFFCURVE",
"831 507 OFFCURVE",
"834 538 CURVE",
"856 544 OFFCURVE",
"855 573 OFFCURVE",
"866 589 CURVE",
"890 597 OFFCURVE",
"906 611 OFFCURVE",
"921 628 CURVE"
);
}
);
vertWidth = 1000;
width = 1000;
}
);
note = cid00812;
unicode = FF37;
},
{
glyphname = X.full;
lastChange = "2020-12-04 07:33:56 +0000";
layers = (
{
hints = (
{
horizontal = 1;
place = "{4, 69}";
type = Stem;
},
{
horizontal = 1;
place = "{606, 51}";
type = Stem;
},
{
place = "{198, 614}";
type = Stem;
}
);
layerId = "96B4F23F-F25B-4934-A27A-69E4A96ADD36";
paths = (
{
closed = 1;
nodes = (
"795 656 OFFCURVE",
"766 661 OFFCURVE",
"732 661 CURVE SMOOTH",
"692 661 OFFCURVE",
"646 653 OFFCURVE",
"604 658 CURVE",
"599 642 OFFCURVE",
"580 640 OFFCURVE",
"584 615 CURVE",
"609 601 OFFCURVE",
"642 610 OFFCURVE",
"667 603 CURVE",
"637 551 OFFCURVE",
"596 503 OFFCURVE",
"559 454 CURVE SMOOTH",
"553 446 LINE SMOOTH",
"546 436 OFFCURVE",
"515 398 OFFCURVE",
"510 399 CURVE SMOOTH",
"502 400 OFFCURVE",
"483 441 OFFCURVE",
"478 449 CURVE SMOOTH",
"475 454 LINE SMOOTH",
"443 508 OFFCURVE",
"401 550 OFFCURVE",
"376 599 CURVE",
"400 608 OFFCURVE",
"433 607 OFFCURVE",
"451 622 CURVE",
"441 655 OFFCURVE",
"411 662 OFFCURVE",
"374 662 CURVE SMOOTH",
"326 662 OFFCURVE",
"267 650 OFFCURVE",
"227 662 CURVE",
"221 648 OFFCURVE",
"212 638 OFFCURVE",
"211 619 CURVE",
"231 611 OFFCURVE",
"253 606 OFFCURVE",
"281 606 CURVE",
"274 593 OFFCURVE",
"286 587 OFFCURVE",
"286 579 CURVE",
"326 543 OFFCURVE",
"357 500 OFFCURVE",
"386 454 CURVE SMOOTH",
"411 414 OFFCURVE",
"434 373 OFFCURVE",
"458 332 CURVE",
"406 271 OFFCURVE",
"370 194 OFFCURVE",
"316 134 CURVE SMOOTH",
"287 101 OFFCURVE",
"252 74 OFFCURVE",
"207 57 CURVE",
"202 41 OFFCURVE",
"196 26 OFFCURVE",
"199 2 CURVE",
"247 18 OFFCURVE",
"337 -4 OFFCURVE",
"407 6 CURVE",
"406 18 OFFCURVE",
"418 19 OFFCURVE",
"415 33 CURVE",
"403 46 OFFCURVE",
"383 50 OFFCURVE",
"365 54 CURVE SMOOTH",
"348 58 OFFCURVE",
"333 63 OFFCURVE",
"333 80 CURVE SMOOTH",
"333 94 OFFCURVE",
"352 105 OFFCURVE",
"360 115 CURVE SMOOTH",
"405 174 OFFCURVE",
"455 236 OFFCURVE",
"498 285 CURVE",
"545 215 OFFCURVE",
"596 151 OFFCURVE",
"635 73 CURVE",
"625 56 OFFCURVE",
"600 52 OFFCURVE",
"577 48 CURVE",
"563 41 OFFCURVE",
"565 21 OFFCURVE",
"569 9 CURVE",
"589 5 OFFCURVE",
"598 -7 OFFCURVE",
"619 -10 CURVE",
"648 17 OFFCURVE",
"708 -3 OFFCURVE",
"753 -3 CURVE SMOOTH",
"777 -3 OFFCURVE",
"797 3 OFFCURVE",
"805 25 CURVE",
"776 36 OFFCURVE",
"749 60 OFFCURVE",
"725 64 CURVE",
"688 181 OFFCURVE",
"599 245 OFFCURVE",
"548 348 CURVE",
"572 383 OFFCURVE",
"597 418 OFFCURVE",
"622 453 CURVE SMOOTH",
"660 505 OFFCURVE",
"698 556 OFFCURVE",
"741 603 CURVE",
"763 615 OFFCURVE",
"805 607 OFFCURVE",
"812 634 CURVE"
);
}
);
vertWidth = 1000;
width = 1000;
}
);
note = cid00813;
unicode = FF38;
},
{
glyphname = Y.full;
lastChange = "2020-12-04 07:33:56 +0000";
layers = (
{
hints = (
{
horizontal = 1;
place = "{9, 56}";
type = Stem;
},
{
horizontal = 1;
place = "{621, 39}";
type = Stem;
},
{
place = "{606, 12}";
type = Stem;
},
{
horizontal = 1;
place = "{611, 49}";
type = Stem;
}
);
layerId = "96B4F23F-F25B-4934-A27A-69E4A96ADD36";
paths = (
{
closed = 1;
nodes = (
"808 651 OFFCURVE",
"777 660 OFFCURVE",
"738 660 CURVE SMOOTH",
"696 660 OFFCURVE",
"645 651 OFFCURVE",
"602 656 CURVE",
"584 646 OFFCURVE",
"577 612 OFFCURVE",
"597 602 CURVE",
"623 603 OFFCURVE",
"660 608 OFFCURVE",
"677 606 CURVE",
"645 554 OFFCURVE",
"610 504 OFFCURVE",
"575 454 CURVE SMOOTH",
"555 426 OFFCURVE",
"536 398 OFFCURVE",
"516 370 CURVE",
"496 397 OFFCURVE",
"474 426 OFFCURVE",
"452 454 CURVE SMOOTH",
"413 505 OFFCURVE",
"376 556 OFFCURVE",
"350 606 CURVE",
"381 606 OFFCURVE",
"411 608 OFFCURVE",
"430 621 CURVE",
"421 653 OFFCURVE",
"388 661 OFFCURVE",
"347 660 CURVE SMOOTH",
"303 659 OFFCURVE",
"249 649 OFFCURVE",
"208 656 CURVE",
"200 648 OFFCURVE",
"188 643 OFFCURVE",
"193 621 CURVE",
"199 620 OFFCURVE",
"199 614 OFFCURVE",
"202 611 CURVE",
"226 605 OFFCURVE",
"244 610 OFFCURVE",
"263 606 CURVE",
"268 601 OFFCURVE",
"269 589 OFFCURVE",
"269 579 CURVE",
"276 573 OFFCURVE",
"289 573 OFFCURVE",
"292 563 CURVE",
"315 528 OFFCURVE",
"338 491 OFFCURVE",
"362 454 CURVE SMOOTH",
"379 428 OFFCURVE",
"396 402 OFFCURVE",
"414 378 CURVE SMOOTH",
"434 352 OFFCURVE",
"458 325 OFFCURVE",
"462 299 CURVE SMOOTH",
"469 253 OFFCURVE",
"461 121 OFFCURVE",
"462 87 CURVE",
"439 59 OFFCURVE",
"382 63 OFFCURVE",
"385 9 CURVE",
"462 -3 OFFCURVE",
"535 9 OFFCURVE",
"606 1 CURVE",
"627 18 OFFCURVE",
"617 35 OFFCURVE",
"601 44 CURVE SMOOTH",
"586 52 OFFCURVE",
"567 58 OFFCURVE",
"555 71 CURVE",
"552 64 OFFCURVE",
"544 63 OFFCURVE",
"539 68 CURVE",
"527 129 OFFCURVE",
"541 240 OFFCURVE",
"531 303 CURVE",
"545 315 OFFCURVE",
"564 339 OFFCURVE",
"578 362 CURVE SMOOTH",
"591 383 OFFCURVE",
"610 398 OFFCURVE",
"626 421 CURVE SMOOTH",
"633 431 OFFCURVE",
"640 442 OFFCURVE",
"646 453 CURVE SMOOTH",
"669 494 OFFCURVE",
"690 539 OFFCURVE",
"719 571 CURVE SMOOTH",
"743 597 OFFCURVE",
"773 615 OFFCURVE",
"818 618 CURVE"
);
}
);
vertWidth = 1000;
width = 1000;
}
);
note = cid00814;
unicode = FF39;
},
{
glyphname = Z.full;
lastChange = "2020-12-04 07:33:56 +0000";
layers = (
{
hints = (
{
horizontal = 1;
place = "{12, 54}";
type = Stem;
},
{
horizontal = 1;
place = "{614, 49}";
type = Stem;
},
{
place = "{272, 52}";
type = Stem;
},
{
place = "{709, 14}";
type = Stem;
}
);
layerId = "96B4F23F-F25B-4934-A27A-69E4A96ADD36";
paths = (
{
closed = 1;
nodes = (
"733 649 OFFCURVE",
"713 661 OFFCURVE",
"693 663 CURVE SMOOTH",
"571 674 OFFCURVE",
"376 645 OFFCURVE",
"285 651 CURVE",
"281 611 OFFCURVE",
"254 499 OFFCURVE",
"293 464 CURVE",
"318 471 OFFCURVE",
"322 498 OFFCURVE",
"324 527 CURVE SMOOTH",
"326 554 OFFCURVE",
"327 583 OFFCURVE",
"340 600 CURVE",
"418 621 OFFCURVE",
"520 614 OFFCURVE",
"607 605 CURVE",
"575 556 OFFCURVE",
"541 506 OFFCURVE",
"506 454 CURVE SMOOTH",
"433 345 OFFCURVE",
"357 231 OFFCURVE",
"289 121 CURVE SMOOTH",
"261 76 OFFCURVE",
"221 53 OFFCURVE",
"250 0 CURVE",
"371 24 OFFCURVE",
"559 5 OFFCURVE",
"693 0 CURVE",
"700 10 OFFCURVE",
"713 14 OFFCURVE",
"725 19 CURVE",
"726 33 OFFCURVE",
"729 46 OFFCURVE",
"738 66 CURVE",
"711 89 OFFCURVE",
"722 128 OFFCURVE",
"723 163 CURVE SMOOTH",
"724 182 OFFCURVE",
"722 199 OFFCURVE",
"709 212 CURVE",
"679 209 OFFCURVE",
"685 172 OFFCURVE",
"677 152 CURVE SMOOTH",
"664 121 OFFCURVE",
"642 93 OFFCURVE",
"626 70 CURVE",
"536 61 OFFCURVE",
"445 68 OFFCURVE",
"343 66 CURVE",
"426 199 OFFCURVE",
"507 331 OFFCURVE",
"597 454 CURVE SMOOTH",
"642 516 OFFCURVE",
"690 575 OFFCURVE",
"741 631 CURVE"
);
}
);
vertWidth = 1000;
width = 1000;
}
);
note = cid00815;
unicode = FF3A;
},
{
glyphname = A.half;
lastChange = "2020-12-04 07:33:56 +0000";
layers = (
{
hints = (
{
horizontal = 1;
place = "{235, 52}";
type = Stem;
},
{
horizontal = 1;
place = "{672, -20}";
target = down;
type = TopGhost;
},
{
place = "{92, 326}";
type = Stem;
},
{
horizontal = 1;
place = "{668, -20}";
target = down;
type = TopGhost;
}
);
layerId = "96B4F23F-F25B-4934-A27A-69E4A96ADD36";
paths = (
{
closed = 1;
nodes = (
"421 59 OFFCURVE",
"402 63 OFFCURVE",
"388 69 CURVE",
"390 92 OFFCURVE",
"377 99 OFFCURVE",
"373 118 CURVE SMOOTH",
"370 130 OFFCURVE",
"367 154 OFFCURVE",
"365 167 CURVE SMOOTH",
"351 255 OFFCURVE",
"333 359 OFFCURVE",
"316 453 CURVE SMOOTH",
"308 498 OFFCURVE",
"300 541 OFFCURVE",
"292 579 CURVE",
"299 617 OFFCURVE",
"281 626 OFFCURVE",
"289 668 CURVE",
"280 675 OFFCURVE",
"264 672 OFFCURVE",
"254 668 CURVE",
"239 608 OFFCURVE",
"223 532 OFFCURVE",
"209 454 CURVE SMOOTH",
"194 378 OFFCURVE",
"181 299 OFFCURVE",
"167 230 CURVE SMOOTH",
"158 188 OFFCURVE",
"152 136 OFFCURVE",
"138 105 CURVE SMOOTH",
"129 86 OFFCURVE",
"117 75 OFFCURVE",
"100 78 CURVE",
"98 62 OFFCURVE",
"93 53 OFFCURVE",
"92 33 CURVE",
"98 28 OFFCURVE",
"99 14 OFFCURVE",
"102 5 CURVE",
"129 23 OFFCURVE",
"173 -2 OFFCURVE",
"208 12 CURVE",
"211 44 OFFCURVE",
"204 56 OFFCURVE",
"194 61 CURVE SMOOTH",
"182 67 OFFCURVE",
"168 66 OFFCURVE",
"165 81 CURVE",
"173 115 OFFCURVE",
"190 206 OFFCURVE",
"197 230 CURVE",
"230 234 OFFCURVE",
"278 238 OFFCURVE",
"315 235 CURVE",
"317 211 OFFCURVE",
"337 116 OFFCURVE",
"333 78 CURVE",
"319 73 OFFCURVE",
"298 59 OFFCURVE",
"307 20 CURVE",
"320 16 OFFCURVE",
"357 6 OFFCURVE",
"385 8 CURVE SMOOTH",
"402 9 OFFCURVE",
"416 15 OFFCURVE",
"418 29 CURVE SMOOTH"
);
},
{
closed = 1;
nodes = (
"288 288 OFFCURVE",
"225 290 OFFCURVE",
"208 287 CURVE",
"212 311 OFFCURVE",
"226 387 OFFCURVE",
"239 454 CURVE SMOOTH",
"258 557 LINE",
"265 529 OFFCURVE",
"273 492 OFFCURVE",
"279 454 CURVE SMOOTH",
"290 389 OFFCURVE",
"299 321 OFFCURVE",
"304 296 CURVE"
);
}
);
vertWidth = 1000;
width = 500;
}
);
note = cid00264;
},
{
glyphname = B.half;
lastChange = "2020-12-04 07:33:56 +0000";
layers = (
{
hints = (
{
horizontal = 1;
place = "{13, 40}";
type = Stem;
},
{
horizontal = 1;
place = "{609, 48}";
type = Stem;
},
{
place = "{162, 37}";
type = Stem;
},
{
place = "{330, 46}";
type = Stem;
},
{
place = "{319, 46}";
type = Stem;
},
{
horizontal = 1;
place = "{600, 52}";
type = Stem;
}
);
layerId = "96B4F23F-F25B-4934-A27A-69E4A96ADD36";
paths = (
{
closed = 1;
nodes = (
"357 300 OFFCURVE",
"332 335 OFFCURVE",
"301 359 CURVE",
"321 362 OFFCURVE",
"339 388 OFFCURVE",
"351 424 CURVE SMOOTH",
"354 433 OFFCURVE",
"357 443 OFFCURVE",
"359 453 CURVE SMOOTH",
"367 492 OFFCURVE",
"367 538 OFFCURVE",
"356 577 CURVE SMOOTH",
"346 610 OFFCURVE",
"313 645 OFFCURVE",
"286 652 CURVE SMOOTH",
"237 665 OFFCURVE",
"175 651 OFFCURVE",
"128 648 CURVE",
"119 641 OFFCURVE",
"124 617 OFFCURVE",
"126 605 CURVE",
"134 598 OFFCURVE",
"152 618 OFFCURVE",
"158 605 CURVE",
"160 558 OFFCURVE",
"161 507 OFFCURVE",
"162 454 CURVE SMOOTH",
"164 320 OFFCURVE",
"163 175 OFFCURVE",
"160 53 CURVE",
"147 55 OFFCURVE",
"138 51 OFFCURVE",
"130 45 CURVE",
"129 29 OFFCURVE",
"118 30 OFFCURVE",
"124 6 CURVE",
"182 0 OFFCURVE",
"230 20 OFFCURVE",
"288 10 CURVE",
"308 29 OFFCURVE",
"328 31 OFFCURVE",
"342 50 CURVE SMOOTH",
"370 88 OFFCURVE",
"383 172 OFFCURVE",
"373 245 CURVE"
);
},
{
closed = 1;
nodes = (
"313 451 OFFCURVE",
"312 447 OFFCURVE",
"311 444 CURVE SMOOTH",
"302 406 OFFCURVE",
"285 377 OFFCURVE",
"266 371 CURVE SMOOTH",
"243 364 OFFCURVE",
"215 372 OFFCURVE",
"199 367 CURVE",
"199 394 OFFCURVE",
"200 424 OFFCURVE",
"201 454 CURVE SMOOTH",
"202 504 OFFCURVE",
"203 556 OFFCURVE",
"199 600 CURVE",
"221 597 OFFCURVE",
"244 606 OFFCURVE",
"265 605 CURVE SMOOTH",
"285 604 OFFCURVE",
"302 595 OFFCURVE",
"312 565 CURVE SMOOTH",
"322 532 OFFCURVE",
"321 491 OFFCURVE",
"313 454 CURVE"
);
},
{
closed = 1;
nodes = (
"323 103 OFFCURVE",
"305 79 OFFCURVE",
"282 66 CURVE SMOOTH",
"258 53 OFFCURVE",
"228 52 OFFCURVE",
"199 53 CURVE",
"199 127 OFFCURVE",
"198 251 OFFCURVE",
"201 327 CURVE",
"244 325 OFFCURVE",
"277 331 OFFCURVE",
"309 299 CURVE SMOOTH",
"331 277 OFFCURVE",
"331 206 OFFCURVE",
"330 148 CURVE"
);
}
);
vertWidth = 1000;
width = 500;
}
);
note = cid00265;
},
{
glyphname = C.half;
lastChange = "2020-12-04 07:33:56 +0000";
layers = (
{
hints = (
{
horizontal = 1;
place = "{-14, 21}";
target = up;
type = BottomGhost;
},
{
horizontal = 1;
place = "{613, 58}";
type = Stem;
},
{
place = "{123, 42}";
type = Stem;
},
{
place = "{359, 22}";
type = Stem;
},
{
horizontal = 1;
place = "{-14, 60}";
type = Stem;
},
{
horizontal = 1;
place = "{613, 9}";
type = Stem;
}
);
layerId = "96B4F23F-F25B-4934-A27A-69E4A96ADD36";
paths = (
{
closed = 1;
nodes = (
"377 231 OFFCURVE",
"369 166 OFFCURVE",
"361 137 CURVE",
"342 92 OFFCURVE",
"310 41 OFFCURVE",
"270 46 CURVE SMOOTH",
"252 48 OFFCURVE",
"237 70 OFFCURVE",
"220 79 CURVE",
"214 104 OFFCURVE",
"202 119 OFFCURVE",
"194 145 CURVE SMOOTH",
"168 224 OFFCURVE",
"157 355 OFFCURVE",
"170 454 CURVE SMOOTH",
"172 469 OFFCURVE",
"175 483 OFFCURVE",
"178 496 CURVE SMOOTH",
"191 552 OFFCURVE",
"224 594 OFFCURVE",
"260 608 CURVE SMOOTH",
"297 623 OFFCURVE",
"336 607 OFFCURVE",
"359 548 CURVE",
"362 518 OFFCURVE",
"359 473 OFFCURVE",
"367 453 CURVE SMOOTH",
"369 447 OFFCURVE",
"373 444 OFFCURVE",
"378 443 CURVE",
"379 446 OFFCURVE",
"380 449 OFFCURVE",
"381 453 CURVE SMOOTH",
"388 481 OFFCURVE",
"380 521 OFFCURVE",
"381 556 CURVE SMOOTH",
"382 591 OFFCURVE",
"388 625 OFFCURVE",
"383 652 CURVE",
"369 654 OFFCURVE",
"370 624 OFFCURVE",
"358 622 CURVE",
"328 655 OFFCURVE",
"286 684 OFFCURVE",
"241 666 CURVE SMOOTH",
"209 654 OFFCURVE",
"168 595 OFFCURVE",
"151 540 CURVE SMOOTH",
"144 515 OFFCURVE",
"137 487 OFFCURVE",
"132 454 CURVE SMOOTH",
"127 424 OFFCURVE",
"124 389 OFFCURVE",
"123 349 CURVE SMOOTH",
"119 242 OFFCURVE",
"139 128 OFFCURVE",
"163 79 CURVE SMOOTH",
"169 67 OFFCURVE",
"182 55 OFFCURVE",
"192 39 CURVE SMOOTH",
"210 9 OFFCURVE",
"227 -14 OFFCURVE",
"255 -14 CURVE SMOOTH",
"276 -14 OFFCURVE",
"306 -5 OFFCURVE",
"325 6 CURVE SMOOTH",
"343 17 OFFCURVE",
"365 55 OFFCURVE",
"378 87 CURVE SMOOTH",
"389 116 OFFCURVE",
"400 163 OFFCURVE",
"400 202 CURVE"
);
}
);
vertWidth = 1000;
width = 500;
}
);
note = cid00266;
},
{
glyphname = D.half;
lastChange = "2020-12-04 07:33:56 +0000";
layers = (
{
hints = (
{
horizontal = 1;
place = "{-12, 21}";
target = up;
type = BottomGhost;
},
{
horizontal = 1;
place = "{609, 50}";
type = Stem;
},
{
place = "{149, 42}";
type = Stem;
},
{
place = "{359, 48}";
type = Stem;
},
{
horizontal = 1;
place = "{3.48, 44.52}";
type = Stem;
}
);
layerId = "96B4F23F-F25B-4934-A27A-69E4A96ADD36";
paths = (
{
closed = 1;
nodes = (
"410 341 OFFCURVE",
"407 401 OFFCURVE",
"399 453 CURVE SMOOTH",
"392 503 OFFCURVE",
"381 546 OFFCURVE",
"368 579 CURVE SMOOTH",
"337 661 OFFCURVE",
"220 666 OFFCURVE",
"146 659 CURVE SMOOTH",
"128 657 OFFCURVE",
"110 648 OFFCURVE",
"109 610 CURVE",
"120 597 OFFCURVE",
"137 612 OFFCURVE",
"150 599 CURVE",
"150 552 OFFCURVE",
"149 503 OFFCURVE",
"149 454 CURVE SMOOTH",
"149 309 OFFCURVE",
"152 160 OFFCURVE",
"150 45 CURVE",
"140 38 OFFCURVE",
"134 47 OFFCURVE",
"124 41 CURVE",
"118 27 OFFCURVE",
"113 10 OFFCURVE",
"112 -12 CURVE",
"170 23 OFFCURVE",
"257 -15 OFFCURVE",
"320 29 CURVE",
"362 69 OFFCURVE",
"401 155 OFFCURVE",
"407 275 CURVE SMOOTH"
);
},
{
closed = 1;
nodes = (
"366 308 OFFCURVE",
"355 142 OFFCURVE",
"324 93 CURVE SMOOTH",
"315 78 OFFCURVE",
"294 63 OFFCURVE",
"282 57 CURVE SMOOTH",
"256 44 OFFCURVE",
"224 51 OFFCURVE",
"187 48 CURVE",
"190 63 OFFCURVE",
"191 82 OFFCURVE",
"191 97 CURVE SMOOTH",
"192 207 OFFCURVE",
"192 336 OFFCURVE",
"191 454 CURVE SMOOTH",
"191 507 OFFCURVE",
"191 557 OFFCURVE",
"191 602 CURVE",
"273 627 OFFCURVE",
"339 588 OFFCURVE",
"356 453 CURVE SMOOTH",
"357 444 OFFCURVE",
"358 434 OFFCURVE",
"359 424 CURVE SMOOTH"
);
}
);
vertWidth = 1000;
width = 500;
}
);
note = cid00267;
},
{
glyphname = E.half;
lastChange = "2020-12-04 07:33:56 +0000";
layers = (
{
hints = (
{
horizontal = 1;
place = "{314, 54}";
type = Stem;
},
{
horizontal = 1;
place = "{431, 10}";
type = Stem;
},
{
horizontal = 1;
place = "{593, 54}";
type = Stem;
},
{
place = "{172, 38}";
type = Stem;
},
{
place = "{361, 7}";
type = Stem;
},
{
horizontal = 1;
place = "{636, 17}";
type = Stem;
}
);
layerId = "96B4F23F-F25B-4934-A27A-69E4A96ADD36";
paths = (
{
closed = 1;
nodes = (
"364 67 OFFCURVE",
"375 143 OFFCURVE",
"361 197 CURVE",
"341 180 OFFCURVE",
"345 114 OFFCURVE",
"334 77 CURVE",
"298 58 OFFCURVE",
"247 61 OFFCURVE",
"210 65 CURVE",
"212 149 OFFCURVE",
"211 224 OFFCURVE",
"210 298 CURVE",
"234 321 OFFCURVE",
"270 315 OFFCURVE",
"301 306 CURVE",
"308 280 OFFCURVE",
"304 233 OFFCURVE",
"326 237 CURVE",
"331 287 OFFCURVE",
"325 378 OFFCURVE",
"332 431 CURVE",
"325 434 OFFCURVE",
"322 446 OFFCURVE",
"315 438 CURVE",
"306 418 OFFCURVE",
"306 379 OFFCURVE",
"293 368 CURVE",
"266 365 OFFCURVE",
"238 365 OFFCURVE",
"212 360 CURVE",
"211 389 OFFCURVE",
"210 422 OFFCURVE",
"210 454 CURVE SMOOTH",
"210 510 OFFCURVE",
"211 564 OFFCURVE",
"210 590 CURVE",
"239 597 OFFCURVE",
"299 593 OFFCURVE",
"332 593 CURVE",
"338 575 OFFCURVE",
"337 536 OFFCURVE",
"340 509 CURVE SMOOTH",
"342 489 OFFCURVE",
"347 475 OFFCURVE",
"359 481 CURVE",
"368 517 OFFCURVE",
"361 600 OFFCURVE",
"363 636 CURVE",
"341 666 OFFCURVE",
"308 648 OFFCURVE",
"278 647 CURVE SMOOTH",
"244 646 OFFCURVE",
"187 648 OFFCURVE",
"150 651 CURVE SMOOTH",
"139 652 OFFCURVE",
"138 627 OFFCURVE",
"136 609 CURVE",
"145 586 OFFCURVE",
"158 597 OFFCURVE",
"173 590 CURVE",
"172 550 OFFCURVE",
"172 504 OFFCURVE",
"172 454 CURVE SMOOTH",
"173 331 OFFCURVE",
"175 185 OFFCURVE",
"171 61 CURVE",
"162 59 OFFCURVE",
"150 65 OFFCURVE",
"144 57 CURVE",
"144 45 OFFCURVE",
"131 24 OFFCURVE",
"146 4 CURVE",
"212 18 OFFCURVE",
"288 4 OFFCURVE",
"359 15 CURVE",
"363 22 LINE"
);
}
);
vertWidth = 1000;
width = 500;
}
);
note = cid00268;
},
{
glyphname = F.half;
lastChange = "2020-12-04 07:33:56 +0000";
layers = (
{
hints = (
{
horizontal = 1;
place = "{-3, 21}";
target = up;
type = BottomGhost;
},
{
horizontal = 1;
place = "{302, 51}";
type = Stem;
},
{
horizontal = 1;
place = "{603, 55}";
type = Stem;
},
{
place = "{179, 37}";
type = Stem;
},
{
horizontal = 1;
place = "{-6, 21}";
target = up;
type = BottomGhost;
}
);
layerId = "96B4F23F-F25B-4934-A27A-69E4A96ADD36";
paths = (
{
closed = 1;
nodes = (
"351 669 OFFCURVE",
"317 654 OFFCURVE",
"286 651 CURVE SMOOTH",
"232 646 OFFCURVE",
"171 665 OFFCURVE",
"135 640 CURVE",
"131 622 OFFCURVE",
"141 619 OFFCURVE",
"135 608 CURVE",
"138 586 OFFCURVE",
"143 608 OFFCURVE",
"149 608 CURVE",
"159 595 OFFCURVE",
"169 600 OFFCURVE",
"176 600 CURVE",
"178 551 OFFCURVE",
"179 502 OFFCURVE",
"179 454 CURVE SMOOTH",
"180 324 OFFCURVE",
"178 196 OFFCURVE",
"179 65 CURVE",
"166 51 OFFCURVE",
"144 55 OFFCURVE",
"143 18 CURVE",
"145 13 OFFCURVE",
"148 10 OFFCURVE",
"147 -3 CURVE",
"156 -12 OFFCURVE",
"164 1 OFFCURVE",
"175 2 CURVE SMOOTH",
"191 4 OFFCURVE",
"211 -7 OFFCURVE",
"227 -7 CURVE SMOOTH",
"241 -7 OFFCURVE",
"251 0 OFFCURVE",
"254 29 CURVE",
"244 45 OFFCURVE",
"226 55 OFFCURVE",
"214 56 CURVE",
"221 125 OFFCURVE",
"214 210 OFFCURVE",
"216 294 CURVE",
"245 302 OFFCURVE",
"270 301 OFFCURVE",
"309 302 CURVE",
"317 285 OFFCURVE",
"316 250 OFFCURVE",
"323 231 CURVE",
"341 239 OFFCURVE",
"343 271 OFFCURVE",
"342 310 CURVE SMOOTH",
"342 351 OFFCURVE",
"337 399 OFFCURVE",
"343 430 CURVE",
"339 437 OFFCURVE",
"327 444 OFFCURVE",
"322 437 CURVE",
"314 412 OFFCURVE",
"311 379 OFFCURVE",
"301 358 CURVE",
"274 358 OFFCURVE",
"242 347 OFFCURVE",
"216 358 CURVE",
"216 389 OFFCURVE",
"216 422 OFFCURVE",
"216 454 CURVE SMOOTH",
"216 506 OFFCURVE",
"216 557 OFFCURVE",
"216 603 CURVE",
"256 604 OFFCURVE",
"285 603 OFFCURVE",
"325 603 CURVE",
"342 595 OFFCURVE",
"341 541 OFFCURVE",
"346 507 CURVE SMOOTH",
"349 486 OFFCURVE",
"355 473 OFFCURVE",
"369 485 CURVE",
"370 539 OFFCURVE",
"363 590 OFFCURVE",
"371 644 CURVE"
);
}
);
vertWidth = 1000;
width = 500;
}
);
note = cid00269;
},
{
glyphname = G.half;
lastChange = "2020-12-04 07:33:56 +0000";
layers = (
{
hints = (
{
horizontal = 1;
place = "{-9, 49}";
type = Stem;
},
{
horizontal = 1;
place = "{628, 43}";
type = Stem;
},
{
place = "{110, 43}";
type = Stem;
},
{
place = "{333, 83}";
type = Stem;
},
{
place = "{316, 55}";
type = Stem;
},
{
horizontal = 1;
place = "{628, 21}";
type = Stem;
},
{
horizontal = 1;
place = "{25, 15}";
type = Stem;
}
);
layerId = "96B4F23F-F25B-4934-A27A-69E4A96ADD36";
paths = (
{
closed = 1;
nodes = (
"411 332 OFFCURVE",
"376 318 OFFCURVE",
"349 315 CURVE SMOOTH",
"310 311 OFFCURVE",
"286 334 OFFCURVE",
"290 269 CURVE",
"297 256 OFFCURVE",
"322 281 OFFCURVE",
"333 260 CURVE",
"333 203 OFFCURVE",
"329 136 OFFCURVE",
"333 85 CURVE",
"311 34 OFFCURVE",
"250 28 OFFCURVE",
"213 57 CURVE",
"176 99 OFFCURVE",
"154 226 OFFCURVE",
"153 349 CURVE SMOOTH",
"153 385 OFFCURVE",
"155 421 OFFCURVE",
"158 454 CURVE SMOOTH",
"165 513 OFFCURVE",
"178 563 OFFCURVE",
"199 592 CURVE SMOOTH",
"214 614 OFFCURVE",
"240 627 OFFCURVE",
"265 628 CURVE SMOOTH",
"300 630 OFFCURVE",
"335 609 OFFCURVE",
"344 558 CURVE SMOOTH",
"350 525 OFFCURVE",
"340 486 OFFCURVE",
"358 469 CURVE",
"369 483 OFFCURVE",
"371 510 OFFCURVE",
"371 541 CURVE SMOOTH",
"370 580 OFFCURVE",
"365 625 OFFCURVE",
"370 658 CURVE",
"360 667 OFFCURVE",
"353 644 OFFCURVE",
"342 641 CURVE SMOOTH",
"334 639 OFFCURVE",
"324 657 OFFCURVE",
"316 644 CURVE",
"297 664 OFFCURVE",
"275 672 OFFCURVE",
"254 671 CURVE SMOOTH",
"226 670 OFFCURVE",
"200 655 OFFCURVE",
"181 634 CURVE SMOOTH",
"152 601 OFFCURVE",
"131 533 OFFCURVE",
"119 454 CURVE SMOOTH",
"113 411 OFFCURVE",
"110 364 OFFCURVE",
"110 318 CURVE SMOOTH",
"110 242 OFFCURVE",
"119 168 OFFCURVE",
"139 113 CURVE SMOOTH",
"143 102 OFFCURVE",
"152 95 OFFCURVE",
"159 80 CURVE SMOOTH",
"165 68 OFFCURVE",
"168 48 OFFCURVE",
"174 39 CURVE SMOOTH",
"219 -31 OFFCURVE",
"300 -17 OFFCURVE",
"341 36 CURVE",
"349 21 OFFCURVE",
"358 23 OFFCURVE",
"367 35 CURVE",
"379 100 OFFCURVE",
"365 208 OFFCURVE",
"377 264 CURVE",
"391 269 OFFCURVE",
"412 258 OFFCURVE",
"416 283 CURVE"
);
}
);
vertWidth = 1000;
width = 500;
}
);
note = cid00270;
},
{
glyphname = H.half;
lastChange = "2020-12-04 07:33:56 +0000";
layers = (
{
hints = (
{
horizontal = 1;
place = "{0, 21}";
target = up;
type = BottomGhost;
},
{
horizontal = 1;
place = "{323, 49}";
type = Stem;
},
{
horizontal = 1;
place = "{659, -20}";
target = down;
type = TopGhost;
},
{
place = "{138, 35}";
type = Stem;
},
{
place = "{335, 34}";
type = Stem;
},
{
horizontal = 1;
place = "{601, 58}";
type = Stem;
},
{
horizontal = 1;
place = "{609, 47}";
type = Stem;
}
);
layerId = "96B4F23F-F25B-4934-A27A-69E4A96ADD36";
paths = (
{
closed = 1;
nodes = (
"397 58 OFFCURVE",
"379 55 OFFCURVE",
"370 76 CURVE",
"375 176 OFFCURVE",
"370 322 OFFCURVE",
"369 453 CURVE SMOOTH",
"369 511 OFFCURVE",
"369 567 OFFCURVE",
"371 614 CURVE",
"389 613 OFFCURVE",
"404 615 OFFCURVE",
"408 641 CURVE",
"383 674 OFFCURVE",
"342 656 OFFCURVE",
"301 659 CURVE",
"298 643 OFFCURVE",
"290 632 OFFCURVE",
"295 612 CURVE",
"306 604 OFFCURVE",
"321 601 OFFCURVE",
"330 601 CURVE",
"329 554 OFFCURVE",
"334 501 OFFCURVE",
"335 453 CURVE SMOOTH",
"336 425 OFFCURVE",
"336 400 OFFCURVE",
"334 378 CURVE",
"284 377 OFFCURVE",
"225 366 OFFCURVE",
"172 376 CURVE",
"172 399 OFFCURVE",
"172 426 OFFCURVE",
"171 454 CURVE SMOOTH",
"171 513 OFFCURVE",
"170 575 OFFCURVE",
"175 609 CURVE",
"191 607 OFFCURVE",
"205 609 OFFCURVE",
"212 625 CURVE",
"204 653 OFFCURVE",
"187 659 OFFCURVE",
"168 658 CURVE SMOOTH",
"147 657 OFFCURVE",
"123 650 OFFCURVE",
"102 654 CURVE",
"103 635 OFFCURVE",
"93 636 OFFCURVE",
"95 615 CURVE",
"107 597 OFFCURVE",
"123 614 OFFCURVE",
"134 601 CURVE",
"135 558 OFFCURVE",
"136 508 OFFCURVE",
"137 454 CURVE SMOOTH",
"138 339 OFFCURVE",
"138 205 OFFCURVE",
"138 76 CURVE",
"127 60 OFFCURVE",
"111 69 OFFCURVE",
"106 48 CURVE SMOOTH",
"102 31 OFFCURVE",
"112 6 OFFCURVE",
"123 2 CURVE SMOOTH",
"128 0 OFFCURVE",
"136 9 OFFCURVE",
"146 10 CURVE SMOOTH",
"161 11 OFFCURVE",
"175 6 OFFCURVE",
"186 5 CURVE SMOOTH",
"198 4 OFFCURVE",
"206 8 OFFCURVE",
"208 30 CURVE",
"201 54 OFFCURVE",
"181 54 OFFCURVE",
"173 77 CURVE",
"174 169 OFFCURVE",
"171 230 OFFCURVE",
"172 318 CURVE",
"220 319 OFFCURVE",
"279 330 OFFCURVE",
"336 316 CURVE",
"335 253 OFFCURVE",
"337 156 OFFCURVE",
"337 71 CURVE",
"328 64 OFFCURVE",
"315 63 OFFCURVE",
"307 55 CURVE",
"296 16 OFFCURVE",
"317 -3 OFFCURVE",
"325 0 CURVE",
"332 14 OFFCURVE",
"359 4 OFFCURVE",
"381 5 CURVE SMOOTH",
"396 6 OFFCURVE",
"408 13 OFFCURVE",
"410 37 CURVE"
);
}
);
vertWidth = 1000;
width = 500;
}
);
note = cid00271;
},
{
glyphname = I.half;
lastChange = "2020-12-04 07:33:56 +0000";
layers = (
{
hints = (
{
horizontal = 1;
place = "{609, 49}";
type = Stem;
},
{
place = "{232, 37}";
type = Stem;
}
);
layerId = "96B4F23F-F25B-4934-A27A-69E4A96ADD36";
paths = (
{
closed = 1;
nodes = (
"305 652 OFFCURVE",
"285 658 OFFCURVE",
"263 658 CURVE SMOOTH",
"240 658 OFFCURVE",
"215 652 OFFCURVE",
"195 652 CURVE",
"195 636 OFFCURVE",
"186 636 OFFCURVE",
"188 617 CURVE",
"199 600 OFFCURVE",
"217 611 OFFCURVE",
"229 604 CURVE",
"231 556 OFFCURVE",
"232 506 OFFCURVE",
"232 454 CURVE SMOOTH",
"234 322 OFFCURVE",
"233 182 OFFCURVE",
"234 62 CURVE",
"225 55 OFFCURVE",
"211 59 OFFCURVE",
"200 58 CURVE",
"193 42 OFFCURVE",
"180 10 OFFCURVE",
"191 -17 CURVE",
"204 -23 OFFCURVE",
"201 5 OFFCURVE",
"210 7 CURVE SMOOTH",
"244 16 OFFCURVE",
"287 -8 OFFCURVE",
"313 23 CURVE",
"305 51 OFFCURVE",
"284 64 OFFCURVE",
"269 65 CURVE",
"269 194 OFFCURVE",
"269 326 OFFCURVE",
"270 454 CURVE SMOOTH",
"270 488 OFFCURVE",
"270 521 OFFCURVE",
"271 554 CURVE SMOOTH",
"272 564 OFFCURVE",
"273 572 OFFCURVE",
"276 577 CURVE",
"276 589 OFFCURVE",
"269 604 OFFCURVE",
"272 609 CURVE",
"289 610 OFFCURVE",
"311 601 OFFCURVE",
"315 627 CURVE"
);
}
);
vertWidth = 1000;
width = 500;
}
);
note = cid00272;
},
{
glyphname = J.half;
lastChange = "2020-12-04 07:33:56 +0000";
layers = (
{
hints = (
{
horizontal = 1;
place = "{-8, 48}";
type = Stem;
},
{
horizontal = 1;
place = "{608, 52}";
type = Stem;
},
{
place = "{149, 57}";
type = Stem;
},
{
place = "{266, 38}";
type = Stem;
}
);
layerId = "96B4F23F-F25B-4934-A27A-69E4A96ADD36";
paths = (
{
closed = 1;
nodes = (
"335 656 OFFCURVE",
"316 661 OFFCURVE",
"294 660 CURVE SMOOTH",
"272 659 OFFCURVE",
"247 652 OFFCURVE",
"227 654 CURVE",
"229 634 OFFCURVE",
"218 631 OFFCURVE",
"227 611 CURVE",
"237 599 OFFCURVE",
"249 611 OFFCURVE",
"264 608 CURVE",
"263 567 OFFCURVE",
"265 513 OFFCURVE",
"266 454 CURVE SMOOTH",
"270 338 OFFCURVE",
"275 204 OFFCURVE",
"269 119 CURVE SMOOTH",
"266 64 OFFCURVE",
"231 15 OFFCURVE",
"206 53 CURVE",
"212 117 OFFCURVE",
"191 169 OFFCURVE",
"157 149 CURVE",
"137 80 OFFCURVE",
"157 30 OFFCURVE",
"186 6 CURVE SMOOTH",
"214 -16 OFFCURVE",
"250 -14 OFFCURVE",
"270 17 CURVE",
"274 15 OFFCURVE",
"281 39 OFFCURVE",
"289 41 CURVE",
"306 105 OFFCURVE",
"308 198 OFFCURVE",
"307 295 CURVE SMOOTH",
"306 348 OFFCURVE",
"304 402 OFFCURVE",
"304 454 CURVE SMOOTH",
"303 508 OFFCURVE",
"303 560 OFFCURVE",
"307 606 CURVE",
"321 612 OFFCURVE",
"342 608 OFFCURVE",
"346 635 CURVE"
);
}
);
vertWidth = 1000;
width = 500;
}
);
note = cid00273;
},
{
glyphname = K.half;
lastChange = "2020-12-04 07:33:56 +0000";
layers = (
{
hints = (
{
horizontal = 1;
place = "{0, 21}";
target = up;
type = BottomGhost;
},
{
horizontal = 1;
place = "{604, 53}";
type = Stem;
},
{
place = "{145, 36}";
type = Stem;
},
{
horizontal = 1;
place = "{12, 42}";
type = Stem;
}
);
layerId = "96B4F23F-F25B-4934-A27A-69E4A96ADD36";
paths = (
{
closed = 1;
nodes = (
"391 68 OFFCURVE",
"362 63 OFFCURVE",
"344 82 CURVE",
"315 190 OFFCURVE",
"279 279 OFFCURVE",
"249 384 CURVE",
"258 409 OFFCURVE",
"267 432 OFFCURVE",
"278 454 CURVE SMOOTH",
"301 504 OFFCURVE",
"326 549 OFFCURVE",
"348 600 CURVE",
"358 615 OFFCURVE",
"376 611 OFFCURVE",
"387 623 CURVE",
"378 648 OFFCURVE",
"362 654 OFFCURVE",
"344 654 CURVE SMOOTH",
"324 655 OFFCURVE",
"302 648 OFFCURVE",
"282 650 CURVE",
"281 638 OFFCURVE",
"279 628 OFFCURVE",
"277 619 CURVE",
"282 604 OFFCURVE",
"297 608 OFFCURVE",
"305 600 CURVE",
"286 549 OFFCURVE",
"265 501 OFFCURVE",
"243 454 CURVE SMOOTH",
"223 412 OFFCURVE",
"202 371 OFFCURVE",
"180 334 CURVE",
"181 378 OFFCURVE",
"181 417 OFFCURVE",
"181 454 CURVE SMOOTH",
"182 507 OFFCURVE",
"183 555 OFFCURVE",
"190 610 CURVE",
"204 610 OFFCURVE",
"217 611 OFFCURVE",
"223 626 CURVE",
"212 652 OFFCURVE",
"194 657 OFFCURVE",
"173 657 CURVE SMOOTH",
"155 657 OFFCURVE",
"135 654 OFFCURVE",
"116 657 CURVE",
"117 637 OFFCURVE",
"102 640 OFFCURVE",
"110 610 CURVE",
"119 593 OFFCURVE",
"129 621 OFFCURVE",
"141 607 CURVE",
"150 567 OFFCURVE",
"144 507 OFFCURVE",
"145 454 CURVE SMOOTH",
"145 449 OFFCURVE",
"145 445 OFFCURVE",
"145 440 CURVE SMOOTH",
"150 324 OFFCURVE",
"142 197 OFFCURVE",
"147 82 CURVE",
"140 55 OFFCURVE",
"127 55 OFFCURVE",
"112 54 CURVE",
"114 34 OFFCURVE",
"101 34 OFFCURVE",
"108 12 CURVE",
"127 -6 OFFCURVE",
"151 14 OFFCURVE",
"178 12 CURVE SMOOTH",
"201 11 OFFCURVE",
"210 7 OFFCURVE",
"217 38 CURVE",
"201 42 OFFCURVE",
"193 62 OFFCURVE",
"180 74 CURVE",
"181 144 OFFCURVE",
"182 200 OFFCURVE",
"180 269 CURVE",
"200 277 OFFCURVE",
"202 320 OFFCURVE",
"221 330 CURVE",
"246 257 OFFCURVE",
"278 170 OFFCURVE",
"303 92 CURVE SMOOTH",
"310 68 OFFCURVE",
"314 31 OFFCURVE",
"320 19 CURVE SMOOTH",
"334 -7 OFFCURVE",
"385 -9 OFFCURVE",
"398 27 CURVE"
);
}
);
vertWidth = 1000;
width = 500;
}
);
note = cid00274;
},
{
glyphname = L.half;
lastChange = "2020-12-04 07:33:56 +0000";
layers = (
{
hints = (
{
horizontal = 1;
place = "{1, 50}";
type = Stem;
},
{
horizontal = 1;
place = "{666, -20}";
target = down;
type = TopGhost;
},
{
place = "{177, 38}";
type = Stem;
},
{
place = "{362, 7}";
type = Stem;
},
{
horizontal = 1;
place = "{611, 44}";
type = Stem;
},
{
horizontal = 1;
place = "{659, -20}";
target = down;
type = TopGhost;
}
);
layerId = "96B4F23F-F25B-4934-A27A-69E4A96ADD36";
paths = (
{
closed = 1;
nodes = (
"347 195 OFFCURVE",
"342 164 OFFCURVE",
"338 133 CURVE SMOOTH",
"334 98 OFFCURVE",
"330 64 OFFCURVE",
"312 54 CURVE SMOOTH",
"295 45 OFFCURVE",
"277 58 OFFCURVE",
"259 57 CURVE SMOOTH",
"243 56 OFFCURVE",
"229 45 OFFCURVE",
"213 57 CURVE",
"216 196 OFFCURVE",
"215 333 OFFCURVE",
"215 454 CURVE SMOOTH",
"215 502 OFFCURVE",
"215 548 OFFCURVE",
"216 591 CURVE",
"227 625 OFFCURVE",
"246 596 OFFCURVE",
"256 618 CURVE",
"251 652 OFFCURVE",
"235 659 OFFCURVE",
"216 659 CURVE SMOOTH",
"190 659 OFFCURVE",
"159 647 OFFCURVE",
"139 666 CURVE",
"141 641 OFFCURVE",
"126 632 OFFCURVE",
"133 610 CURVE",
"135 609 OFFCURVE",
"135 606 OFFCURVE",
"136 603 CURVE",
"148 594 OFFCURVE",
"160 621 OFFCURVE",
"176 607 CURVE",
"176 560 OFFCURVE",
"176 508 OFFCURVE",
"177 454 CURVE SMOOTH",
"178 324 OFFCURVE",
"179 184 OFFCURVE",
"176 72 CURVE",
"158 63 OFFCURVE",
"129 48 OFFCURVE",
"139 7 CURVE",
"204 21 OFFCURVE",
"302 -12 OFFCURVE",
"359 7 CURVE",
"370 66 OFFCURVE",
"373 144 OFFCURVE",
"362 206 CURVE"
);
}
);
vertWidth = 1000;
width = 500;
}
);
note = cid00275;
},
{
glyphname = M.half;
lastChange = "2020-12-04 07:33:56 +0000";
layers = (
{
hints = (
{
horizontal = 1;
place = "{2, 55}";
type = Stem;
},
{
horizontal = 1;
place = "{606, 56}";
type = Stem;
},
{
place = "{109, 23}";
type = Stem;
},
{
place = "{368, 35}";
type = Stem;
},
{
horizontal = 1;
place = "{-1, 74}";
type = Stem;
},
{
horizontal = 1;
place = "{602, 57}";
type = Stem;
}
);
layerId = "96B4F23F-F25B-4934-A27A-69E4A96ADD36";
paths = (
{
closed = 1;
nodes = (
"433 58 OFFCURVE",
"412 53 OFFCURVE",
"404 75 CURVE",
"408 195 OFFCURVE",
"404 326 OFFCURVE",
"403 453 CURVE SMOOTH",
"403 503 OFFCURVE",
"403 553 OFFCURVE",
"404 601 CURVE",
"413 611 OFFCURVE",
"433 599 OFFCURVE",
"437 618 CURVE",
"434 668 OFFCURVE",
"379 668 OFFCURVE",
"355 653 CURVE",
"339 590 OFFCURVE",
"327 522 OFFCURVE",
"314 453 CURVE SMOOTH",
"297 354 OFFCURVE",
"280 254 OFFCURVE",
"258 164 CURVE",
"235 256 OFFCURVE",
"216 356 OFFCURVE",
"196 454 CURVE SMOOTH",
"186 505 OFFCURVE",
"175 556 OFFCURVE",
"164 605 CURVE SMOOTH",
"160 620 OFFCURVE",
"165 631 OFFCURVE",
"162 644 CURVE",
"138 676 OFFCURVE",
"104 647 OFFCURVE",
"71 648 CURVE",
"62 628 OFFCURVE",
"73 619 OFFCURVE",
"73 602 CURVE",
"85 599 OFFCURVE",
"94 600 OFFCURVE",
"102 598 CURVE",
"103 551 OFFCURVE",
"104 503 OFFCURVE",
"105 454 CURVE SMOOTH",
"109 322 OFFCURVE",
"112 187 OFFCURVE",
"105 73 CURVE",
"89 65 OFFCURVE",
"72 43 OFFCURVE",
"77 9 CURVE",
"101 1 OFFCURVE",
"149 -14 OFFCURVE",
"163 24 CURVE",
"158 44 OFFCURVE",
"145 45 OFFCURVE",
"137 58 CURVE",
"135 167 OFFCURVE",
"134 323 OFFCURVE",
"132 454 CURVE SMOOTH",
"131 480 LINE SMOOTH",
"131 515 OFFCURVE",
"129 577 OFFCURVE",
"129 577 CURVE",
"138 537 OFFCURVE",
"147 496 OFFCURVE",
"155 454 CURVE SMOOTH",
"184 311 OFFCURVE",
"211 163 OFFCURVE",
"243 26 CURVE",
"269 15 OFFCURVE",
"270 72 OFFCURVE",
"274 101 CURVE SMOOTH",
"279 133 OFFCURVE",
"287 172 OFFCURVE",
"292 200 CURVE SMOOTH",
"308 281 OFFCURVE",
"326 372 OFFCURVE",
"343 453 CURVE SMOOTH",
"348 477 OFFCURVE",
"353 500 OFFCURVE",
"358 522 CURVE",
"359 569 OFFCURVE",
"367 606 OFFCURVE",
"367 606 CURVE",
"367 555 OFFCURVE",
"367 504 OFFCURVE",
"368 453 CURVE SMOOTH",
"368 324 OFFCURVE",
"370 196 OFFCURVE",
"370 73 CURVE",
"362 64 OFFCURVE",
"351 57 OFFCURVE",
"344 57 CURVE",
"344 37 OFFCURVE",
"334 39 OFFCURVE",
"337 20 CURVE",
"358 -8 OFFCURVE",
"426 -4 OFFCURVE",
"442 37 CURVE"
);
}
);
vertWidth = 1000;
width = 500;
}
);
note = cid00276;
},
{
glyphname = N.half;
lastChange = "2020-12-04 07:33:56 +0000";
layers = (
{
hints = (
{
horizontal = 1;
place = "{608, 54}";
type = Stem;
},
{
place = "{137, 24}";
type = Stem;
},
{
place = "{351, 25}";
type = Stem;
},
{
horizontal = 1;
place = "{602, 53}";
type = Stem;
},
{
place = "{133, 26}";
type = Stem;
}
);
layerId = "96B4F23F-F25B-4934-A27A-69E4A96ADD36";
paths = (
{
closed = 1;
nodes = (
"413 653 OFFCURVE",
"384 663 OFFCURVE",
"358 662 CURVE SMOOTH",
"335 661 OFFCURVE",
"315 651 OFFCURVE",
"316 629 CURVE SMOOTH",
"317 602 OFFCURVE",
"334 613 OFFCURVE",
"347 603 CURVE",
"349 553 OFFCURVE",
"351 502 OFFCURVE",
"351 453 CURVE SMOOTH",
"353 351 OFFCURVE",
"352 250 OFFCURVE",
"353 148 CURVE",
"318 248 OFFCURVE",
"281 351 OFFCURVE",
"245 454 CURVE SMOOTH",
"226 509 OFFCURVE",
"207 564 OFFCURVE",
"189 619 CURVE",
"189 630 OFFCURVE",
"197 625 OFFCURVE",
"197 638 CURVE",
"170 662 OFFCURVE",
"138 652 OFFCURVE",
"107 655 CURVE",
"97 634 OFFCURVE",
"100 617 OFFCURVE",
"107 608 CURVE SMOOTH",
"113 601 OFFCURVE",
"122 599 OFFCURVE",
"130 605 CURVE",
"131 554 OFFCURVE",
"132 504 OFFCURVE",
"133 454 CURVE SMOOTH",
"136 317 OFFCURVE",
"140 185 OFFCURVE",
"133 68 CURVE",
"124 63 OFFCURVE",
"114 58 OFFCURVE",
"106 52 CURVE",
"106 36 OFFCURVE",
"96 29 OFFCURVE",
"103 12 CURVE",
"123 -12 OFFCURVE",
"153 21 OFFCURVE",
"178 2 CURVE",
"182 14 OFFCURVE",
"193 15 OFFCURVE",
"196 31 CURVE",
"189 51 OFFCURVE",
"168 52 OFFCURVE",
"163 80 CURVE SMOOTH",
"154 126 OFFCURVE",
"161 216 OFFCURVE",
"161 290 CURVE SMOOTH",
"160 354 OFFCURVE",
"159 405 OFFCURVE",
"159 454 CURVE SMOOTH",
"159 491 OFFCURVE",
"160 526 OFFCURVE",
"161 566 CURVE",
"174 533 OFFCURVE",
"187 495 OFFCURVE",
"200 454 CURVE SMOOTH",
"233 352 OFFCURVE",
"266 235 OFFCURVE",
"302 150 CURVE SMOOTH",
"322 105 OFFCURVE",
"334 53 OFFCURVE",
"350 15 CURVE SMOOTH",
"356 0 OFFCURVE",
"376 3 OFFCURVE",
"383 24 CURVE",
"374 145 OFFCURVE",
"378 308 OFFCURVE",
"376 453 CURVE SMOOTH",
"376 493 OFFCURVE",
"375 532 OFFCURVE",
"373 568 CURVE",
"382 580 OFFCURVE",
"378 603 OFFCURVE",
"386 608 CURVE",
"402 608 OFFCURVE",
"417 609 OFFCURVE",
"418 637 CURVE"
);
}
);
vertWidth = 1000;
width = 500;
}
);
note = cid00277;
},
{
glyphname = O.half;
lastChange = "2020-12-04 07:33:56 +0000";
layers = (
{
hints = (
{
horizontal = 1;
place = "{-13, 49}";
type = Stem;
},
{
horizontal = 1;
place = "{629, 47}";
type = Stem;
},
{
place = "{102, 46}";
type = Stem;
},
{
place = "{361, 38}";
type = Stem;
}
);
layerId = "96B4F23F-F25B-4934-A27A-69E4A96ADD36";
paths = (
{
closed = 1;
nodes = (
"404 331 OFFCURVE",
"400 387 OFFCURVE",
"399 437 CURVE",
"397 442 OFFCURVE",
"396 447 OFFCURVE",
"395 453 CURVE SMOOTH",
"388 488 OFFCURVE",
"385 539 OFFCURVE",
"367 559 CURVE",
"365 570 OFFCURVE",
"365 584 OFFCURVE",
"366 600 CURVE",
"359 607 OFFCURVE",
"357 598 OFFCURVE",
"347 600 CURVE",
"329 672 OFFCURVE",
"255 685 OFFCURVE",
"219 670 CURVE",
"217 663 LINE",
"196 674 OFFCURVE",
"182 647 OFFCURVE",
"172 625 CURVE",
"141 597 OFFCURVE",
"120 531 OFFCURVE",
"109 454 CURVE SMOOTH",
"103 411 OFFCURVE",
"101 364 OFFCURVE",
"102 319 CURVE SMOOTH",
"104 219 OFFCURVE",
"123 140 OFFCURVE",
"149 81 CURVE SMOOTH",
"154 71 OFFCURVE",
"163 71 OFFCURVE",
"163 52 CURVE",
"190 25 OFFCURVE",
"218 -13 OFFCURVE",
"253 -13 CURVE SMOOTH",
"290 -13 OFFCURVE",
"321 27 OFFCURVE",
"349 57 CURVE",
"355 77 OFFCURVE",
"364 100 OFFCURVE",
"370 98 CURVE",
"379 166 OFFCURVE",
"401 212 OFFCURVE",
"403 286 CURVE SMOOTH"
);
},
{
closed = 1;
nodes = (
"366 352 OFFCURVE",
"361 244 OFFCURVE",
"342 163 CURVE SMOOTH",
"325 90 OFFCURVE",
"297 39 OFFCURVE",
"257 36 CURVE SMOOTH",
"224 33 OFFCURVE",
"199 62 OFFCURVE",
"181 109 CURVE SMOOTH",
"158 168 OFFCURVE",
"147 254 OFFCURVE",
"148 340 CURVE SMOOTH",
"148 379 OFFCURVE",
"151 418 OFFCURVE",
"155 454 CURVE SMOOTH",
"162 505 OFFCURVE",
"173 551 OFFCURVE",
"188 584 CURVE",
"223 632 OFFCURVE",
"294 656 OFFCURVE",
"325 588 CURVE SMOOTH",
"334 570 OFFCURVE",
"350 501 OFFCURVE",
"354 470 CURVE",
"354 464 OFFCURVE",
"355 459 OFFCURVE",
"356 453 CURVE SMOOTH"
);
}
);
vertWidth = 1000;
width = 500;
}
);
note = cid00278;
},
{
glyphname = P.half;
lastChange = "2020-12-04 07:33:56 +0000";
layers = (
{
hints = (
{
horizontal = 1;
place = "{607, 53}";
type = Stem;
},
{
place = "{166, 36}";
type = Stem;
},
{
place = "{322, 42}";
type = Stem;
},
{
horizontal = 1;
place = "{287, 34}";
type = Stem;
},
{
horizontal = 1;
place = "{607, 47}";
type = Stem;
}
);
layerId = "96B4F23F-F25B-4934-A27A-69E4A96ADD36";
paths = (
{
closed = 1;
nodes = (
"365 477 OFFCURVE",
"365 503 OFFCURVE",
"362 527 CURVE SMOOTH",
"356 578 OFFCURVE",
"323 642 OFFCURVE",
"299 654 CURVE SMOOTH",
"270 668 OFFCURVE",
"239 655 OFFCURVE",
"205 654 CURVE SMOOTH",
"187 654 OFFCURVE",
"166 659 OFFCURVE",
"151 656 CURVE SMOOTH",
"134 653 OFFCURVE",
"124 640 OFFCURVE",
"127 608 CURVE",
"136 599 OFFCURVE",
"152 598 OFFCURVE",
"164 598 CURVE",
"165 550 OFFCURVE",
"165 502 OFFCURVE",
"166 454 CURVE SMOOTH",
"167 327 OFFCURVE",
"165 201 OFFCURVE",
"167 79 CURVE",
"160 58 OFFCURVE",
"151 45 OFFCURVE",
"136 47 CURVE",
"136 30 OFFCURVE",
"127 26 OFFCURVE",
"132 3 CURVE",
"150 9 OFFCURVE",
"177 2 OFFCURVE",
"201 3 CURVE SMOOTH",
"221 4 OFFCURVE",
"239 10 OFFCURVE",
"247 35 CURVE",
"232 55 OFFCURVE",
"210 48 OFFCURVE",
"204 84 CURVE SMOOTH",
"197 122 OFFCURVE",
"204 245 OFFCURVE",
"204 272 CURVE",
"228 266 OFFCURVE",
"266 285 OFFCURVE",
"298 287 CURVE",
"318 312 OFFCURVE",
"335 341 OFFCURVE",
"353 370 CURVE",
"358 397 OFFCURVE",
"362 424 OFFCURVE",
"364 453 CURVE SMOOTH"
);
},
{
closed = 1;
nodes = (
"321 440 OFFCURVE",
"320 428 OFFCURVE",
"317 416 CURVE SMOOTH",
"308 368 OFFCURVE",
"288 328 OFFCURVE",
"260 321 CURVE SMOOTH",
"240 316 OFFCURVE",
"214 316 OFFCURVE",
"203 314 CURVE",
"201 358 OFFCURVE",
"202 407 OFFCURVE",
"202 454 CURVE SMOOTH",
"203 494 OFFCURVE",
"203 534 OFFCURVE",
"200 568 CURVE",
"203 581 OFFCURVE",
"205 595 OFFCURVE",
"205 611 CURVE",
"207 612 OFFCURVE",
"209 609 OFFCURVE",
"209 607 CURVE",
"240 607 OFFCURVE",
"284 616 OFFCURVE",
"303 584 CURVE SMOOTH",
"321 554 OFFCURVE",
"326 502 OFFCURVE",
"322 453 CURVE SMOOTH"
);
}
);
vertWidth = 1000;
width = 500;
}
);
note = cid00279;
},
{
glyphname = Q.half;
lastChange = "2020-12-04 07:33:56 +0000";
layers = (
{
hints = (
{
horizontal = 1;
place = "{-67, 66}";
type = Stem;
},
{
horizontal = 1;
place = "{154, 57}";
type = Stem;
},
{
horizontal = 1;
place = "{638, 44}";
type = Stem;
},
{
place = "{102, 45}";
type = Stem;
},
{
place = "{357, 46}";
type = Stem;
},
{
horizontal = 1;
place = "{-6, 37}";
type = Stem;
},
{
place = "{174, 20}";
type = Stem;
}
);
layerId = "96B4F23F-F25B-4934-A27A-69E4A96ADD36";
paths = (
{
closed = 1;
nodes = (
"391 -9 OFFCURVE",
"352 -9 OFFCURVE",
"340 46 CURVE",
"367 92 OFFCURVE",
"396 189 OFFCURVE",
"403 280 CURVE SMOOTH",
"407 341 OFFCURVE",
"405 400 OFFCURVE",
"397 453 CURVE SMOOTH",
"385 534 OFFCURVE",
"360 602 OFFCURVE",
"333 639 CURVE SMOOTH",
"275 719 OFFCURVE",
"181 683 OFFCURVE",
"139 575 CURVE SMOOTH",
"126 542 OFFCURVE",
"116 501 OFFCURVE",
"110 454 CURVE SMOOTH",
"106 424 OFFCURVE",
"103 392 OFFCURVE",
"102 358 CURVE SMOOTH",
"98 217 OFFCURVE",
"124 118 OFFCURVE",
"163 42 CURVE",
"179 47 OFFCURVE",
"179 22 OFFCURVE",
"188 15 CURVE",
"233 -7 OFFCURVE",
"261 -14 OFFCURVE",
"309 6 CURVE",
"322 -29 OFFCURVE",
"346 -67 OFFCURVE",
"376 -67 CURVE SMOOTH",
"397 -67 OFFCURVE",
"415 -47 OFFCURVE",
"417 10 CURVE"
);
},
{
closed = 1;
nodes = (
"357 228 OFFCURVE",
"350 125 OFFCURVE",
"319 88 CURVE",
"299 136 OFFCURVE",
"275 215 OFFCURVE",
"233 211 CURVE SMOOTH",
"206 208 OFFCURVE",
"188 168 OFFCURVE",
"174 125 CURVE",
"142 179 OFFCURVE",
"143 337 OFFCURVE",
"153 435 CURVE SMOOTH",
"154 441 OFFCURVE",
"155 448 OFFCURVE",
"156 454 CURVE SMOOTH",
"162 494 OFFCURVE",
"173 533 OFFCURVE",
"184 558 CURVE SMOOTH",
"204 605 OFFCURVE",
"254 661 OFFCURVE",
"294 628 CURVE SMOOTH",
"320 606 OFFCURVE",
"339 536 OFFCURVE",
"349 453 CURVE SMOOTH",
"354 409 OFFCURVE",
"357 362 OFFCURVE",
"357 317 CURVE SMOOTH"
);
},
{
closed = 1;
nodes = (
"284 38 OFFCURVE",
"266 31 OFFCURVE",
"248 31 CURVE SMOOTH",
"222 31 OFFCURVE",
"196 48 OFFCURVE",
"194 84 CURVE SMOOTH",
"191 126 OFFCURVE",
"225 172 OFFCURVE",
"252 147 CURVE SMOOTH",
"273 128 OFFCURVE",
"283 77 OFFCURVE",
"294 54 CURVE"
);
}
);
vertWidth = 1000;
width = 500;
}
);
note = cid00280;
},
{
glyphname = R.half;
lastChange = "2020-12-04 07:33:56 +0000";
layers = (
{
hints = (
{
horizontal = 1;
place = "{303, 39}";
type = Stem;
},
{
horizontal = 1;
place = "{611, 45}";
type = Stem;
},
{
place = "{159, 36}";
type = Stem;
},
{
place = "{313, 46}";
type = Stem;
}
);
layerId = "96B4F23F-F25B-4934-A27A-69E4A96ADD36";
paths = (
{
closed = 1;
nodes = (
"406 58 OFFCURVE",
"378 64 OFFCURVE",
"364 81 CURVE",
"343 176 OFFCURVE",
"327 278 OFFCURVE",
"285 329 CURVE",
"314 335 OFFCURVE",
"322 383 OFFCURVE",
"345 402 CURVE",
"347 421 OFFCURVE",
"351 437 OFFCURVE",
"355 453 CURVE SMOOTH",
"356 459 OFFCURVE",
"358 464 OFFCURVE",
"359 470 CURVE",
"362 540 OFFCURVE",
"352 584 OFFCURVE",
"334 612 CURVE SMOOTH",
"302 661 OFFCURVE",
"245 660 OFFCURVE",
"188 653 CURVE SMOOTH",
"164 650 OFFCURVE",
"135 659 OFFCURVE",
"117 639 CURVE",
"114 628 OFFCURVE",
"120 624 OFFCURVE",
"119 611 CURVE",
"129 594 OFFCURVE",
"142 611 OFFCURVE",
"154 601 CURVE",
"156 454 LINE SMOOTH",
"157 329 OFFCURVE",
"158 213 OFFCURVE",
"159 81 CURVE",
"156 65 OFFCURVE",
"145 59 OFFCURVE",
"137 50 CURVE SMOOTH",
"128 41 OFFCURVE",
"121 29 OFFCURVE",
"126 1 CURVE",
"138 10 OFFCURVE",
"163 6 OFFCURVE",
"187 6 CURVE SMOOTH",
"208 6 OFFCURVE",
"229 8 OFFCURVE",
"237 29 CURVE",
"228 55 OFFCURVE",
"202 46 OFFCURVE",
"195 75 CURVE",
"199 151 OFFCURVE",
"192 226 OFFCURVE",
"195 304 CURVE",
"207 301 OFFCURVE",
"228 308 OFFCURVE",
"246 303 CURVE SMOOTH",
"270 296 OFFCURVE",
"284 263 OFFCURVE",
"294 217 CURVE SMOOTH",
"310 149 OFFCURVE",
"318 60 OFFCURVE",
"338 13 CURVE",
"357 3 OFFCURVE",
"376 -4 OFFCURVE",
"398 8 CURVE"
);
},
{
closed = 1;
nodes = (
"313 479 OFFCURVE",
"312 465 OFFCURVE",
"311 453 CURVE SMOOTH",
"307 424 OFFCURVE",
"298 399 OFFCURVE",
"286 379 CURVE SMOOTH",
"264 345 OFFCURVE",
"227 335 OFFCURVE",
"195 346 CURVE",
"192 382 OFFCURVE",
"192 419 OFFCURVE",
"193 454 CURVE SMOOTH",
"194 478 OFFCURVE",
"195 502 OFFCURVE",
"195 524 CURVE SMOOTH",
"195 556 OFFCURVE",
"190 594 OFFCURVE",
"198 611 CURVE",
"238 612 OFFCURVE",
"270 621 OFFCURVE",
"299 590 CURVE",
"309 556 OFFCURVE",
"313 523 OFFCURVE",
"313 492 CURVE SMOOTH"
);
}
);
vertWidth = 1000;
width = 500;
}
);
note = cid00281;
},
{
glyphname = S.half;
lastChange = "2020-12-04 07:33:56 +0000";
layers = (
{
hints = (
{
horizontal = 1;
place = "{-6, 39}";
type = Stem;
},
{
horizontal = 1;
place = "{627, 42}";
type = Stem;
},
{
place = "{165, 34}";
type = Stem;
},
{
place = "{329, 38}";
type = Stem;
},
{
place = "{159, 11}";
type = Stem;
},
{
place = "{325, 25}";
type = Stem;
},
{
horizontal = 1;
place = "{674, -20}";
target = down;
type = TopGhost;
}
);
layerId = "96B4F23F-F25B-4934-A27A-69E4A96ADD36";
paths = (
{
closed = 1;
nodes = (
"376 228 OFFCURVE",
"353 287 OFFCURVE",
"320 331 CURVE SMOOTH",
"285 379 OFFCURVE",
"239 409 OFFCURVE",
"215 454 CURVE SMOOTH",
"214 456 OFFCURVE",
"213 458 OFFCURVE",
"212 460 CURVE SMOOTH",
"207 471 OFFCURVE",
"200 491 OFFCURVE",
"199 506 CURVE SMOOTH",
"195 544 OFFCURVE",
"199 572 OFFCURVE",
"209 592 CURVE SMOOTH",
"220 616 OFFCURVE",
"239 627 OFFCURVE",
"259 627 CURVE SMOOTH",
"284 627 OFFCURVE",
"310 611 OFFCURVE",
"325 583 CURVE",
"325 538 OFFCURVE",
"325 493 OFFCURVE",
"346 490 CURVE",
"355 524 OFFCURVE",
"356 621 OFFCURVE",
"350 669 CURVE",
"337 685 OFFCURVE",
"335 656 OFFCURVE",
"328 649 CURVE",
"284 686 OFFCURVE",
"225 668 OFFCURVE",
"186 633 CURVE",
"172 599 OFFCURVE",
"165 556 OFFCURVE",
"165 514 CURVE SMOOTH",
"165 493 OFFCURVE",
"166 473 OFFCURVE",
"169 454 CURVE SMOOTH",
"174 416 OFFCURVE",
"185 383 OFFCURVE",
"201 363 CURVE SMOOTH",
"208 354 OFFCURVE",
"219 349 OFFCURVE",
"229 338 CURVE SMOOTH",
"237 328 OFFCURVE",
"244 311 OFFCURVE",
"252 301 CURVE SMOOTH",
"274 275 OFFCURVE",
"298 262 OFFCURVE",
"314 233 CURVE SMOOTH",
"326 210 OFFCURVE",
"333 178 OFFCURVE",
"329 121 CURVE",
"322 71 OFFCURVE",
"285 34 OFFCURVE",
"252 33 CURVE SMOOTH",
"235 33 OFFCURVE",
"218 42 OFFCURVE",
"207 65 CURVE SMOOTH",
"196 87 OFFCURVE",
"195 118 OFFCURVE",
"192 147 CURVE SMOOTH",
"189 175 OFFCURVE",
"185 200 OFFCURVE",
"170 211 CURVE",
"158 166 OFFCURVE",
"153 38 OFFCURVE",
"168 -9 CURVE",
"186 -37 OFFCURVE",
"187 10 OFFCURVE",
"204 16 CURVE",
"239 -11 OFFCURVE",
"274 -12 OFFCURVE",
"304 8 CURVE SMOOTH",
"333 28 OFFCURVE",
"356 71 OFFCURVE",
"364 130 CURVE SMOOTH"
);
}
);
vertWidth = 1000;
width = 500;
}
);
note = cid00282;
},
{
glyphname = T.half;
lastChange = "2020-12-04 07:33:56 +0000";
layers = (
{
hints = (
{
horizontal = 1;
place = "{476, -20}";
target = down;
type = TopGhost;
},
{
horizontal = 1;
place = "{598, 57}";
type = Stem;
},
{
place = "{121, 24}";
type = Stem;
},
{
place = "{232, 39}";
type = Stem;
},
{
place = "{354, 34}";
type = Stem;
},
{
horizontal = 1;
place = "{601, 48}";
type = Stem;
}
);
layerId = "96B4F23F-F25B-4934-A27A-69E4A96ADD36";
paths = (
{
closed = 1;
nodes = (
"366 673 OFFCURVE",
"314 649 OFFCURVE",
"268 649 CURVE SMOOTH",
"222 649 OFFCURVE",
"163 656 OFFCURVE",
"121 641 CURVE",
"113 597 OFFCURVE",
"116 530 OFFCURVE",
"112 476 CURVE",
"118 470 OFFCURVE",
"119 455 OFFCURVE",
"129 457 CURVE",
"146 478 OFFCURVE",
"140 543 OFFCURVE",
"145 587 CURVE",
"167 594 OFFCURVE",
"201 608 OFFCURVE",
"230 598 CURVE",
"231 549 OFFCURVE",
"232 502 OFFCURVE",
"232 454 CURVE SMOOTH",
"232 334 OFFCURVE",
"231 216 OFFCURVE",
"232 92 CURVE",
"226 68 OFFCURVE",
"208 47 OFFCURVE",
"197 57 CURVE",
"194 48 OFFCURVE",
"189 39 OFFCURVE",
"189 28 CURVE SMOOTH",
"190 -8 OFFCURVE",
"212 6 OFFCURVE",
"227 6 CURVE SMOOTH",
"255 7 OFFCURVE",
"304 -9 OFFCURVE",
"311 25 CURVE",
"306 56 OFFCURVE",
"282 49 OFFCURVE",
"272 68 CURVE",
"269 194 OFFCURVE",
"271 327 OFFCURVE",
"271 454 CURVE SMOOTH",
"272 503 OFFCURVE",
"272 551 OFFCURVE",
"272 598 CURVE",
"296 602 OFFCURVE",
"332 599 OFFCURVE",
"354 587 CURVE",
"359 565 OFFCURVE",
"359 531 OFFCURVE",
"362 503 CURVE SMOOTH",
"365 479 OFFCURVE",
"370 460 OFFCURVE",
"382 457 CURVE",
"392 479 OFFCURVE",
"390 514 OFFCURVE",
"388 547 CURVE SMOOTH",
"387 575 OFFCURVE",
"386 603 OFFCURVE",
"394 622 CURVE"
);
}
);
vertWidth = 1000;
width = 500;
}
);
note = cid00283;
},
{
glyphname = U.half;
lastChange = "2020-12-04 07:33:56 +0000";
layers = (
{
hints = (
{
horizontal = 1;
place = "{-13, 52}";
type = Stem;
},
{
horizontal = 1;
place = "{641, 19}";
type = Stem;
},
{
place = "{134, 38}";
type = Stem;
},
{
place = "{349, 21}";
type = Stem;
}
);
layerId = "96B4F23F-F25B-4934-A27A-69E4A96ADD36";
paths = (
{
closed = 1;
nodes = (
"398 665 OFFCURVE",
"336 672 OFFCURVE",
"312 641 CURVE",
"317 608 OFFCURVE",
"336 600 OFFCURVE",
"346 577 CURVE",
"346 539 OFFCURVE",
"346 496 OFFCURVE",
"347 453 CURVE SMOOTH",
"348 408 OFFCURVE",
"349 364 OFFCURVE",
"349 321 CURVE SMOOTH",
"349 204 OFFCURVE",
"342 99 OFFCURVE",
"303 58 CURVE SMOOTH",
"269 23 OFFCURVE",
"220 41 OFFCURVE",
"198 77 CURVE SMOOTH",
"177 112 OFFCURVE",
"172 195 OFFCURVE",
"172 285 CURVE SMOOTH",
"172 340 OFFCURVE",
"175 401 OFFCURVE",
"176 454 CURVE SMOOTH",
"177 473 OFFCURVE",
"177 490 OFFCURVE",
"177 506 CURVE SMOOTH",
"178 536 OFFCURVE",
"172 581 OFFCURVE",
"181 606 CURVE",
"193 600 OFFCURVE",
"206 601 OFFCURVE",
"216 609 CURVE",
"215 646 OFFCURVE",
"195 654 OFFCURVE",
"171 655 CURVE SMOOTH",
"149 656 OFFCURVE",
"123 650 OFFCURVE",
"107 657 CURVE",
"100 647 OFFCURVE",
"96 631 OFFCURVE",
"99 618 CURVE",
"109 608 OFFCURVE",
"127 606 OFFCURVE",
"136 606 CURVE",
"136 556 OFFCURVE",
"135 505 OFFCURVE",
"134 454 CURVE SMOOTH",
"133 378 OFFCURVE",
"132 302 OFFCURVE",
"134 231 CURVE SMOOTH",
"139 78 OFFCURVE",
"187 -13 OFFCURVE",
"264 -13 CURVE SMOOTH",
"285 -13 OFFCURVE",
"325 6 OFFCURVE",
"338 35 CURVE SMOOTH",
"345 49 OFFCURVE",
"354 86 OFFCURVE",
"360 113 CURVE SMOOTH",
"366 136 OFFCURVE",
"372 158 OFFCURVE",
"373 183 CURVE SMOOTH",
"375 219 OFFCURVE",
"370 256 OFFCURVE",
"370 286 CURVE SMOOTH",
"370 346 OFFCURVE",
"371 398 OFFCURVE",
"371 453 CURVE SMOOTH",
"372 493 OFFCURVE",
"372 533 OFFCURVE",
"372 577 CURVE",
"385 599 OFFCURVE",
"408 599 OFFCURVE",
"417 628 CURVE"
);
}
);
vertWidth = 1000;
width = 500;
}
);
note = cid00284;
},
{
glyphname = V.half;
lastChange = "2020-12-04 07:33:56 +0000";
layers = (
{
hints = (
{
horizontal = 1;
place = "{-16, 21}";
target = up;
type = BottomGhost;
},
{
horizontal = 1;
place = "{625, 33}";
type = Stem;
},
{
place = "{99, 313}";
type = Stem;
}
);
layerId = "96B4F23F-F25B-4934-A27A-69E4A96ADD36";
paths = (
{
closed = 1;
nodes = (
"408 641 OFFCURVE",
"396 652 OFFCURVE",
"384 655 CURVE SMOOTH",
"357 661 OFFCURVE",
"307 664 OFFCURVE",
"304 625 CURVE",
"314 608 OFFCURVE",
"334 610 OFFCURVE",
"342 589 CURVE",
"337 542 OFFCURVE",
"332 497 OFFCURVE",
"325 453 CURVE SMOOTH",
"307 328 OFFCURVE",
"281 214 OFFCURVE",
"258 102 CURVE",
"243 220 OFFCURVE",
"220 338 OFFCURVE",
"202 454 CURVE SMOOTH",
"194 502 OFFCURVE",
"188 549 OFFCURVE",
"183 596 CURVE",
"192 599 OFFCURVE",
"209 611 OFFCURVE",
"221 623 CURVE",
"210 651 OFFCURVE",
"194 658 OFFCURVE",
"176 659 CURVE SMOOTH",
"154 660 OFFCURVE",
"130 651 OFFCURVE",
"106 654 CURVE",
"103 640 OFFCURVE",
"95 628 OFFCURVE",
"101 607 CURVE",
"112 599 OFFCURVE",
"123 615 OFFCURVE",
"135 607 CURVE",
"145 558 OFFCURVE",
"154 507 OFFCURVE",
"163 454 CURVE SMOOTH",
"189 301 OFFCURVE",
"210 135 OFFCURVE",
"239 -8 CURVE",
"247 -12 OFFCURVE",
"256 -22 OFFCURVE",
"265 -12 CURVE",
"271 2 OFFCURVE",
"274 21 OFFCURVE",
"281 34 CURVE",
"301 183 OFFCURVE",
"329 310 OFFCURVE",
"350 453 CURVE SMOOTH",
"355 484 OFFCURVE",
"359 516 OFFCURVE",
"363 549 CURVE",
"376 582 OFFCURVE",
"398 598 OFFCURVE",
"412 628 CURVE"
);
}
);
vertWidth = 1000;
width = 500;
}
);
note = cid00285;
},
{
glyphname = W.half;
lastChange = "2020-12-04 07:33:56 +0000";
layers = (
{
hints = (
{
horizontal = 1;
place = "{-2, 21}";
target = up;
type = BottomGhost;
},
{
place = "{46, 7}";
type = Stem;
},
{
place = "{85, 32}";
type = Stem;
},
{
place = "{154, 21}";
type = Stem;
},
{
place = "{324, 24}";
type = Stem;
}
);
layerId = "96B4F23F-F25B-4934-A27A-69E4A96ADD36";
paths = (
{
closed = 1;
nodes = (
"454 642 OFFCURVE",
"424 657 OFFCURVE",
"399 657 CURVE SMOOTH",
"380 657 OFFCURVE",
"363 648 OFFCURVE",
"362 624 CURVE",
"367 608 OFFCURVE",
"377 608 OFFCURVE",
"385 604 CURVE SMOOTH",
"392 601 OFFCURVE",
"397 594 OFFCURVE",
"399 576 CURVE SMOOTH",
"402 553 OFFCURVE",
"392 504 OFFCURVE",
"388 467 CURVE SMOOTH",
"386 453 LINE SMOOTH",
"375 347 OFFCURVE",
"354 234 OFFCURVE",
"338 159 CURVE",
"328 249 OFFCURVE",
"312 353 OFFCURVE",
"299 453 CURVE SMOOTH",
"291 515 OFFCURVE",
"284 576 OFFCURVE",
"280 631 CURVE",
"273 638 OFFCURVE",
"265 645 OFFCURVE",
"254 644 CURVE",
"242 584 OFFCURVE",
"232 520 OFFCURVE",
"223 454 CURVE SMOOTH",
"208 345 OFFCURVE",
"194 232 OFFCURVE",
"174 133 CURVE",
"159 235 OFFCURVE",
"148 347 OFFCURVE",
"136 454 CURVE SMOOTH",
"130 502 OFFCURVE",
"124 548 OFFCURVE",
"117 592 CURVE",
"127 598 OFFCURVE",
"147 605 OFFCURVE",
"158 620 CURVE",
"148 651 OFFCURVE",
"133 657 OFFCURVE",
"115 657 CURVE SMOOTH",
"96 657 OFFCURVE",
"75 649 OFFCURVE",
"53 655 CURVE",
"47 648 OFFCURVE",
"41 636 OFFCURVE",
"50 612 CURVE",
"63 599 OFFCURVE",
"71 615 OFFCURVE",
"87 608 CURVE",
"85 598 OFFCURVE",
"85 587 OFFCURVE",
"85 573 CURVE",
"91 535 OFFCURVE",
"95 495 OFFCURVE",
"100 454 CURVE SMOOTH",
"106 397 OFFCURVE",
"111 338 OFFCURVE",
"117 281 CURVE SMOOTH",
"127 184 OFFCURVE",
"137 86 OFFCURVE",
"154 2 CURVE",
"160 1 OFFCURVE",
"170 -7 OFFCURVE",
"175 2 CURVE",
"178 36 OFFCURVE",
"186 58 OFFCURVE",
"195 77 CURVE",
"198 193 OFFCURVE",
"231 263 OFFCURVE",
"232 371 CURVE",
"242 391 OFFCURVE",
"244 423 OFFCURVE",
"247 454 CURVE SMOOTH",
"249 478 OFFCURVE",
"251 503 OFFCURVE",
"258 522 CURVE",
"260 501 OFFCURVE",
"263 477 OFFCURVE",
"266 453 CURVE SMOOTH",
"278 350 OFFCURVE",
"297 223 OFFCURVE",
"309 128 CURVE SMOOTH",
"313 101 OFFCURVE",
"315 45 OFFCURVE",
"324 19 CURVE SMOOTH",
"329 2 OFFCURVE",
"336 -3 OFFCURVE",
"348 18 CURVE",
"346 65 OFFCURVE",
"361 99 OFFCURVE",
"368 140 CURVE SMOOTH",
"374 176 OFFCURVE",
"373 218 OFFCURVE",
"378 258 CURVE SMOOTH",
"380 270 OFFCURVE",
"386 282 OFFCURVE",
"388 294 CURVE SMOOTH",
"393 324 OFFCURVE",
"397 361 OFFCURVE",
"401 393 CURVE SMOOTH",
"404 414 OFFCURVE",
"407 434 OFFCURVE",
"410 453 CURVE SMOOTH",
"414 480 OFFCURVE",
"417 507 OFFCURVE",
"419 538 CURVE",
"430 544 OFFCURVE",
"429 573 OFFCURVE",
"435 589 CURVE",
"447 597 OFFCURVE",
"455 611 OFFCURVE",
"462 628 CURVE"
);
}
);
vertWidth = 1000;
width = 500;
}
);
note = cid00286;
},
{
glyphname = X.half;
lastChange = "2020-12-04 07:33:56 +0000";
layers = (
{
hints = (
{
horizontal = 1;
place = "{-3, 21}";
target = up;
type = BottomGhost;
},
{
horizontal = 1;
place = "{661, -20}";
target = down;
type = TopGhost;
},
{
place = "{146, 82}";
type = Stem;
},
{
horizontal = 1;
place = "{662, -20}";
target = down;
type = TopGhost;
},
{
horizontal = 1;
place = "{606, 51}";
type = Stem;
},
{
horizontal = 1;
place = "{-10, 21}";
target = up;
type = BottomGhost;
},
{
place = "{102, 67}";
type = Stem;
},
{
horizontal = 1;
place = "{4, 21}";
type = Stem;
}
);
layerId = "96B4F23F-F25B-4934-A27A-69E4A96ADD36";
paths = (
{
closed = 1;
nodes = (
"400 656 OFFCURVE",
"386 661 OFFCURVE",
"369 661 CURVE SMOOTH",
"349 661 OFFCURVE",
"326 653 OFFCURVE",
"305 658 CURVE",
"302 642 OFFCURVE",
"293 640 OFFCURVE",
"295 615 CURVE",
"307 601 OFFCURVE",
"324 610 OFFCURVE",
"336 603 CURVE",
"321 551 OFFCURVE",
"301 503 OFFCURVE",
"282 454 CURVE SMOOTH",
"279 446 LINE SMOOTH",
"276 436 OFFCURVE",
"260 398 OFFCURVE",
"258 399 CURVE SMOOTH",
"254 400 OFFCURVE",
"244 441 OFFCURVE",
"242 449 CURVE SMOOTH",
"240 454 LINE SMOOTH",
"224 508 OFFCURVE",
"203 550 OFFCURVE",
"191 599 CURVE",
"203 608 OFFCURVE",
"219 607 OFFCURVE",
"228 622 CURVE",
"223 655 OFFCURVE",
"208 662 OFFCURVE",
"190 662 CURVE SMOOTH",
"166 662 OFFCURVE",
"136 650 OFFCURVE",
"116 662 CURVE",
"113 648 OFFCURVE",
"109 638 OFFCURVE",
"108 619 CURVE",
"118 611 OFFCURVE",
"129 606 OFFCURVE",
"143 606 CURVE",
"140 593 OFFCURVE",
"146 587 OFFCURVE",
"146 579 CURVE",
"166 543 OFFCURVE",
"181 500 OFFCURVE",
"196 454 CURVE SMOOTH",
"208 414 OFFCURVE",
"220 373 OFFCURVE",
"232 332 CURVE",
"206 271 OFFCURVE",
"188 194 OFFCURVE",
"161 134 CURVE SMOOTH",
"146 101 OFFCURVE",
"129 74 OFFCURVE",
"106 57 CURVE",
"104 41 OFFCURVE",
"101 26 OFFCURVE",
"102 2 CURVE",
"126 18 OFFCURVE",
"171 -4 OFFCURVE",
"206 6 CURVE",
"206 18 OFFCURVE",
"212 19 OFFCURVE",
"210 33 CURVE",
"204 46 OFFCURVE",
"194 50 OFFCURVE",
"185 54 CURVE SMOOTH",
"177 58 OFFCURVE",
"169 63 OFFCURVE",
"169 80 CURVE SMOOTH",
"169 94 OFFCURVE",
"179 105 OFFCURVE",
"183 115 CURVE SMOOTH",
"205 174 OFFCURVE",
"230 236 OFFCURVE",
"252 285 CURVE",
"275 215 OFFCURVE",
"301 151 OFFCURVE",
"320 73 CURVE",
"315 56 OFFCURVE",
"303 52 OFFCURVE",
"291 48 CURVE",
"284 41 OFFCURVE",
"285 21 OFFCURVE",
"287 9 CURVE",
"297 5 OFFCURVE",
"302 -7 OFFCURVE",
"312 -10 CURVE",
"327 17 OFFCURVE",
"357 -3 OFFCURVE",
"379 -3 CURVE SMOOTH",
"391 -3 OFFCURVE",
"401 3 OFFCURVE",
"405 25 CURVE",
"391 36 OFFCURVE",
"377 60 OFFCURVE",
"365 64 CURVE",
"347 181 OFFCURVE",
"302 245 OFFCURVE",
"277 348 CURVE",
"289 383 OFFCURVE",
"301 418 OFFCURVE",
"314 453 CURVE SMOOTH",
"333 505 OFFCURVE",
"352 556 OFFCURVE",
"373 603 CURVE",
"384 615 OFFCURVE",
"405 607 OFFCURVE",
"409 634 CURVE"
);
}
);
vertWidth = 1000;
width = 500;
}
);
note = cid00287;
},
{
glyphname = Y.half;
lastChange = "2020-12-04 07:33:56 +0000";
layers = (
{
hints = (
{
horizontal = 1;
place = "{618, 42}";
type = Stem;
},
{
place = "{234, 35}";
type = Stem;
},
{
horizontal = 1;
place = "{606, 54}";
type = Stem;
},
{
place = "{100, 118}";
type = Stem;
},
{
place = "{296, 8}";
type = Stem;
},
{
place = "{281, 31}";
type = Stem;
}
);
layerId = "96B4F23F-F25B-4934-A27A-69E4A96ADD36";
paths = (
{
closed = 1;
nodes = (
"407 651 OFFCURVE",
"392 660 OFFCURVE",
"372 660 CURVE SMOOTH",
"351 660 OFFCURVE",
"326 651 OFFCURVE",
"304 656 CURVE",
"295 646 OFFCURVE",
"292 612 OFFCURVE",
"302 602 CURVE",
"315 603 OFFCURVE",
"333 608 OFFCURVE",
"342 606 CURVE",
"326 554 OFFCURVE",
"308 504 OFFCURVE",
"291 454 CURVE SMOOTH",
"281 426 OFFCURVE",
"271 398 OFFCURVE",
"261 370 CURVE",
"251 397 OFFCURVE",
"240 426 OFFCURVE",
"229 454 CURVE SMOOTH",
"210 505 OFFCURVE",
"191 556 OFFCURVE",
"178 606 CURVE",
"194 606 OFFCURVE",
"209 608 OFFCURVE",
"218 621 CURVE",
"214 653 OFFCURVE",
"197 661 OFFCURVE",
"177 660 CURVE SMOOTH",
"155 659 OFFCURVE",
"128 649 OFFCURVE",
"107 656 CURVE",
"103 648 OFFCURVE",
"97 643 OFFCURVE",
"100 621 CURVE",
"103 620 OFFCURVE",
"103 614 OFFCURVE",
"104 611 CURVE",
"116 605 OFFCURVE",
"125 610 OFFCURVE",
"135 606 CURVE",
"137 601 OFFCURVE",
"138 589 OFFCURVE",
"138 579 CURVE",
"141 573 OFFCURVE",
"148 573 OFFCURVE",
"149 563 CURVE",
"161 528 OFFCURVE",
"172 491 OFFCURVE",
"184 454 CURVE SMOOTH",
"193 428 OFFCURVE",
"201 402 OFFCURVE",
"210 378 CURVE SMOOTH",
"220 352 OFFCURVE",
"232 325 OFFCURVE",
"234 299 CURVE SMOOTH",
"238 253 OFFCURVE",
"234 121 OFFCURVE",
"234 87 CURVE",
"223 59 OFFCURVE",
"194 63 OFFCURVE",
"196 9 CURVE",
"234 -3 OFFCURVE",
"271 9 OFFCURVE",
"306 1 CURVE",
"317 18 OFFCURVE",
"312 35 OFFCURVE",
"304 44 CURVE SMOOTH",
"296 52 OFFCURVE",
"287 58 OFFCURVE",
"281 71 CURVE",
"279 64 OFFCURVE",
"275 63 OFFCURVE",
"273 68 CURVE",
"267 129 OFFCURVE",
"274 240 OFFCURVE",
"269 303 CURVE",
"276 315 OFFCURVE",
"285 339 OFFCURVE",
"292 362 CURVE SMOOTH",
"299 383 OFFCURVE",
"308 398 OFFCURVE",
"316 421 CURVE SMOOTH",
"320 431 OFFCURVE",
"323 442 OFFCURVE",
"326 453 CURVE SMOOTH",
"338 494 OFFCURVE",
"348 539 OFFCURVE",
"363 571 CURVE SMOOTH",
"375 597 OFFCURVE",
"390 615 OFFCURVE",
"412 618 CURVE"
);
}
);
vertWidth = 1000;
width = 500;
}
);
note = cid00288;
},
{
glyphname = Z.half;
lastChange = "2020-12-04 07:33:56 +0000";
layers = (
{
hints = (
{
horizontal = 1;
place = "{0, 66}";
type = Stem;
},
{
horizontal = 1;
place = "{614, 49}";
type = Stem;
},
{
place = "{146, 26}";
type = Stem;
},
{
place = "{130, 52}";
type = Stem;
}
);
layerId = "96B4F23F-F25B-4934-A27A-69E4A96ADD36";
paths = (
{
closed = 1;
nodes = (
"377 649 OFFCURVE",
"367 661 OFFCURVE",
"357 663 CURVE SMOOTH",
"296 674 OFFCURVE",
"198 645 OFFCURVE",
"153 651 CURVE",
"151 611 OFFCURVE",
"137 499 OFFCURVE",
"157 464 CURVE",
"169 471 OFFCURVE",
"171 498 OFFCURVE",
"172 527 CURVE SMOOTH",
"173 554 OFFCURVE",
"174 583 OFFCURVE",
"180 600 CURVE",
"219 621 OFFCURVE",
"270 614 OFFCURVE",
"314 605 CURVE",
"298 556 OFFCURVE",
"281 506 OFFCURVE",
"263 454 CURVE SMOOTH",
"227 345 OFFCURVE",
"189 231 OFFCURVE",
"155 121 CURVE SMOOTH",
"141 76 OFFCURVE",
"121 53 OFFCURVE",
"135 0 CURVE",
"196 24 OFFCURVE",
"290 5 OFFCURVE",
"357 0 CURVE",
"360 10 OFFCURVE",
"367 14 OFFCURVE",
"373 19 CURVE",
"373 33 OFFCURVE",
"375 46 OFFCURVE",
"379 66 CURVE",
"366 89 OFFCURVE",
"371 128 OFFCURVE",
"372 163 CURVE SMOOTH",
"372 182 OFFCURVE",
"371 199 OFFCURVE",
"365 212 CURVE",
"350 209 OFFCURVE",
"353 172 OFFCURVE",
"349 152 CURVE SMOOTH",
"342 121 OFFCURVE",
"331 93 OFFCURVE",
"323 70 CURVE",
"278 61 OFFCURVE",
"233 68 OFFCURVE",
"182 66 CURVE",
"223 199 OFFCURVE",
"264 331 OFFCURVE",
"309 454 CURVE SMOOTH",
"331 516 OFFCURVE",
"355 575 OFFCURVE",
"381 631 CURVE"
);
}
);
vertWidth = 1000;
width = 500;
}
);
note = cid00289;
},
{
glyphname = A.rotat;
lastChange = "2020-12-04 07:33:58 +0000";
layers = (
{
hints = (
{
horizontal = 1;
place = "{186, 652}";
type = Stem;
},
{
place = "{128, 70}";
type = Stem;
},
{
place = "{355, 52}";
type = Stem;
}
);
layerId = "96B4F23F-F25B-4934-A27A-69E4A96ADD36";
paths = (
{
closed = 1;
nodes = (
"179 180 OFFCURVE",
"183 219 OFFCURVE",
"189 247 CURVE",
"212 243 OFFCURVE",
"219 268 OFFCURVE",
"238 277 CURVE SMOOTH",
"250 283 OFFCURVE",
"274 289 OFFCURVE",
"287 293 CURVE SMOOTH",
"375 320 OFFCURVE",
"479 356 OFFCURVE",
"573 390 CURVE SMOOTH",
"618 407 OFFCURVE",
"661 423 OFFCURVE",
"699 438 CURVE",
"737 425 OFFCURVE",
"746 461 OFFCURVE",
"788 445 CURVE",
"795 463 OFFCURVE",
"792 495 OFFCURVE",
"788 514 CURVE",
"728 545 OFFCURVE",
"652 576 OFFCURVE",
"574 605 CURVE SMOOTH",
"498 634 OFFCURVE",
"419 661 OFFCURVE",
"350 689 CURVE SMOOTH",
"308 706 OFFCURVE",
"256 718 OFFCURVE",
"225 747 CURVE SMOOTH",
"206 764 OFFCURVE",
"195 789 OFFCURVE",
"198 822 CURVE",
"182 826 OFFCURVE",
"173 837 OFFCURVE",
"153 838 CURVE",
"148 827 OFFCURVE",
"134 825 OFFCURVE",
"125 818 CURVE",
"143 765 OFFCURVE",
"118 677 OFFCURVE",
"132 607 CURVE",
"164 600 OFFCURVE",
"176 615 OFFCURVE",
"181 635 CURVE SMOOTH",
"187 658 OFFCURVE",
"186 686 OFFCURVE",
"201 693 CURVE",
"235 677 OFFCURVE",
"326 642 OFFCURVE",
"350 629 CURVE",
"354 562 OFFCURVE",
"358 466 OFFCURVE",
"355 393 CURVE",
"331 388 OFFCURVE",
"236 348 OFFCURVE",
"198 356 CURVE",
"193 385 OFFCURVE",
"179 427 OFFCURVE",
"140 409 CURVE",
"136 383 OFFCURVE",
"126 309 OFFCURVE",
"128 253 CURVE SMOOTH",
"129 218 OFFCURVE",
"135 190 OFFCURVE",
"149 187 CURVE SMOOTH"
);
},
{
closed = 1;
nodes = (
"408 446 OFFCURVE",
"410 572 OFFCURVE",
"407 607 CURVE",
"431 598 OFFCURVE",
"507 570 OFFCURVE",
"574 545 CURVE SMOOTH",
"677 507 LINE",
"649 492 OFFCURVE",
"612 477 OFFCURVE",
"574 464 CURVE SMOOTH",
"509 442 OFFCURVE",
"441 424 OFFCURVE",
"416 414 CURVE"
);
}
);
vertWidth = 738;
width = 1000;
}
);
note = cid08753;
},
{
glyphname = B.rotat;
lastChange = "2020-12-04 07:33:58 +0000";
layers = (
{
hints = (
{
horizontal = 1;
place = "{279, 93}";
type = Stem;
},
{
horizontal = 1;
place = "{630, 78}";
type = Stem;
},
{
place = "{133, 40}";
type = Stem;
},
{
place = "{447, 44}";
type = Stem;
},
{
place = "{720, 52}";
type = Stem;
},
{
horizontal = 1;
place = "{302, 91}";
type = Stem;
},
{
place = "{730, 47}";
type = Stem;
}
);
layerId = "96B4F23F-F25B-4934-A27A-69E4A96ADD36";
paths = (
{
closed = 1;
nodes = (
"420 317 OFFCURVE",
"455 367 OFFCURVE",
"479 430 CURVE",
"482 389 OFFCURVE",
"508 353 OFFCURVE",
"544 329 CURVE SMOOTH",
"553 323 OFFCURVE",
"563 318 OFFCURVE",
"573 314 CURVE SMOOTH",
"612 298 OFFCURVE",
"658 297 OFFCURVE",
"697 320 CURVE SMOOTH",
"730 339 OFFCURVE",
"765 406 OFFCURVE",
"772 459 CURVE SMOOTH",
"785 557 OFFCURVE",
"771 682 OFFCURVE",
"768 776 CURVE",
"761 794 OFFCURVE",
"737 784 OFFCURVE",
"725 780 CURVE",
"718 763 OFFCURVE",
"738 727 OFFCURVE",
"725 716 CURVE",
"678 712 OFFCURVE",
"627 710 OFFCURVE",
"574 708 CURVE SMOOTH",
"440 704 OFFCURVE",
"295 706 OFFCURVE",
"173 712 CURVE",
"175 737 OFFCURVE",
"171 756 OFFCURVE",
"165 772 CURVE",
"149 773 OFFCURVE",
"150 795 OFFCURVE",
"126 783 CURVE",
"120 668 OFFCURVE",
"140 571 OFFCURVE",
"130 455 CURVE",
"149 416 OFFCURVE",
"151 375 OFFCURVE",
"170 347 CURVE SMOOTH",
"208 292 OFFCURVE",
"292 265 OFFCURVE",
"365 285 CURVE"
);
},
{
closed = 1;
nodes = (
"571 406 OFFCURVE",
"567 407 OFFCURVE",
"564 409 CURVE SMOOTH",
"526 428 OFFCURVE",
"497 461 OFFCURVE",
"491 499 CURVE SMOOTH",
"484 545 OFFCURVE",
"492 601 OFFCURVE",
"487 633 CURVE",
"514 633 OFFCURVE",
"544 631 OFFCURVE",
"574 630 CURVE SMOOTH",
"624 628 OFFCURVE",
"676 626 OFFCURVE",
"720 633 CURVE",
"717 590 OFFCURVE",
"726 543 OFFCURVE",
"725 501 CURVE SMOOTH",
"724 461 OFFCURVE",
"715 427 OFFCURVE",
"685 408 CURVE SMOOTH",
"652 388 OFFCURVE",
"611 390 OFFCURVE",
"574 405 CURVE SMOOTH"
);
},
{
closed = 1;
nodes = (
"223 386 OFFCURVE",
"199 421 OFFCURVE",
"186 467 CURVE SMOOTH",
"173 515 OFFCURVE",
"172 575 OFFCURVE",
"173 633 CURVE",
"247 634 OFFCURVE",
"371 636 OFFCURVE",
"447 630 CURVE",
"445 543 OFFCURVE",
"451 478 OFFCURVE",
"419 414 CURVE SMOOTH",
"397 370 OFFCURVE",
"326 369 OFFCURVE",
"268 372 CURVE"
);
}
);
vertWidth = 700;
width = 1000;
}
);
note = cid08754;
},
{
glyphname = C.rotat;
lastChange = "2020-12-04 07:33:58 +0000";
layers = (
{
hints = (
{
horizontal = 1;
place = "{264, 44}";
type = Stem;
},
{
horizontal = 1;
place = "{697, 84}";
type = Stem;
},
{
place = "{106, 60}";
type = Stem;
},
{
place = "{733, 58}";
type = Stem;
}
);
layerId = "96B4F23F-F25B-4934-A27A-69E4A96ADD36";
paths = (
{
closed = 1;
nodes = (
"351 273 OFFCURVE",
"286 289 OFFCURVE",
"257 304 CURVE",
"212 343 OFFCURVE",
"161 407 OFFCURVE",
"166 487 CURVE SMOOTH",
"168 523 OFFCURVE",
"190 553 OFFCURVE",
"199 587 CURVE",
"224 599 OFFCURVE",
"239 622 OFFCURVE",
"265 639 CURVE SMOOTH",
"344 691 OFFCURVE",
"475 713 OFFCURVE",
"574 686 CURVE SMOOTH",
"589 682 OFFCURVE",
"603 677 OFFCURVE",
"616 671 CURVE SMOOTH",
"672 644 OFFCURVE",
"714 578 OFFCURVE",
"728 507 CURVE SMOOTH",
"743 433 OFFCURVE",
"727 354 OFFCURVE",
"668 308 CURVE",
"638 302 OFFCURVE",
"593 309 OFFCURVE",
"573 293 CURVE SMOOTH",
"567 288 OFFCURVE",
"564 281 OFFCURVE",
"563 271 CURVE",
"566 268 OFFCURVE",
"569 266 OFFCURVE",
"573 264 CURVE SMOOTH",
"601 250 OFFCURVE",
"641 266 OFFCURVE",
"676 264 CURVE SMOOTH",
"711 262 OFFCURVE",
"745 250 OFFCURVE",
"772 260 CURVE",
"774 289 OFFCURVE",
"744 286 OFFCURVE",
"742 311 CURVE",
"775 371 OFFCURVE",
"804 455 OFFCURVE",
"786 545 CURVE SMOOTH",
"774 608 OFFCURVE",
"715 690 OFFCURVE",
"660 724 CURVE SMOOTH",
"635 739 OFFCURVE",
"607 753 OFFCURVE",
"574 763 CURVE SMOOTH",
"544 772 OFFCURVE",
"509 779 OFFCURVE",
"469 781 CURVE SMOOTH",
"362 788 OFFCURVE",
"248 749 OFFCURVE",
"199 700 CURVE SMOOTH",
"187 688 OFFCURVE",
"175 663 OFFCURVE",
"159 643 CURVE SMOOTH",
"129 606 OFFCURVE",
"106 572 OFFCURVE",
"106 516 CURVE SMOOTH",
"106 474 OFFCURVE",
"115 414 OFFCURVE",
"126 377 CURVE SMOOTH",
"137 341 OFFCURVE",
"175 296 OFFCURVE",
"207 271 CURVE SMOOTH",
"236 248 OFFCURVE",
"283 226 OFFCURVE",
"322 227 CURVE"
);
}
);
vertWidth = 730;
width = 1000;
}
);
note = cid08755;
},
{
glyphname = D.rotat;
lastChange = "2020-12-04 07:33:58 +0000";
layers = (
{
hints = (
{
horizontal = 1;
place = "{186, 93}";
type = Stem;
},
{
horizontal = 1;
place = "{618, 84}";
type = Stem;
},
{
place = "{729, 50}";
type = Stem;
}
);
layerId = "96B4F23F-F25B-4934-A27A-69E4A96ADD36";
paths = (
{
closed = 1;
nodes = (
"461 180 OFFCURVE",
"521 187 OFFCURVE",
"573 202 CURVE SMOOTH",
"623 217 OFFCURVE",
"666 239 OFFCURVE",
"699 264 CURVE SMOOTH",
"781 326 OFFCURVE",
"786 560 OFFCURVE",
"779 709 CURVE SMOOTH",
"777 745 OFFCURVE",
"768 780 OFFCURVE",
"730 782 CURVE",
"717 760 OFFCURVE",
"732 726 OFFCURVE",
"719 700 CURVE",
"672 701 OFFCURVE",
"623 702 OFFCURVE",
"574 702 CURVE SMOOTH",
"429 702 OFFCURVE",
"280 696 OFFCURVE",
"165 700 CURVE",
"158 721 OFFCURVE",
"167 732 OFFCURVE",
"161 752 CURVE",
"147 764 OFFCURVE",
"130 774 OFFCURVE",
"108 777 CURVE",
"143 660 OFFCURVE",
"105 486 OFFCURVE",
"149 360 CURVE",
"189 276 OFFCURVE",
"275 198 OFFCURVE",
"395 186 CURVE SMOOTH"
);
},
{
closed = 1;
nodes = (
"428 268 OFFCURVE",
"262 290 OFFCURVE",
"213 352 CURVE SMOOTH",
"198 371 OFFCURVE",
"183 413 OFFCURVE",
"177 437 CURVE SMOOTH",
"164 489 OFFCURVE",
"171 553 OFFCURVE",
"168 627 CURVE",
"183 621 OFFCURVE",
"202 619 OFFCURVE",
"217 619 CURVE SMOOTH",
"327 616 OFFCURVE",
"456 617 OFFCURVE",
"574 618 CURVE SMOOTH",
"627 618 OFFCURVE",
"677 619 OFFCURVE",
"722 619 CURVE",
"747 455 OFFCURVE",
"708 323 OFFCURVE",
"573 289 CURVE SMOOTH",
"564 287 OFFCURVE",
"554 284 OFFCURVE",
"544 283 CURVE SMOOTH"
);
}
);
vertWidth = 810;
width = 1000;
}
);
note = cid08756;
},
{
glyphname = E.rotat;
lastChange = "2020-12-04 07:33:58 +0000";
layers = (
{
hints = (
{
horizontal = 1;
place = "{318, 51.09}";
type = Stem;
},
{
horizontal = 1;
place = "{634, 78}";
type = Stem;
},
{
horizontal = 1;
place = "{762, 14}";
type = Stem;
},
{
place = "{124, 58}";
type = Stem;
},
{
place = "{434, 54}";
type = Stem;
},
{
place = "{713, 54}";
type = Stem;
},
{
horizontal = 1;
place = "{331.5, 57.5}";
type = Stem;
}
);
layerId = "96B4F23F-F25B-4934-A27A-69E4A96ADD36";
paths = (
{
closed = 1;
nodes = (
"187 326 OFFCURVE",
"263 304 OFFCURVE",
"317 331 CURVE",
"300 372 OFFCURVE",
"234 363 OFFCURVE",
"197 385 CURVE",
"178 457 OFFCURVE",
"181 560 OFFCURVE",
"185 634 CURVE",
"269 629 OFFCURVE",
"344 631 OFFCURVE",
"418 634 CURVE",
"441 585 OFFCURVE",
"435 513 OFFCURVE",
"426 451 CURVE",
"400 437 OFFCURVE",
"353 445 OFFCURVE",
"357 401 CURVE",
"407 391 OFFCURVE",
"498 403 OFFCURVE",
"551 389 CURVE",
"554 403 OFFCURVE",
"566 409 OFFCURVE",
"558 424 CURVE",
"538 441 OFFCURVE",
"499 441 OFFCURVE",
"488 467 CURVE",
"485 521 OFFCURVE",
"485 577 OFFCURVE",
"480 629 CURVE",
"509 632 OFFCURVE",
"542 634 OFFCURVE",
"574 634 CURVE SMOOTH",
"630 634 OFFCURVE",
"684 632 OFFCURVE",
"710 634 CURVE",
"717 576 OFFCURVE",
"713 455 OFFCURVE",
"713 389 CURVE",
"695 377 OFFCURVE",
"656 379 OFFCURVE",
"629 373 CURVE SMOOTH",
"609 369 OFFCURVE",
"595 359 OFFCURVE",
"601 335 CURVE",
"637 318 OFFCURVE",
"720 332 OFFCURVE",
"756 328 CURVE",
"786 372 OFFCURVE",
"768 438 OFFCURVE",
"767 498 CURVE SMOOTH",
"766 565 OFFCURVE",
"768 679 OFFCURVE",
"771 754 CURVE SMOOTH",
"772 776 OFFCURVE",
"747 777 OFFCURVE",
"729 781 CURVE",
"706 764 OFFCURVE",
"717 737 OFFCURVE",
"710 708 CURVE",
"670 709 OFFCURVE",
"624 710 OFFCURVE",
"574 709 CURVE SMOOTH",
"451 708 OFFCURVE",
"305 703 OFFCURVE",
"181 712 CURVE",
"179 730 OFFCURVE",
"185 753 OFFCURVE",
"177 765 CURVE",
"165 765 OFFCURVE",
"144 792 OFFCURVE",
"124 762 CURVE",
"138 629 OFFCURVE",
"124 477 OFFCURVE",
"135 335 CURVE",
"142 328 LINE"
);
}
);
vertWidth = 670;
width = 1000;
}
);
note = cid08757;
},
{
glyphname = F.rotat;
lastChange = "2020-12-04 07:33:58 +0000";
layers = (
{
hints = (
{
horizontal = 1;
place = "{626, 75}";
type = Stem;
},
{
place = "{114, 24}";
type = Stem;
},
{
place = "{422, 51}";
type = Stem;
},
{
place = "{550, 10}";
type = Stem;
},
{
place = "{723, 48}";
type = Stem;
},
{
horizontal = 1;
place = "{378, 78}";
type = Stem;
},
{
place = "{113, 63}";
type = Stem;
}
);
layerId = "96B4F23F-F25B-4934-A27A-69E4A96ADD36";
paths = (
{
closed = 1;
nodes = (
"789 357 OFFCURVE",
"774 424 OFFCURVE",
"771 487 CURVE SMOOTH",
"766 594 OFFCURVE",
"785 716 OFFCURVE",
"760 789 CURVE",
"742 797 OFFCURVE",
"739 776 OFFCURVE",
"728 789 CURVE",
"706 783 OFFCURVE",
"728 772 OFFCURVE",
"728 760 CURVE",
"715 741 OFFCURVE",
"720 721 OFFCURVE",
"720 706 CURVE",
"671 703 OFFCURVE",
"622 701 OFFCURVE",
"574 700 CURVE SMOOTH",
"444 698 OFFCURVE",
"316 702 OFFCURVE",
"185 701 CURVE",
"171 727 OFFCURVE",
"175 770 OFFCURVE",
"138 773 CURVE",
"133 769 OFFCURVE",
"130 762 OFFCURVE",
"117 765 CURVE",
"108 746 OFFCURVE",
"121 730 OFFCURVE",
"122 709 CURVE SMOOTH",
"124 677 OFFCURVE",
"113 637 OFFCURVE",
"113 605 CURVE SMOOTH",
"113 577 OFFCURVE",
"120 556 OFFCURVE",
"149 551 CURVE",
"165 570 OFFCURVE",
"175 607 OFFCURVE",
"176 630 CURVE",
"245 617 OFFCURVE",
"330 630 OFFCURVE",
"414 626 CURVE",
"422 568 OFFCURVE",
"421 518 OFFCURVE",
"422 440 CURVE",
"405 424 OFFCURVE",
"370 426 OFFCURVE",
"351 412 CURVE",
"359 377 OFFCURVE",
"391 373 OFFCURVE",
"430 374 CURVE SMOOTH",
"471 375 OFFCURVE",
"519 384 OFFCURVE",
"550 372 CURVE",
"557 381 OFFCURVE",
"564 404 OFFCURVE",
"557 415 CURVE",
"532 430 OFFCURVE",
"499 437 OFFCURVE",
"478 456 CURVE",
"478 510 OFFCURVE",
"467 574 OFFCURVE",
"478 626 CURVE",
"509 627 OFFCURVE",
"542 627 OFFCURVE",
"574 627 CURVE SMOOTH",
"626 627 OFFCURVE",
"677 626 OFFCURVE",
"723 626 CURVE",
"724 547 OFFCURVE",
"723 489 OFFCURVE",
"723 408 CURVE",
"715 375 OFFCURVE",
"661 377 OFFCURVE",
"627 367 CURVE SMOOTH",
"606 361 OFFCURVE",
"593 349 OFFCURVE",
"605 321 CURVE",
"659 319 OFFCURVE",
"710 333 OFFCURVE",
"764 317 CURVE"
);
}
);
vertWidth = 650;
width = 1000;
}
);
note = cid08758;
},
{
glyphname = G.rotat;
lastChange = "2020-12-04 07:33:58 +0000";
layers = (
{
hints = (
{
horizontal = 1;
place = "{690, 87}";
type = Stem;
},
{
place = "{111, 49}";
type = Stem;
},
{
place = "{384, 55}";
type = Stem;
},
{
place = "{748, 43}";
type = Stem;
}
);
layerId = "96B4F23F-F25B-4934-A27A-69E4A96ADD36";
paths = (
{
closed = 1;
nodes = (
"452 174 OFFCURVE",
"438 244 OFFCURVE",
"435 298 CURVE SMOOTH",
"431 376 OFFCURVE",
"454 424 OFFCURVE",
"389 416 CURVE",
"376 402 OFFCURVE",
"401 353 OFFCURVE",
"380 331 CURVE",
"323 330 OFFCURVE",
"256 338 OFFCURVE",
"205 331 CURVE",
"154 375 OFFCURVE",
"148 496 OFFCURVE",
"177 571 CURVE",
"219 645 OFFCURVE",
"346 689 OFFCURVE",
"469 690 CURVE SMOOTH",
"505 690 OFFCURVE",
"541 687 OFFCURVE",
"574 680 CURVE SMOOTH",
"633 667 OFFCURVE",
"683 641 OFFCURVE",
"712 599 CURVE SMOOTH",
"734 568 OFFCURVE",
"747 517 OFFCURVE",
"748 467 CURVE SMOOTH",
"750 396 OFFCURVE",
"729 326 OFFCURVE",
"678 308 CURVE SMOOTH",
"645 296 OFFCURVE",
"606 316 OFFCURVE",
"589 281 CURVE",
"603 258 OFFCURVE",
"630 254 OFFCURVE",
"661 255 CURVE SMOOTH",
"700 256 OFFCURVE",
"745 267 OFFCURVE",
"778 257 CURVE",
"787 277 OFFCURVE",
"764 291 OFFCURVE",
"761 312 CURVE SMOOTH",
"759 329 OFFCURVE",
"777 348 OFFCURVE",
"764 364 CURVE",
"784 402 OFFCURVE",
"792 446 OFFCURVE",
"791 489 CURVE SMOOTH",
"790 544 OFFCURVE",
"775 596 OFFCURVE",
"754 634 CURVE SMOOTH",
"721 693 OFFCURVE",
"653 735 OFFCURVE",
"574 758 CURVE SMOOTH",
"531 770 OFFCURVE",
"484 777 OFFCURVE",
"438 777 CURVE SMOOTH",
"362 777 OFFCURVE",
"288 758 OFFCURVE",
"233 718 CURVE SMOOTH",
"222 710 OFFCURVE",
"215 693 OFFCURVE",
"200 679 CURVE SMOOTH",
"188 667 OFFCURVE",
"168 660 OFFCURVE",
"159 648 CURVE SMOOTH",
"89 558 OFFCURVE",
"103 396 OFFCURVE",
"156 315 CURVE",
"141 298 OFFCURVE",
"143 281 OFFCURVE",
"155 263 CURVE",
"220 239 OFFCURVE",
"328 267 OFFCURVE",
"384 242 CURVE",
"389 215 OFFCURVE",
"378 172 OFFCURVE",
"403 165 CURVE"
);
}
);
vertWidth = 767;
width = 1000;
}
);
note = cid08759;
},
{
glyphname = H.rotat;
lastChange = "2020-12-04 07:33:58 +0000";
layers = (
{
hints = (
{
horizontal = 1;
place = "{244, 65}";
type = Stem;
},
{
horizontal = 1;
place = "{381, 15}";
type = Stem;
},
{
horizontal = 1;
place = "{637, 70}";
type = Stem;
},
{
place = "{125, 66}";
type = Stem;
},
{
place = "{443, 49}";
type = Stem;
},
{
place = "{721, 58}";
type = Stem;
},
{
place = "{130, 55.85}";
type = Stem;
},
{
place = "{729, 45}";
type = Stem;
}
);
layerId = "96B4F23F-F25B-4934-A27A-69E4A96ADD36";
paths = (
{
closed = 1;
nodes = (
"178 189 OFFCURVE",
"175 224 OFFCURVE",
"196 243 CURVE",
"296 233 OFFCURVE",
"442 242 OFFCURVE",
"573 244 CURVE SMOOTH",
"631 245 OFFCURVE",
"687 244 OFFCURVE",
"734 240 CURVE",
"733 205 OFFCURVE",
"735 175 OFFCURVE",
"761 167 CURVE",
"794 217 OFFCURVE",
"776 299 OFFCURVE",
"779 381 CURVE",
"763 386 OFFCURVE",
"752 403 OFFCURVE",
"732 392 CURVE",
"724 370 OFFCURVE",
"721 341 OFFCURVE",
"721 322 CURVE",
"674 324 OFFCURVE",
"621 315 OFFCURVE",
"573 312 CURVE SMOOTH",
"545 310 OFFCURVE",
"520 310 OFFCURVE",
"498 315 CURVE",
"497 414 OFFCURVE",
"486 533 OFFCURVE",
"496 639 CURVE",
"519 638 OFFCURVE",
"546 639 OFFCURVE",
"574 640 CURVE SMOOTH",
"633 641 OFFCURVE",
"695 642 OFFCURVE",
"729 633 CURVE",
"727 601 OFFCURVE",
"729 573 OFFCURVE",
"745 559 CURVE",
"773 575 OFFCURVE",
"779 608 OFFCURVE",
"778 647 CURVE SMOOTH",
"777 688 OFFCURVE",
"770 736 OFFCURVE",
"774 778 CURVE",
"755 777 OFFCURVE",
"756 796 OFFCURVE",
"735 793 CURVE",
"717 768 OFFCURVE",
"734 737 OFFCURVE",
"721 714 CURVE",
"678 712 OFFCURVE",
"628 710 OFFCURVE",
"574 709 CURVE SMOOTH",
"459 707 OFFCURVE",
"325 707 OFFCURVE",
"196 707 CURVE",
"180 728 OFFCURVE",
"189 760 OFFCURVE",
"168 770 CURVE SMOOTH",
"151 778 OFFCURVE",
"126 759 OFFCURVE",
"122 737 CURVE SMOOTH",
"120 726 OFFCURVE",
"129 710 OFFCURVE",
"130 690 CURVE SMOOTH",
"131 661 OFFCURVE",
"126 633 OFFCURVE",
"125 610 CURVE SMOOTH",
"124 587 OFFCURVE",
"128 571 OFFCURVE",
"150 566 CURVE",
"174 581 OFFCURVE",
"174 621 OFFCURVE",
"197 637 CURVE",
"289 634 OFFCURVE",
"350 640 OFFCURVE",
"438 639 CURVE",
"439 542 OFFCURVE",
"450 424 OFFCURVE",
"436 311 CURVE",
"373 313 OFFCURVE",
"276 308 OFFCURVE",
"191 309 CURVE",
"184 327 OFFCURVE",
"183 352 OFFCURVE",
"175 369 CURVE",
"136 391 OFFCURVE",
"117 349 OFFCURVE",
"120 332 CURVE",
"134 319 OFFCURVE",
"124 265 OFFCURVE",
"125 221 CURVE SMOOTH",
"126 191 OFFCURVE",
"133 167 OFFCURVE",
"157 162 CURVE"
);
}
);
vertWidth = 800;
width = 1000;
}
);
note = cid08760;
},
{
glyphname = I.rotat;
lastChange = "2020-12-04 07:33:58 +0000";
layers = (
{
hints = (
{
horizontal = 1;
place = "{608, 73}";
type = Stem;
},
{
place = "{103, 75}";
type = Stem;
},
{
place = "{729, 49}";
type = Stem;
}
);
layerId = "96B4F23F-F25B-4934-A27A-69E4A96ADD36";
paths = (
{
closed = 1;
nodes = (
"772 535 OFFCURVE",
"778 575 OFFCURVE",
"778 620 CURVE SMOOTH",
"778 665 OFFCURVE",
"772 715 OFFCURVE",
"772 756 CURVE",
"756 756 OFFCURVE",
"756 773 OFFCURVE",
"737 769 CURVE",
"720 747 OFFCURVE",
"731 711 OFFCURVE",
"724 687 CURVE",
"676 684 OFFCURVE",
"626 682 OFFCURVE",
"574 681 CURVE SMOOTH",
"442 678 OFFCURVE",
"302 679 OFFCURVE",
"182 678 CURVE",
"175 695 OFFCURVE",
"179 723 OFFCURVE",
"178 745 CURVE",
"162 759 OFFCURVE",
"130 785 OFFCURVE",
"103 764 CURVE",
"97 738 OFFCURVE",
"125 743 OFFCURVE",
"127 725 CURVE SMOOTH",
"136 657 OFFCURVE",
"112 572 OFFCURVE",
"143 519 CURVE",
"171 535 OFFCURVE",
"184 577 OFFCURVE",
"185 608 CURVE",
"314 608 OFFCURVE",
"446 608 OFFCURVE",
"574 606 CURVE SMOOTH",
"608 605 OFFCURVE",
"641 605 OFFCURVE",
"674 604 CURVE",
"684 602 OFFCURVE",
"692 600 OFFCURVE",
"697 594 CURVE",
"709 593 OFFCURVE",
"724 608 OFFCURVE",
"729 601 CURVE",
"730 567 OFFCURVE",
"721 524 OFFCURVE",
"747 515 CURVE"
);
}
);
vertWidth = 470;
width = 1000;
}
);
note = cid08761;
},
{
glyphname = J.rotat;
lastChange = "2020-12-04 07:33:58 +0000";
layers = (
{
hints = (
{
horizontal = 1;
place = "{522, 70}";
type = Stem;
},
{
place = "{112, 48}";
type = Stem;
},
{
place = "{728, 52}";
type = Stem;
}
);
layerId = "96B4F23F-F25B-4934-A27A-69E4A96ADD36";
paths = (
{
closed = 1;
nodes = (
"776 466 OFFCURVE",
"781 504 OFFCURVE",
"780 547 CURVE SMOOTH",
"779 592 OFFCURVE",
"772 642 OFFCURVE",
"774 681 CURVE",
"754 678 OFFCURVE",
"751 699 OFFCURVE",
"731 681 CURVE",
"719 661 OFFCURVE",
"731 638 OFFCURVE",
"728 607 CURVE",
"687 609 OFFCURVE",
"633 606 OFFCURVE",
"574 603 CURVE SMOOTH",
"458 596 OFFCURVE",
"324 586 OFFCURVE",
"239 597 CURVE SMOOTH",
"184 604 OFFCURVE",
"135 674 OFFCURVE",
"173 724 CURVE",
"237 711 OFFCURVE",
"289 754 OFFCURVE",
"269 821 CURVE",
"200 861 OFFCURVE",
"150 822 OFFCURVE",
"126 763 CURVE SMOOTH",
"104 708 OFFCURVE",
"106 636 OFFCURVE",
"137 596 CURVE",
"135 588 OFFCURVE",
"159 574 OFFCURVE",
"161 558 CURVE",
"225 523 OFFCURVE",
"318 520 OFFCURVE",
"415 522 CURVE SMOOTH",
"468 523 OFFCURVE",
"522 527 OFFCURVE",
"574 528 CURVE SMOOTH",
"628 530 OFFCURVE",
"680 529 OFFCURVE",
"726 522 CURVE",
"732 493 OFFCURVE",
"728 451 OFFCURVE",
"755 443 CURVE"
);
}
);
vertWidth = 530;
width = 1000;
}
);
note = cid08762;
},
{
glyphname = K.rotat;
lastChange = "2020-12-04 07:33:58 +0000";
layers = (
{
hints = (
{
horizontal = 1;
place = "{628, 70}";
type = Stem;
},
{
place = "{132, 42}";
type = Stem;
},
{
place = "{724, 53}";
type = Stem;
},
{
place = "{720, 54}";
type = Stem;
}
);
layerId = "96B4F23F-F25B-4934-A27A-69E4A96ADD36";
paths = (
{
closed = 1;
nodes = (
"188 206 OFFCURVE",
"183 265 OFFCURVE",
"202 301 CURVE",
"310 358 OFFCURVE",
"399 431 OFFCURVE",
"504 491 CURVE",
"529 473 OFFCURVE",
"552 454 OFFCURVE",
"574 433 CURVE SMOOTH",
"624 387 OFFCURVE",
"669 336 OFFCURVE",
"720 292 CURVE",
"735 273 OFFCURVE",
"731 237 OFFCURVE",
"743 215 CURVE",
"768 233 OFFCURVE",
"774 264 OFFCURVE",
"774 300 CURVE SMOOTH",
"775 340 OFFCURVE",
"768 385 OFFCURVE",
"770 425 CURVE",
"758 426 OFFCURVE",
"748 430 OFFCURVE",
"739 434 CURVE",
"724 425 OFFCURVE",
"728 394 OFFCURVE",
"720 378 CURVE",
"669 417 OFFCURVE",
"621 459 OFFCURVE",
"574 503 CURVE SMOOTH",
"532 543 OFFCURVE",
"491 584 OFFCURVE",
"454 628 CURVE",
"498 626 OFFCURVE",
"537 626 OFFCURVE",
"574 626 CURVE SMOOTH",
"627 625 OFFCURVE",
"675 623 OFFCURVE",
"730 609 CURVE",
"730 581 OFFCURVE",
"731 555 OFFCURVE",
"746 542 CURVE",
"772 564 OFFCURVE",
"777 600 OFFCURVE",
"777 642 CURVE SMOOTH",
"777 678 OFFCURVE",
"774 718 OFFCURVE",
"777 756 CURVE",
"757 755 OFFCURVE",
"760 784 OFFCURVE",
"730 769 CURVE",
"713 751 OFFCURVE",
"741 731 OFFCURVE",
"727 706 CURVE",
"687 689 OFFCURVE",
"627 701 OFFCURVE",
"574 699 CURVE SMOOTH",
"569 699 OFFCURVE",
"565 698 OFFCURVE",
"560 698 CURVE SMOOTH",
"444 688 OFFCURVE",
"317 704 OFFCURVE",
"202 694 CURVE",
"175 708 OFFCURVE",
"175 734 OFFCURVE",
"174 764 CURVE",
"154 761 OFFCURVE",
"154 786 OFFCURVE",
"132 772 CURVE",
"114 734 OFFCURVE",
"134 687 OFFCURVE",
"132 632 CURVE SMOOTH",
"131 587 OFFCURVE",
"127 568 OFFCURVE",
"158 554 CURVE",
"162 586 OFFCURVE",
"182 603 OFFCURVE",
"194 628 CURVE",
"264 626 OFFCURVE",
"320 624 OFFCURVE",
"389 628 CURVE",
"397 588 OFFCURVE",
"440 584 OFFCURVE",
"450 546 CURVE",
"377 496 OFFCURVE",
"290 433 OFFCURVE",
"212 383 CURVE SMOOTH",
"188 368 OFFCURVE",
"151 361 OFFCURVE",
"139 348 CURVE SMOOTH",
"113 321 OFFCURVE",
"111 218 OFFCURVE",
"147 192 CURVE"
);
}
);
vertWidth = 730;
width = 1000;
}
);
note = cid08763;
},
{
glyphname = L.rotat;
lastChange = "2020-12-04 07:33:58 +0000";
layers = (
{
hints = (
{
horizontal = 1;
place = "{610, 76}";
type = Stem;
},
{
place = "{121, 50}";
type = Stem;
},
{
place = "{731, 44}";
type = Stem;
}
);
layerId = "96B4F23F-F25B-4934-A27A-69E4A96ADD36";
paths = (
{
closed = 1;
nodes = (
"315 346 OFFCURVE",
"284 355 OFFCURVE",
"253 363 CURVE SMOOTH",
"218 372 OFFCURVE",
"184 379 OFFCURVE",
"174 416 CURVE SMOOTH",
"165 449 OFFCURVE",
"178 486 OFFCURVE",
"177 521 CURVE SMOOTH",
"176 553 OFFCURVE",
"165 582 OFFCURVE",
"177 614 CURVE",
"316 607 OFFCURVE",
"453 610 OFFCURVE",
"574 610 CURVE SMOOTH",
"622 610 OFFCURVE",
"668 609 OFFCURVE",
"711 607 CURVE",
"745 585 OFFCURVE",
"716 548 OFFCURVE",
"738 528 CURVE",
"772 537 OFFCURVE",
"779 569 OFFCURVE",
"779 608 CURVE SMOOTH",
"779 659 OFFCURVE",
"767 721 OFFCURVE",
"786 762 CURVE",
"761 757 OFFCURVE",
"752 787 OFFCURVE",
"730 773 CURVE",
"729 769 OFFCURVE",
"726 769 OFFCURVE",
"723 767 CURVE",
"714 743 OFFCURVE",
"741 719 OFFCURVE",
"727 688 CURVE",
"680 688 OFFCURVE",
"628 687 OFFCURVE",
"574 686 CURVE SMOOTH",
"444 684 OFFCURVE",
"304 681 OFFCURVE",
"192 688 CURVE",
"183 724 OFFCURVE",
"168 781 OFFCURVE",
"127 762 CURVE",
"141 632 OFFCURVE",
"108 436 OFFCURVE",
"127 321 CURVE",
"186 299 OFFCURVE",
"264 293 OFFCURVE",
"326 315 CURVE"
);
}
);
vertWidth = 630;
width = 1000;
}
);
note = cid08764;
},
{
glyphname = M.rotat;
lastChange = "2020-12-04 07:33:58 +0000";
layers = (
{
hints = (
{
horizontal = 1;
place = "{116, 67}";
type = Stem;
},
{
horizontal = 1;
place = "{649, 56}";
type = Stem;
},
{
horizontal = 1;
place = "{781, 7}";
type = Stem;
},
{
place = "{122, 55}";
type = Stem;
},
{
place = "{722, 46}";
type = Stem;
},
{
place = "{726, 56}";
type = Stem;
},
{
horizontal = 1;
place = "{664, 48}";
type = Stem;
},
{
place = "{119, 59}";
type = Stem;
}
);
layerId = "96B4F23F-F25B-4934-A27A-69E4A96ADD36";
paths = (
{
closed = 1;
nodes = (
"178 56 OFFCURVE",
"173 98 OFFCURVE",
"195 114 CURVE",
"315 107 OFFCURVE",
"446 114 OFFCURVE",
"573 116 CURVE SMOOTH",
"623 117 OFFCURVE",
"673 117 OFFCURVE",
"721 115 CURVE",
"731 97 OFFCURVE",
"719 57 OFFCURVE",
"738 49 CURVE",
"788 55 OFFCURVE",
"788 164 OFFCURVE",
"773 213 CURVE",
"710 244 OFFCURVE",
"642 269 OFFCURVE",
"573 294 CURVE SMOOTH",
"474 329 OFFCURVE",
"374 363 OFFCURVE",
"284 407 CURVE",
"376 452 OFFCURVE",
"476 490 OFFCURVE",
"574 530 CURVE SMOOTH",
"625 551 OFFCURVE",
"676 572 OFFCURVE",
"725 594 CURVE SMOOTH",
"740 602 OFFCURVE",
"751 592 OFFCURVE",
"764 599 CURVE",
"796 647 OFFCURVE",
"767 715 OFFCURVE",
"768 781 CURVE",
"748 799 OFFCURVE",
"739 776 OFFCURVE",
"722 776 CURVE",
"719 753 OFFCURVE",
"720 734 OFFCURVE",
"718 719 CURVE",
"671 717 OFFCURVE",
"623 715 OFFCURVE",
"574 712 CURVE SMOOTH",
"442 705 OFFCURVE",
"307 699 OFFCURVE",
"193 713 CURVE",
"185 744 OFFCURVE",
"163 779 OFFCURVE",
"129 769 CURVE",
"121 720 OFFCURVE",
"106 624 OFFCURVE",
"144 596 CURVE",
"164 606 OFFCURVE",
"165 632 OFFCURVE",
"178 649 CURVE",
"287 652 OFFCURVE",
"443 654 OFFCURVE",
"574 659 CURVE SMOOTH",
"600 660 LINE SMOOTH",
"635 661 OFFCURVE",
"697 664 OFFCURVE",
"697 664 CURVE",
"657 646 OFFCURVE",
"616 629 OFFCURVE",
"574 612 CURVE SMOOTH",
"431 554 OFFCURVE",
"283 500 OFFCURVE",
"146 436 CURVE",
"135 385 OFFCURVE",
"192 383 OFFCURVE",
"221 374 CURVE SMOOTH",
"253 364 OFFCURVE",
"292 349 OFFCURVE",
"320 338 CURVE SMOOTH",
"401 306 OFFCURVE",
"492 270 OFFCURVE",
"573 236 CURVE SMOOTH",
"597 226 OFFCURVE",
"620 216 OFFCURVE",
"642 206 CURVE",
"689 204 OFFCURVE",
"726 188 OFFCURVE",
"726 188 CURVE",
"675 188 OFFCURVE",
"624 188 OFFCURVE",
"573 187 CURVE SMOOTH",
"444 186 OFFCURVE",
"316 183 OFFCURVE",
"193 183 CURVE",
"184 198 OFFCURVE",
"177 220 OFFCURVE",
"177 234 CURVE",
"157 234 OFFCURVE",
"159 254 OFFCURVE",
"140 249 CURVE",
"112 207 OFFCURVE",
"116 70 OFFCURVE",
"157 39 CURVE"
);
}
);
vertWidth = 920;
width = 1000;
}
);
note = cid08765;
},
{
glyphname = N.rotat;
lastChange = "2020-12-04 07:33:58 +0000";
layers = (
{
hints = (
{
horizontal = 1;
place = "{223, 48}";
type = Stem;
},
{
horizontal = 1;
place = "{658, 44}";
type = Stem;
},
{
horizontal = 1;
place = "{762, 12}";
type = Stem;
},
{
place = "{728, 54}";
type = Stem;
},
{
place = "{722, 53}";
type = Stem;
}
);
layerId = "96B4F23F-F25B-4934-A27A-69E4A96ADD36";
paths = (
{
closed = 1;
nodes = (
"773 149 OFFCURVE",
"783 208 OFFCURVE",
"782 260 CURVE SMOOTH",
"781 306 OFFCURVE",
"771 346 OFFCURVE",
"749 344 CURVE SMOOTH",
"722 342 OFFCURVE",
"733 308 OFFCURVE",
"723 282 CURVE",
"673 277 OFFCURVE",
"622 274 OFFCURVE",
"573 273 CURVE SMOOTH",
"471 270 OFFCURVE",
"370 272 OFFCURVE",
"268 269 CURVE",
"368 340 OFFCURVE",
"471 413 OFFCURVE",
"574 485 CURVE SMOOTH",
"629 523 OFFCURVE",
"684 561 OFFCURVE",
"739 598 CURVE",
"750 598 OFFCURVE",
"745 581 OFFCURVE",
"758 582 CURVE",
"782 636 OFFCURVE",
"772 699 OFFCURVE",
"775 762 CURVE",
"754 781 OFFCURVE",
"737 776 OFFCURVE",
"728 762 CURVE SMOOTH",
"721 750 OFFCURVE",
"719 731 OFFCURVE",
"725 715 CURVE",
"674 714 OFFCURVE",
"624 712 OFFCURVE",
"574 710 CURVE SMOOTH",
"437 704 OFFCURVE",
"305 695 OFFCURVE",
"188 709 CURVE",
"183 728 OFFCURVE",
"178 747 OFFCURVE",
"172 764 CURVE",
"156 764 OFFCURVE",
"149 784 OFFCURVE",
"132 770 CURVE",
"108 729 OFFCURVE",
"141 670 OFFCURVE",
"122 619 CURVE",
"134 611 OFFCURVE",
"135 589 OFFCURVE",
"151 584 CURVE",
"171 598 OFFCURVE",
"172 640 OFFCURVE",
"200 650 CURVE SMOOTH",
"246 667 OFFCURVE",
"336 653 OFFCURVE",
"410 654 CURVE SMOOTH",
"474 655 OFFCURVE",
"525 657 OFFCURVE",
"574 657 CURVE SMOOTH",
"611 657 OFFCURVE",
"646 656 OFFCURVE",
"686 654 CURVE",
"653 628 OFFCURVE",
"615 601 OFFCURVE",
"574 575 CURVE SMOOTH",
"472 509 OFFCURVE",
"355 443 OFFCURVE",
"270 371 CURVE SMOOTH",
"225 332 OFFCURVE",
"173 307 OFFCURVE",
"135 275 CURVE SMOOTH",
"120 263 OFFCURVE",
"123 224 OFFCURVE",
"144 209 CURVE",
"265 227 OFFCURVE",
"428 219 OFFCURVE",
"573 223 CURVE SMOOTH",
"613 224 OFFCURVE",
"652 226 OFFCURVE",
"688 230 CURVE",
"700 211 OFFCURVE",
"723 220 OFFCURVE",
"728 203 CURVE",
"728 172 OFFCURVE",
"729 141 OFFCURVE",
"757 140 CURVE"
);
}
);
vertWidth = 820;
width = 1000;
}
);
note = cid08766;
},
